<?xml version="1.0" standalone="no"?>
<!DOCTYPE svg PUBLIC "-//W3C//DTD SVG 1.1//EN" "http://www.w3.org/Graphics/SVG/1.1/DTD/svg11.dtd" >
<svg xmlns="http://www.w3.org/2000/svg" xmlns:xlink="http://www.w3.org/1999/xlink" version="1.1">
<metadata>
Created by FontForge 20170731 at Wed Jul  8 10:06:39 2020
 By Aleksey,,,
(c)2014-20 Ilya Ruderman and Yury Ostromentsky, under exclusive license to CSTM Fonts. All rights reserved.
</metadata>
<defs>
<font id="normalidad-300" horiz-adv-x="790" >
  <font-face 
    font-family="Normalidad Compact Light"
    font-weight="350"
    font-stretch="condensed"
    units-per-em="1000"
    panose-1="2 11 4 6 2 1 2 2 3 3"
    ascent="800"
    descent="-200"
    x-height="494"
    cap-height="690"
    bbox="-173 -238 1193 1056"
    underline-thickness="40"
    underline-position="-125"
    unicode-range="U+0020-FEFF"
  />
<missing-glyph horiz-adv-x="500" 
d="M0 0v700h500v-700h-500zM250 395l170 255h-340zM280 350l170 -255v510zM50 605v-510l170 255zM80 50h340l-170 255z" />
    <glyph glyph-name=".notdef" horiz-adv-x="500" 
d="M0 0v700h500v-700h-500zM250 395l170 255h-340zM280 350l170 -255v510zM50 605v-510l170 255zM80 50h340l-170 255z" />
    <glyph glyph-name=".null" horiz-adv-x="0" 
 />
    <glyph glyph-name="nonmarkingreturn" horiz-adv-x="333" 
 />
    <glyph glyph-name="space" unicode=" " horiz-adv-x="220" 
 />
    <glyph glyph-name="exclam" unicode="!" horiz-adv-x="231" 
d="M71 690h89l-12 -517h-65zM64 39q0 25 13 37.5t38 12.5t38.5 -12.5t13.5 -37.5t-13.5 -37.5t-38.5 -12.5t-38 12.5t-13 37.5z" />
    <glyph glyph-name="quotedbl" unicode="&#x22;" horiz-adv-x="352" 
d="M56 690h74l-7 -242h-61zM222 690h74l-7 -242h-61z" />
    <glyph glyph-name="numbersign" unicode="#" horiz-adv-x="723" 
d="M33 173l15 63h122l44 206h-154l15 63h153l39 185h69l-39 -185h198l39 185h69l-39 -185h125l-14 -63h-125l-44 -206h156l-14 -63h-155l-37 -173h-69l37 173h-198l-37 -173h-69l37 173h-124zM239 236h198l44 206h-198z" />
    <glyph glyph-name="dollar" unicode="$" horiz-adv-x="561" 
d="M38 176h81q4 -72 45 -97.5t126 -25.5q76 0 114.5 30.5t38.5 97.5q0 86 -61.5 107.5t-135.5 34t-135.5 45.5t-61.5 142q0 90 50.5 137t145.5 53v110h72v-110q88 -7 138 -47.5t54 -126.5h-81q-4 66 -43.5 88.5t-107.5 22.5q-74 0 -111.5 -28.5t-37.5 -97.5
q0 -81 61.5 -101.5t135.5 -33.5t135.5 -48t61.5 -145q0 -96 -52.5 -142.5t-152.5 -50.5v-110h-72v110q-101 7 -151.5 48.5t-55.5 137.5z" />
    <glyph glyph-name="percent" unicode="%" horiz-adv-x="831" 
d="M30 521q0 94 45 137t124 43q80 0 124.5 -43t44.5 -137q0 -96 -44.5 -138t-124.5 -42q-79 0 -124 42t-45 138zM631 690h75l-507 -690h-75zM300 509v22q0 63 -26.5 87t-74.5 24q-47 0 -73.5 -24t-26.5 -87v-21q0 -64 27 -87t73 -23t73.5 23t27.5 86zM463 169q0 94 44.5 137
t124.5 43q79 0 124 -43t45 -137q0 -96 -45 -138t-124 -42q-80 0 -124.5 42t-44.5 138zM732 157v22q0 63 -26.5 87t-73.5 24q-48 0 -74 -24t-26 -87v-21q0 -64 27 -87t73 -23t73 23t27 86z" />
    <glyph glyph-name="ampersand" unicode="&#x26;" horiz-adv-x="655" 
d="M29 178q0 70 37.5 118.5t121.5 83.5q-34 38 -58 79t-24 92q0 67 42.5 108.5t131.5 41.5q90 0 133 -42t43 -109q0 -57 -41 -105.5t-122 -81.5l168 -192q16 33 25 76.5t9 97.5h74q0 -74 -16 -131t-43 -98l17 -19q19 -22 39 -29.5t58 -7.5h24v-60h-41q-46 0 -76.5 12
t-53.5 39l-12 13q-44 -40 -99 -57.5t-109 -17.5q-62 0 -105.5 15.5t-70.5 41t-39.5 60t-12.5 72.5zM182 544q0 -36 21.5 -69t52.5 -70q61 25 93 59t32 80v10q0 43 -26.5 65t-73.5 22q-50 0 -74.5 -23.5t-24.5 -63.5v-10zM108 170q0 -59 43 -89.5t108 -30.5q47 0 89.5 15
t73.5 49l-190 217l-3 3t-3 4q-57 -24 -87.5 -58t-30.5 -86v-24z" />
    <glyph glyph-name="quotesingle" unicode="'" horiz-adv-x="185" 
d="M56 690h74l-7 -242h-61z" />
    <glyph glyph-name="parenleft" unicode="(" horiz-adv-x="308" 
d="M46 265q0 123 17.5 211t49.5 145t77.5 87t100.5 37v-64q-74 -15 -119.5 -105t-45.5 -240v-138q0 -154 46 -244t119 -105v-64q-113 15 -179 125t-66 355z" />
    <glyph glyph-name="parenright" unicode=")" horiz-adv-x="308" 
d="M262 265q0 -123 -17.5 -211t-49.5 -145t-77.5 -87t-100.5 -37v64q74 15 119.5 105t45.5 240v138q0 154 -46 244t-119 105v64q113 -15 179 -125t66 -355z" />
    <glyph glyph-name="asterisk" unicode="*" horiz-adv-x="411" 
d="M50 468l111 58l-111 58l28 48l103 -66l-5 124h60l-6 -124l104 66l27 -48l-110 -58l110 -58l-27 -48l-104 66l6 -124h-60l5 124l-103 -66z" />
    <glyph glyph-name="plus" unicode="+" horiz-adv-x="575" 
d="M253 107v211h-207v67h207v211h69v-211h208v-67h-208v-211h-69z" />
    <glyph glyph-name="comma" unicode="," horiz-adv-x="192" 
d="M50 -89q25 0 34.5 15.5t9.5 45.5v17h-3q-23 0 -36 13t-13 37q0 25 13.5 37.5t37.5 12.5t38 -12t14 -39v-60q0 -59 -22 -86t-73 -27v46z" />
    <glyph glyph-name="hyphen" unicode="-" horiz-adv-x="409" 
d="M50 293h310v-73h-310v73z" />
    <glyph glyph-name="period" unicode="." horiz-adv-x="201" 
d="M49 39q0 25 13 37.5t38 12.5t38.5 -12.5t13.5 -37.5t-13.5 -37.5t-38.5 -12.5t-38 12.5t-13 37.5z" />
    <glyph glyph-name="slash" unicode="/" horiz-adv-x="436" 
d="M341 740h74l-321 -835h-74z" />
    <glyph glyph-name="zero" unicode="0" horiz-adv-x="638" 
d="M54 345q0 177 65 266.5t200 89.5q134 0 199.5 -89.5t65.5 -266.5q0 -172 -65.5 -264t-199.5 -92q-135 0 -200 92t-65 264zM503 306v85q0 118 -45.5 181.5t-138.5 63.5q-94 0 -139.5 -63.5t-45.5 -182.5v-84q0 -117 45 -184.5t140 -67.5q94 0 139 67.5t45 184.5z" />
    <glyph glyph-name="one" unicode="1" horiz-adv-x="313" 
d="M27 586l123 104h80v-690h-80v609l-123 -105v82z" />
    <glyph glyph-name="two" unicode="2" horiz-adv-x="553" 
d="M48 33q0 131 58 189.5t127 91.5t127 66.5t58 115.5v35q0 52 -35 78.5t-98 26.5q-74 0 -110.5 -30t-40.5 -106h-80q4 107 65.5 154t165.5 47q97 0 155.5 -43t58.5 -145q0 -108 -56.5 -153.5t-125 -76.5t-127 -73t-62.5 -143h376v-67h-456v33z" />
    <glyph glyph-name="three" unicode="3" horiz-adv-x="574" 
d="M40 188h82q4 -62 43.5 -98t123.5 -36q76 0 115 32t39 89v38q0 59 -42.5 88t-105.5 29h-63v63h63q51 0 88.5 26t37.5 78v37q0 54 -34 78t-97 24q-68 0 -103.5 -26t-44.5 -91h-82q8 93 67.5 137.5t161.5 44.5q99 0 155.5 -43.5t56.5 -133.5q0 -64 -31.5 -104t-88.5 -53
q65 -13 103.5 -56t38.5 -115q0 -107 -60.5 -157t-173.5 -50q-117 0 -180 49t-69 150z" />
    <glyph glyph-name="four" unicode="4" horiz-adv-x="596" 
d="M21 242l321 448h122v-435h105v-64h-105v-191h-80v191h-363v51zM108 255h276v385z" />
    <glyph glyph-name="five" unicode="5" horiz-adv-x="562" 
d="M43 168h82q7 -56 47.5 -85t109.5 -29q75 0 116 37.5t41 113.5v42q0 71 -40 105.5t-112 34.5q-41 0 -79.5 -17.5t-65.5 -50.5l-78 14l37 357h381v-66h-318l-27 -245q23 26 65 46.5t101 20.5q103 0 159.5 -54.5t56.5 -166.5q0 -119 -61 -177.5t-176 -58.5q-110 0 -171 46.5
t-68 132.5z" />
    <glyph glyph-name="six" unicode="6" horiz-adv-x="597" 
d="M55 273q0 128 18.5 211.5t52 131t82 66.5t108.5 19q107 0 158 -45.5t57 -113.5h-80q-6 46 -39.5 70t-96.5 24q-41 0 -73 -12.5t-54 -43t-35 -84.5t-16 -136q29 41 78 61t112 20q101 0 162.5 -50t61.5 -172q0 -116 -63.5 -173t-178.5 -57q-131 0 -193 66.5t-61 217.5z
M470 195v47q0 72 -40 106t-119 34q-85 0 -129 -35.5t-44 -115.5q0 -90 40.5 -134t130.5 -44q81 0 121 37t40 105z" />
    <glyph glyph-name="seven" unicode="7" horiz-adv-x="483" 
d="M18 624v66h448v-50l-288 -640h-78l281 624h-363z" />
    <glyph glyph-name="eight" unicode="8" horiz-adv-x="611" 
d="M51 191q0 73 37 117.5t107 59.5q-63 15 -91 55.5t-28 100.5q0 93 64 135t165 42t165.5 -42t64.5 -135q0 -60 -28.5 -100.5t-91.5 -55.5q70 -15 107.5 -59.5t37.5 -117.5q0 -104 -66.5 -153t-188.5 -49t-188 49t-66 153zM455 502v28q0 55 -39 81.5t-111 26.5
q-71 0 -110 -26.5t-39 -81.5v-28q0 -54 39 -81t110 -26q72 0 111 26.5t39 80.5zM480 175v34q0 65 -48 95t-127 30q-78 0 -126 -30.5t-48 -94.5v-34q0 -65 48 -94t126 -29t126.5 29t48.5 94z" />
    <glyph glyph-name="nine" unicode="9" horiz-adv-x="597" 
d="M542 418q0 -128 -18.5 -211.5t-52 -131t-82 -66.5t-108.5 -19q-107 0 -158 45.5t-57 113.5h80q6 -46 39.5 -70t96.5 -24q41 0 73 12.5t54 43t35 84.5t16 136q-29 -41 -78 -61t-112 -20q-101 0 -162.5 50t-61.5 172q0 116 63.5 173t178.5 57q131 0 193 -66.5t61 -217.5z
M127 496v-47q0 -72 40 -106t119 -34q85 0 129 35.5t44 115.5q0 90 -40.5 134t-130.5 44q-81 0 -121 -37t-40 -105z" />
    <glyph glyph-name="colon" unicode=":" horiz-adv-x="224" 
d="M61 39q0 25 13 37.5t38 12.5t38.5 -12.5t13.5 -37.5t-13.5 -37.5t-38.5 -12.5t-38 12.5t-13 37.5zM61 404q0 25 13 37.5t38 12.5t38.5 -12.5t13.5 -37.5t-13.5 -37.5t-38.5 -12.5t-38 12.5t-13 37.5z" />
    <glyph glyph-name="semicolon" unicode=";" horiz-adv-x="227" 
d="M62 404q0 25 13 37.5t38 12.5t38.5 -12.5t13.5 -37.5t-13.5 -37.5t-38.5 -12.5t-38 12.5t-13 37.5zM70 -89q25 0 34.5 15.5t9.5 45.5v17h-3q-23 0 -36 13t-13 37q0 25 13.5 37.5t37.5 12.5t38 -12t14 -39v-60q0 -59 -22 -86t-73 -27v46z" />
    <glyph glyph-name="less" unicode="&#x3c;" horiz-adv-x="594" 
d="M42 313v78l483 215v-72l-412 -181l412 -180v-75z" />
    <glyph glyph-name="equal" unicode="=" horiz-adv-x="617" 
d="M67 484h483v-66h-483v66zM67 287h483v-67h-483v67z" />
    <glyph glyph-name="greater" unicode="&#x3e;" horiz-adv-x="594" 
d="M552 389v-78l-483 -215v72l412 181l-412 180v75z" />
    <glyph glyph-name="question" unicode="?" horiz-adv-x="509" 
d="M397 512v27q0 49 -36 73t-99 24q-72 0 -112.5 -29t-42.5 -106h-81q3 108 68 154t169 46q46 0 85.5 -10t68 -31t45 -53.5t16.5 -77.5q0 -71 -32.5 -103.5t-70.5 -56.5t-70.5 -57t-32.5 -105v-34h-68v34q0 81 30 122t66.5 66.5t66.5 48.5t30 68zM188 39q0 25 13 37.5
t38 12.5t38.5 -12.5t13.5 -37.5t-13.5 -37.5t-38.5 -12.5t-38 12.5t-13 37.5z" />
    <glyph glyph-name="at" unicode="@" horiz-adv-x="951" 
d="M41 245q0 121 33 208t91 141.5t138.5 80.5t175.5 26q98 0 178 -25.5t136 -78t86.5 -134t30.5 -193.5q0 -77 -12 -129t-33 -82.5t-51.5 -43.5t-66.5 -13q-66 0 -97.5 32t-36.5 72q-22 -54 -64 -79t-96 -25q-90 0 -145.5 55t-55.5 186q0 134 54 191t147 57q47 0 84.5 -18
t61.5 -58v64h69v-274q0 -46 5.5 -74.5t16 -44t26 -21t36.5 -5.5q40 0 63.5 38.5t23.5 125.5v66q0 97 -28 165t-76.5 110t-114.5 61t-141 19q-73 0 -140 -19t-117.5 -61.5t-80.5 -111.5t-30 -169v-74q0 -105 34.5 -175t88 -111t119 -58t126.5 -17q25 0 55 2t59 7t55.5 13
t44.5 19v-58q-34 -19 -91.5 -29t-122.5 -10q-78 0 -156.5 20.5t-141 72t-101.5 139t-39 220.5zM597 217v59q0 83 -37 120.5t-98 37.5t-98.5 -38t-37.5 -124v-59q0 -77 37.5 -115.5t98.5 -38.5t98 39t37 119z" />
    <glyph glyph-name="A" unicode="A" horiz-adv-x="604" 
d="M244 690h117l233 -690h-82l-67 199h-295l-67 -199h-72zM171 262h253l-126 376z" />
    <glyph glyph-name="B" unicode="B" horiz-adv-x="591" 
d="M78 690h264q87 0 135.5 -42t48.5 -128q0 -60 -26.5 -104t-81.5 -61q60 -13 92.5 -54t32.5 -110q0 -93 -49 -142t-143 -49h-273v690zM446 492v36q0 47 -28.5 74t-84.5 27h-176v-248h176q55 0 84 29.5t29 81.5zM463 166v47q0 51 -32 80t-96 29h-178v-261h178q62 0 95 27.5
t33 77.5z" />
    <glyph glyph-name="C" unicode="C" horiz-adv-x="614" 
d="M49 346q0 189 72 272t203 83q119 0 180.5 -49t72.5 -156h-80q-10 81 -51.5 110.5t-121.5 29.5q-90 0 -142 -59t-52 -187v-84q0 -125 52 -188.5t143 -63.5q77 0 119 28t54 106h80q-13 -105 -75 -152t-179 -47q-131 0 -203 83.5t-72 273.5z" />
    <glyph glyph-name="D" unicode="D" horiz-adv-x="661" 
d="M78 690h231q151 0 227.5 -82t76.5 -263q0 -175 -76.5 -260t-227.5 -85h-231v690zM309 67q107 0 165 60.5t58 181.5v79q0 121 -58 178.5t-165 57.5h-151v-557h151z" />
    <glyph glyph-name="E" unicode="E" horiz-adv-x="536" 
d="M78 690h411v-66h-331v-240h288v-64h-288v-254h335v-66h-415v690z" />
    <glyph glyph-name="F" unicode="F" horiz-adv-x="503" 
d="M78 690h400v-66h-320v-246h276v-67h-276v-311h-80v690z" />
    <glyph glyph-name="G" unicode="G" horiz-adv-x="642" 
d="M49 346q0 191 73.5 273t205.5 82q121 0 183 -49.5t75 -154.5h-81q-9 75 -52 107t-125 32q-92 0 -145 -58.5t-53 -191.5v-81q0 -128 52.5 -189.5t145.5 -61.5q104 0 146 54t44 158h-174v61h253v-48q0 -135 -63.5 -212.5t-205.5 -77.5q-132 0 -205.5 82t-73.5 275z" />
    <glyph glyph-name="H" unicode="H" horiz-adv-x="645" 
d="M78 690h80v-305h328v305h80v-690h-80v318h-328v-318h-80v690z" />
    <glyph glyph-name="I" unicode="I" horiz-adv-x="237" 
d="M78 690h80v-690h-80v690z" />
    <glyph glyph-name="J" unicode="J" horiz-adv-x="282" 
d="M13 65h48q36 0 50.5 17.5t14.5 59.5v548h80v-562q0 -66 -27 -97t-103 -31h-63v65z" />
    <glyph glyph-name="K" unicode="K" horiz-adv-x="567" 
d="M78 690h80v-310h75l231 310h86l-251 -337l270 -353h-96l-240 314h-75v-314h-80v690z" />
    <glyph glyph-name="L" unicode="L" horiz-adv-x="497" 
d="M78 690h80v-623h325v-67h-405v690z" />
    <glyph glyph-name="M" unicode="M" horiz-adv-x="807" 
d="M359 105l-208 520v-625h-73v690h121l204 -507l206 507h119v-690h-80v621l-210 -516h-79z" />
    <glyph glyph-name="N" unicode="N" horiz-adv-x="657" 
d="M473 0l-317 586v-586h-78v690h106l317 -586v586h78v-690h-106z" />
    <glyph glyph-name="O" unicode="O" horiz-adv-x="691" 
d="M49 347q0 190 74 272t222 82t222.5 -82t74.5 -272t-74.5 -274t-222.5 -84t-222 84t-74 274zM561 308v81q0 128 -54 187.5t-162 59.5t-161.5 -59.5t-53.5 -187.5v-81q0 -126 53.5 -190t161.5 -64t162 64t54 190z" />
    <glyph glyph-name="P" unicode="P" horiz-adv-x="575" 
d="M78 690h262q106 0 155.5 -55t49.5 -151t-49.5 -149t-155.5 -53h-182v-282h-80v690zM464 465v39q0 51 -31.5 85.5t-101.5 34.5h-173v-276h173q69 0 101 33.5t32 83.5z" />
    <glyph glyph-name="Q" unicode="Q" horiz-adv-x="691" 
d="M49 347q0 190 74 272t222 82t222.5 -82t74.5 -272q0 -101 -21 -172t-63 -114l100 -102l-57 -52l-106 110q-31 -14 -68.5 -21t-81.5 -7q-148 0 -222 84t-74 274zM561 308v81q0 128 -54 187.5t-162 59.5t-161.5 -59.5t-53.5 -187.5v-81q0 -126 53.5 -190t161.5 -64t162 64
t54 190z" />
    <glyph glyph-name="R" unicode="R" horiz-adv-x="599" 
d="M78 690h258q105 0 156.5 -53.5t51.5 -149.5q0 -75 -30.5 -123.5t-93.5 -67.5l152 -296h-87l-147 285h-2h-178v-285h-80v690zM463 468v37q0 51 -31.5 85.5t-102.5 34.5h-171v-275h171q70 0 102 34t32 84z" />
    <glyph glyph-name="S" unicode="S" horiz-adv-x="569" 
d="M42 176h81q4 -72 45 -97.5t126 -25.5q76 0 114.5 30.5t38.5 97.5q0 86 -61.5 107.5t-135.5 34t-135.5 45.5t-61.5 142q0 98 59 144.5t169 46.5q107 0 167.5 -40t64.5 -135h-81q-4 66 -43.5 88.5t-107.5 22.5q-74 0 -111.5 -28.5t-37.5 -97.5q0 -81 61.5 -101.5
t135.5 -33.5t135.5 -48t61.5 -145q0 -102 -59 -148t-172 -46q-125 0 -186 40.5t-67 146.5z" />
    <glyph glyph-name="T" unicode="T" horiz-adv-x="531" 
d="M225 624h-212v66h504v-66h-212v-624h-80v624z" />
    <glyph glyph-name="U" unicode="U" horiz-adv-x="631" 
d="M73 236v454h80v-454q0 -99 42 -141t124 -42q83 0 125 42t42 141v454h72v-454q0 -118 -56 -182.5t-183 -64.5q-129 0 -187.5 64.5t-58.5 182.5z" />
    <glyph glyph-name="V" unicode="V" horiz-adv-x="600" 
d="M10 690h82l213 -631l212 631h73l-233 -690h-113z" />
    <glyph glyph-name="W" unicode="W" horiz-adv-x="837" 
d="M25 690h81l119 -613l150 613h101l143 -605l128 605h71l-147 -690h-107l-143 603l-148 -603h-114z" />
    <glyph glyph-name="X" unicode="X" horiz-adv-x="574" 
d="M482 0l-198 296l-198 -296h-80l235 350l-227 340h88l188 -281l188 281h80l-226 -334l238 -356h-88z" />
    <glyph glyph-name="Y" unicode="Y" horiz-adv-x="579" 
d="M251 308l-245 382h86l203 -318l200 318h77l-241 -382v-308h-80v308z" />
    <glyph glyph-name="Z" unicode="Z" horiz-adv-x="528" 
d="M34 67l376 557h-376v66h459v-66l-376 -557h376v-67h-459v67z" />
    <glyph glyph-name="bracketleft" unicode="[" horiz-adv-x="321" 
d="M77 740h227v-63h-154v-824h154v-63h-227v950z" />
    <glyph glyph-name="backslash" unicode="\" horiz-adv-x="434" 
d="M337 -95l-317 835h77l318 -835h-78z" />
    <glyph glyph-name="bracketright" unicode="]" horiz-adv-x="321" 
d="M244 -210h-227v63h154v824h-154v63h227v-950z" />
    <glyph glyph-name="asciicircum" unicode="^" horiz-adv-x="409" 
d="M302 449l-96 217l-97 -217h-72l128 281h79l127 -281h-69z" />
    <glyph glyph-name="underscore" unicode="_" horiz-adv-x="547" 
d="M0 -112v58h547v-58h-547z" />
    <glyph glyph-name="grave" unicode="`" horiz-adv-x="215" 
d="M5 734h98l107 -165h-72z" />
    <glyph glyph-name="a" unicode="a" horiz-adv-x="519" 
d="M41 131q0 68 40.5 104.5t144.5 44.5l152 14v15q0 75 -30.5 108t-94.5 33q-47 0 -78 -19t-41 -69h-77q11 72 60.5 107.5t136.5 35.5q100 0 149.5 -46.5t49.5 -149.5v-309h-72v81q-25 -43 -71.5 -67.5t-109.5 -24.5q-78 0 -118.5 37t-40.5 105zM117 126q0 -40 24.5 -61
t73.5 -21q31 0 60.5 8.5t52.5 28t36.5 50.5t13.5 76v36l-144 -13q-61 -6 -89 -25.5t-28 -63.5v-15z" />
    <glyph glyph-name="b" unicode="b" horiz-adv-x="559" 
d="M72 730h75v-306q25 43 66 62t92 19q102 0 156.5 -59t54.5 -199t-54.5 -199t-156.5 -59q-54 0 -95.5 21t-66.5 67v-77h-71v730zM440 212v70q0 90 -40.5 128.5t-106.5 38.5q-68 0 -107 -38.5t-39 -128.5v-70q0 -83 40 -125t106 -42q69 0 108 42t39 125z" />
    <glyph glyph-name="c" unicode="c" horiz-adv-x="488" 
d="M43 245q0 134 52.5 197t158.5 63q86 0 137.5 -35t60.5 -110h-76q-7 50 -40.5 69.5t-82.5 19.5q-67 0 -100.5 -39.5t-33.5 -126.5v-74q0 -91 40 -127.5t94 -36.5q56 0 86.5 23t37.5 67h76q-10 -74 -62.5 -110t-137.5 -36q-47 0 -85.5 12.5t-66 42t-43 78.5t-15.5 123z" />
    <glyph glyph-name="d" unicode="d" horiz-adv-x="559" 
d="M43 243q0 141 55 201.5t156 60.5q52 0 92.5 -18t65.5 -60v303h75v-730h-71v76q-25 -45 -66.5 -66t-95.5 -21q-99 0 -155 58t-56 196zM412 212v70q0 87 -40 127t-106 40t-106.5 -40.5t-40.5 -130.5v-70q0 -81 41 -122t106 -41q66 0 106 41.5t40 125.5z" />
    <glyph glyph-name="e" unicode="e" horiz-adv-x="507" 
d="M44 247q0 138 54.5 198t155.5 60q103 0 157.5 -57.5t54.5 -179.5v-23h-348v-31q0 -86 35.5 -127.5t100.5 -41.5q60 0 91 24t39 67h75q-13 -69 -63.5 -108t-141.5 -39q-101 0 -155.5 60t-54.5 198zM254 450q-66 0 -100 -36t-36 -119h274q-3 84 -37.5 119.5t-100.5 35.5z
" />
    <glyph glyph-name="f" unicode="f" horiz-adv-x="295" 
d="M22 494h64v118q0 63 28.5 90.5t100.5 27.5h69v-60h-65q-34 0 -46 -15t-12 -43v-118h123v-59h-123v-435h-75v435h-64v59z" />
    <glyph glyph-name="g" unicode="g" horiz-adv-x="559" 
d="M65 -68h76q11 -49 47 -68t90 -19q78 0 107 38.5t29 128.5v65q-25 -40 -65 -59t-92 -19q-99 0 -155.5 58.5t-56.5 189.5q0 136 55 197t157 61q53 0 94.5 -19.5t66.5 -65.5v74h71v-482q0 -107 -49 -165t-163 -58q-94 0 -147.5 36t-64.5 107zM414 218v64q0 87 -40 127
t-106 40t-106.5 -40.5t-40.5 -130.5v-64q0 -79 41 -119t106 -40q68 0 107 38t39 125z" />
    <glyph glyph-name="h" unicode="h" horiz-adv-x="544" 
d="M403 0v313q0 81 -31.5 108t-88.5 27q-61 0 -98.5 -30t-37.5 -105v-313h-75v730h75v-305q22 42 62.5 61t91.5 19q86 0 131.5 -45.5t45.5 -146.5v-313h-75z" />
    <glyph glyph-name="i" unicode="i" horiz-adv-x="219" 
d="M72 494h75v-494h-75v494zM58 657q0 24 13 36.5t38 12.5t38.5 -12.5t13.5 -36.5q0 -25 -13.5 -37.5t-38.5 -12.5t-38 12.5t-13 37.5z" />
    <glyph glyph-name="j" unicode="j" horiz-adv-x="219" 
d="M-16 -140h28q35 0 47.5 15.5t12.5 44.5v574h75v-578q0 -61 -27 -88.5t-94 -27.5h-42v60zM58 657q0 24 13 36.5t38 12.5t38.5 -12.5t13.5 -36.5q0 -25 -13.5 -37.5t-38.5 -12.5t-38 12.5t-13 37.5z" />
    <glyph glyph-name="k" unicode="k" horiz-adv-x="469" 
d="M366 494h82l-185 -240l209 -254h-92l-181 219h-52v-219h-75v730h75v-452h53z" />
    <glyph glyph-name="l" unicode="l" horiz-adv-x="219" 
d="M72 730h75v-730h-75v730z" />
    <glyph glyph-name="m" unicode="m" horiz-adv-x="818" 
d="M374 0v313q0 81 -27.5 108t-77.5 27q-54 0 -88 -30t-34 -105v-313h-75v494h71v-77q20 46 60 67t88 21q55 0 92 -22t53 -71q19 49 61 71t96 22q77 0 118 -45.5t41 -146.5v-313h-75v313q0 81 -28 108t-78 27q-54 0 -88 -30t-34 -105v-313h-75z" />
    <glyph glyph-name="n" unicode="n" horiz-adv-x="544" 
d="M403 0v313q0 81 -31.5 108t-88.5 27q-61 0 -98.5 -30t-37.5 -105v-313h-75v494h71v-77q21 46 62.5 67t95.5 21q86 0 131.5 -45.5t45.5 -146.5v-313h-75z" />
    <glyph glyph-name="o" unicode="o" horiz-adv-x="531" 
d="M43 247q0 140 58.5 199t164.5 59q107 0 164.5 -59t57.5 -199q0 -143 -57.5 -200.5t-164.5 -57.5q-106 0 -164.5 57.5t-58.5 200.5zM412 214v67q0 87 -38.5 127.5t-107.5 40.5t-108 -40.5t-39 -127.5v-68q0 -86 39 -127t108 -41t107.5 41t38.5 128z" />
    <glyph glyph-name="p" unicode="p" horiz-adv-x="559" 
d="M72 494h71v-78q25 46 67.5 67.5t96.5 21.5q101 0 155 -59t54 -199t-54 -199t-155 -59q-52 0 -93.5 19.5t-66.5 62.5v-271h-75v694zM440 212v70q0 90 -40 128.5t-107 38.5q-68 0 -107 -38.5t-39 -128.5v-70q0 -84 41 -125.5t105 -41.5q67 0 107 42t40 125z" />
    <glyph glyph-name="q" unicode="q" horiz-adv-x="557" 
d="M43 243q0 141 55 201.5t157 60.5q53 0 94.5 -19.5t66.5 -65.5v74h71v-694h-75v271q-25 -43 -65.5 -62.5t-91.5 -19.5q-99 0 -155.5 58t-56.5 196zM412 212v70q0 88 -40 127.5t-106 39.5t-106.5 -40.5t-40.5 -130.5v-70q0 -81 41 -122t106 -41q66 0 106 41.5t40 125.5z
" />
    <glyph glyph-name="r" unicode="r" horiz-adv-x="341" 
d="M72 494h71v-94q19 48 57 71t90 23h37v-70h-41q-68 0 -103.5 -32.5t-35.5 -107.5v-284h-75v494z" />
    <glyph glyph-name="s" unicode="s" horiz-adv-x="472" 
d="M36 149h75q3 -58 37 -81.5t92 -23.5q60 0 92 21t32 69q0 54 -49.5 67.5t-108.5 23.5t-108.5 35.5t-49.5 103.5q0 68 49 104.5t136 36.5q81 0 133 -35t55 -111h-75q-3 54 -34 72.5t-79 18.5q-53 0 -82 -20t-29 -65q0 -53 49 -66t108 -22.5t108 -35.5t49 -105
q0 -78 -54.5 -112.5t-140.5 -34.5q-96 0 -149 39.5t-56 120.5z" />
    <glyph glyph-name="t" unicode="t" horiz-adv-x="303" 
d="M83 117v318h-64v59h64v159h75v-159h123v-59h-123v-313q0 -32 14.5 -47t46.5 -15h62v-60h-74q-68 0 -96 27t-28 90z" />
    <glyph glyph-name="u" unicode="u" horiz-adv-x="544" 
d="M66 181v313h75v-313q0 -81 31.5 -108t88.5 -27q60 0 98 30t38 105v313h75v-494h-74v69q-21 -42 -61 -61t-94 -19q-86 0 -131.5 45t-45.5 147z" />
    <glyph glyph-name="v" unicode="v" horiz-adv-x="470" 
d="M189 0l-177 494h77l150 -421l149 421h70l-177 -494h-92z" />
    <glyph glyph-name="w" unicode="w" horiz-adv-x="721" 
d="M152 0l-137 494h72l119 -434l113 434h90l112 -431l120 431h66l-140 -494h-96l-111 429l-112 -429h-96z" />
    <glyph glyph-name="x" unicode="x" horiz-adv-x="461" 
d="M369 0l-142 203l-145 -203h-74l179 252l-169 242h83l132 -188l134 188h75l-169 -236l180 -258h-84z" />
    <glyph glyph-name="y" unicode="y" horiz-adv-x="471" 
d="M41 -141h37q48 0 70 17t40 68l14 38l-192 512h79l151 -410l150 410h70l-209 -564q-28 -75 -62 -102.5t-103 -27.5h-45v59z" />
    <glyph glyph-name="z" unicode="z" horiz-adv-x="449" 
d="M34 60l292 375h-287v59h367v-59l-292 -375h309v-60h-389v60z" />
    <glyph glyph-name="braceleft" unicode="{" horiz-adv-x="338" 
d="M100 -93v202q0 55 -13.5 86.5t-64.5 32.5v74q51 1 64.5 34.5t13.5 84.5v202q0 62 25 89.5t91 27.5h105v-63h-88q-34 0 -47.5 -13.5t-13.5 -50.5v-201q0 -26 -2.5 -50.5t-12.5 -44.5t-29 -33.5t-52 -19.5q33 -4 52 -16.5t29 -31.5t12.5 -44t2.5 -53v-199q0 -39 13.5 -53
t47.5 -14h88v-63h-105q-66 0 -91 27.5t-25 89.5z" />
    <glyph glyph-name="bar" unicode="|" horiz-adv-x="227" 
d="M77 730h73v-930h-73v930z" />
    <glyph glyph-name="braceright" unicode="}" horiz-adv-x="338" 
d="M238 623v-202q0 -55 13.5 -86.5t64.5 -32.5v-74q-51 -1 -64.5 -34.5t-13.5 -84.5v-202q0 -62 -25 -89.5t-91 -27.5h-105v63h88q34 0 47.5 13.5t13.5 50.5v201q0 26 2.5 50.5t12.5 44.5t29 33.5t52 19.5q-33 4 -52 16.5t-29 31.5t-12.5 44t-2.5 53v199q0 39 -13.5 53
t-47.5 14h-88v63h105q66 0 91 -27.5t25 -89.5z" />
    <glyph glyph-name="asciitilde" unicode="~" horiz-adv-x="559" 
d="M173 430q37 0 66 -13.5t53 -30t45.5 -30t44.5 -13.5q32 0 47 20t15 60h65q0 -67 -31 -104.5t-93 -37.5q-32 0 -59 13.5t-52 29t-48.5 29t-47.5 13.5q-33 0 -48 -19t-15 -59h-65q0 68 31 105t92 37z" />
    <glyph glyph-name="nonbreakingspace" unicode="&#xa0;" horiz-adv-x="220" 
 />
    <glyph glyph-name="exclamdown" unicode="&#xa1;" horiz-adv-x="219" 
d="M58 455q0 25 13 37.5t38 12.5t38.5 -12.5t13.5 -37.5t-13.5 -37.5t-38.5 -12.5t-38 12.5t-13 37.5zM65 -196l12 517h65l12 -517h-89z" />
    <glyph glyph-name="cent" unicode="&#xa2;" horiz-adv-x="500" 
d="M51 245q0 123 44 186t134 72v111h71v-111q69 -7 110.5 -42t49.5 -101h-76q-7 50 -40.5 69.5t-82.5 19.5q-67 0 -100.5 -39.5t-33.5 -126.5v-74q0 -91 40 -127.5t94 -36.5q56 0 86.5 23t37.5 67h76q-9 -65 -51 -101t-110 -43v-111h-71v110q-80 7 -129 64t-49 191z" />
    <glyph glyph-name="sterling" unicode="&#xa3;" horiz-adv-x="558" 
d="M38 65q27 0 53 8.5t46 24t32.5 39t12.5 53.5v29q0 16 -3.5 30.5t-9.5 27.5h-113v60h80q-22 35 -41.5 75.5t-20.5 95.5q-1 96 58 144.5t163 48.5q99 0 156.5 -43.5t63.5 -140.5h-79q-5 68 -42 94t-99 26q-65 0 -104 -29t-39 -93v-27q0 -43 21.5 -77.5t43.5 -73.5h195v-60
h-169q5 -16 8 -33.5t3 -37.5q0 -46 -20 -82.5t-57 -56.5h343v-67h-482v65z" />
    <glyph glyph-name="currency" unicode="&#xa4;" horiz-adv-x="548" 
d="M55 173l68 69q-15 21 -23 47t-8 57t8 58t23 48l-68 69l45 45l71 -71q20 12 46 18.5t56 6.5t56 -6.5t46 -17.5l71 71l46 -46l-68 -69q16 -22 24 -48.5t8 -57.5q0 -30 -8 -56t-23 -47l68 -69l-46 -46l-72 72q-20 -12 -46 -18t-56 -6t-55.5 6t-45.5 18l-72 -72zM386 346
q0 54 -30.5 84t-82.5 30q-51 0 -81.5 -30t-30.5 -84q0 -53 30.5 -82t81.5 -29q52 0 82.5 29t30.5 82z" />
    <glyph glyph-name="yen" unicode="&#xa5;" horiz-adv-x="618" 
d="M93 126v60h175v85h-175v59h161l-230 360h86l202 -317l204 317h79l-233 -360h162v-59h-176v-85h176v-60h-176v-126h-80v126h-175z" />
    <glyph glyph-name="brokenbar" unicode="&#xa6;" horiz-adv-x="227" 
d="M77 730h73v-370h-73v370zM77 170h73v-370h-73v370z" />
    <glyph glyph-name="section" unicode="&#xa7;" horiz-adv-x="541" 
d="M55 8h81q2 -47 28.5 -74t104.5 -27q61 0 95.5 21.5t34.5 66.5v17q0 48 -56.5 74t-123.5 52.5t-123.5 65t-56.5 110.5q0 57 29 91.5t74 56.5q-31 21 -50 50t-19 70q0 77 54.5 118t143.5 41q104 0 154 -41.5t53 -121.5h-81q-2 47 -27 73.5t-99 26.5q-57 0 -89.5 -22
t-32.5 -66v-17q0 -48 55.5 -74t121 -52.5t121 -65t55.5 -111.5q0 -55 -28.5 -89t-71.5 -56q32 -22 53 -51t21 -72q0 -76 -57 -117t-150 -41q-107 0 -159.5 41.5t-54.5 122.5zM113 314q0 -33 21.5 -55.5t55.5 -39.5t75 -32t80 -32q31 13 56.5 37t25.5 62v16q0 33 -21.5 56
t-55 40t-74.5 32t-79 33q-31 -13 -57.5 -37.5t-26.5 -63.5v-16z" />
    <glyph glyph-name="dieresis" unicode="&#xa8;" horiz-adv-x="330" 
d="M18 652q0 24 13 36.5t37 12.5q25 0 38 -12.5t13 -36.5q0 -25 -13 -37.5t-38 -12.5q-24 0 -37 12.5t-13 37.5zM212 652q0 24 12.5 36.5t37.5 12.5q23 0 36.5 -12.5t13.5 -36.5q0 -25 -13.5 -37.5t-36.5 -12.5q-25 0 -37.5 12.5t-12.5 37.5z" />
    <glyph glyph-name="copyright" unicode="&#xa9;" horiz-adv-x="833" 
d="M52 346q0 85 27 152t75.5 111.5t116 68t146.5 23.5t146.5 -23.5t115.5 -68t75 -111.5t27 -152q0 -86 -27 -153t-75 -112t-115.5 -68.5t-146.5 -23.5t-146.5 23.5t-116 68.5t-75.5 112t-27 153zM724 313v63q0 66 -23.5 118t-64.5 87t-97.5 53.5t-121.5 18.5t-121.5 -18.5
t-97.5 -54t-65 -87.5t-24 -118v-62q0 -65 23.5 -116t64.5 -86.5t97.5 -54t122.5 -18.5t122.5 18.5t97.5 54t64 86.5t23 116zM232 343q0 105 46 157t139 52q73 0 118 -31.5t52 -99.5h-68q-7 43 -35 58t-67 15q-58 0 -86.5 -31.5t-28.5 -91.5v-56q0 -62 33.5 -87.5t80.5 -25.5
q46 0 71 18t32 54h69q-10 -66 -56.5 -97.5t-115.5 -31.5q-81 0 -132.5 44t-51.5 154z" />
    <glyph glyph-name="ordfeminine" unicode="&#xaa;" horiz-adv-x="471" 
d="M42 413q0 60 35.5 93.5t129.5 41.5l135 13v20q0 57 -26 85t-81 28q-43 0 -71.5 -18t-37.5 -65h-69q9 66 54 99.5t124 33.5q88 0 131.5 -41t43.5 -122v-279h-65v83q-22 -43 -63 -67.5t-98 -24.5q-69 0 -105.5 31.5t-36.5 88.5zM110 410q0 -30 21.5 -48t64.5 -18
q28 0 54.5 8t46.5 26t32.5 47t12.5 72v19l-128 -13q-55 -5 -79.5 -22.5t-24.5 -56.5v-14z" />
    <glyph glyph-name="guillemotleft" unicode="&#xab;" horiz-adv-x="485" 
d="M41 228v59l188 184v-80l-133 -131l134 -132v-84zM240 228v59l188 184v-80l-133 -131l134 -132v-84z" />
    <glyph glyph-name="logicalnot" unicode="&#xac;" horiz-adv-x="596" 
d="M44 434h484v-267h-70v201h-414v66z" />
    <glyph glyph-name="uni00AD" unicode="&#xad;" horiz-adv-x="409" 
d="M50 293h310v-73h-310v73z" />
    <glyph glyph-name="registered" unicode="&#xae;" horiz-adv-x="558" 
d="M51 477q0 105 62.5 164.5t165.5 59.5t165 -59.5t62 -164.5q0 -107 -62 -165t-165 -58q-102 0 -165 58t-63 165zM461 468v32q0 77 -50.5 119t-131.5 42q-80 0 -130.5 -42t-50.5 -119v-32q0 -86 50 -130t131 -44q82 0 132 44t50 130zM201 596h97q42 0 61 -19.5t19 -52.5
q0 -26 -11 -43t-33 -24l49 -89h-49l-45 84h-45v-84h-43v228zM332 527q0 16 -8.5 23.5t-25.5 7.5h-54v-69h54q17 0 25.5 8t8.5 24v6z" />
    <glyph glyph-name="macron" unicode="&#xaf;" horiz-adv-x="313" 
d="M17 624v54h276v-54h-276z" />
    <glyph glyph-name="degree" unicode="&#xb0;" horiz-adv-x="417" 
d="M40 541q0 77 44 118.5t125 41.5t124.5 -41.5t43.5 -118.5t-43.5 -118.5t-124.5 -41.5t-125 41t-44 119zM308 541q0 53 -26.5 78t-72.5 25q-47 0 -73.5 -25t-26.5 -78t26.5 -78t73.5 -25q46 0 72.5 25t26.5 78z" />
    <glyph glyph-name="plusminus" unicode="&#xb1;" horiz-adv-x="610" 
d="M270 231v196h-207v67h207v196h70v-196h207v-67h-207v-196h-70zM63 169h484v-67h-484v67z" />
    <glyph glyph-name="twosuperior" unicode="&#xb2;" horiz-adv-x="409" 
d="M40 396q0 86 40 125.5t87.5 60t87.5 38t40 60.5v15q0 31 -23.5 45t-63.5 14q-43 0 -66.5 -17.5t-28.5 -54.5h-69q6 67 50 98t113 31q68 0 112 -27.5t44 -91.5q0 -63 -37.5 -90t-84 -45.5t-87.5 -42.5t-48 -81h261v-58h-327v21z" />
    <glyph glyph-name="threesuperior" unicode="&#xb3;" horiz-adv-x="418" 
d="M36 493h69q7 -34 30 -53t78 -19q43 0 68.5 14t25.5 45v24q0 32 -28 47.5t-68 15.5h-46v56h46q34 0 58.5 13t24.5 47v14q0 31 -22 44t-59 13q-46 0 -68.5 -15.5t-27.5 -43.5h-70q5 55 50 85.5t117 30.5q63 0 106.5 -28.5t43.5 -83.5q0 -40 -23 -66t-64 -35
q46 -8 72.5 -34.5t26.5 -70.5q0 -66 -44 -97.5t-119 -31.5q-84 0 -127 31t-50 98z" />
    <glyph glyph-name="acute" unicode="&#xb4;" horiz-adv-x="211" 
d="M5 569l107 165h94l-133 -165h-68z" />
    <glyph glyph-name="paragraph" unicode="&#xb6;" horiz-adv-x="619" 
d="M27 483q0 116 57.5 161.5t161.5 45.5h98v-840h-71v428h-21q-106 0 -165.5 44.5t-59.5 160.5zM465 690h70v-840h-70v840z" />
    <glyph glyph-name="periodcentered" unicode="&#xb7;" horiz-adv-x="221" 
d="M59 265q0 25 13 37.5t38 12.5t38.5 -12.5t13.5 -37.5t-13.5 -37.5t-38.5 -12.5t-38 12.5t-13 37.5z" />
    <glyph glyph-name="cedilla" unicode="&#xb8;" horiz-adv-x="500" 
d="M212 -205v47q66 0 82.5 7t16.5 29t-18.5 28t-68.5 7v87h54v-47q41 -4 71.5 -18t30.5 -60q0 -40 -27.5 -60t-81.5 -20h-59z" />
    <glyph glyph-name="onesuperior" unicode="&#xb9;" horiz-adv-x="249" 
d="M27 729l89 71h63v-425h-63v362l-89 -71v63z" />
    <glyph glyph-name="ordmasculine" unicode="&#xba;" horiz-adv-x="488" 
d="M42 519q0 120 53 172.5t149 52.5q98 0 150 -52.5t52 -172.5q0 -122 -52 -174t-150 -52q-96 0 -149 52t-53 174zM376 487v65q0 74 -35 107t-97 33q-63 0 -97.5 -36.5t-34.5 -103.5v-65q0 -75 35 -108.5t97 -33.5q63 0 97.5 36.5t34.5 105.5z" />
    <glyph glyph-name="guillemotright" unicode="&#xbb;" horiz-adv-x="485" 
d="M445 284v-59l-188 -184v80l133 131l-134 132v84zM246 284v-59l-188 -184v80l133 131l-134 132v84z" />
    <glyph glyph-name="onequarter" unicode="&#xbc;" horiz-adv-x="843" 
d="M28 619l89 71h63v-425h-63v362l-89 -71v63zM97 0l512 690h73l-512 -690h-73zM447 149l205 276h98v-268h65v-57h-65v-100h-67v100h-236v49zM519 157h164v221z" />
    <glyph glyph-name="onehalf" unicode="&#xbd;" horiz-adv-x="914" 
d="M29 619l89 71h63v-425h-63v362l-89 -71v63zM99 0l512 690h73l-512 -690h-73zM544 21q0 86 40 125.5t87.5 60t87.5 38t40 60.5v15q0 31 -23.5 45t-63.5 14q-43 0 -66.5 -17.5t-28.5 -54.5h-69q6 67 50 98t113 31q68 0 112 -27.5t44 -91.5q0 -63 -37.5 -90t-84 -45.5
t-87.5 -42.5t-48 -81h261v-58h-327v21z" />
    <glyph glyph-name="threequarters" unicode="&#xbe;" horiz-adv-x="952" 
d="M32 383h69q7 -34 30 -53t78 -19q43 0 68.5 14t25.5 45v24q0 32 -28 47.5t-68 15.5h-46v56h46q34 0 58.5 13t24.5 47v14q0 31 -22 44t-59 13q-46 0 -68.5 -15.5t-27.5 -43.5h-70q5 55 50 85.5t117 30.5q63 0 106.5 -28.5t43.5 -83.5q0 -40 -23 -66t-64 -35
q46 -8 72.5 -34.5t26.5 -70.5q0 -66 -44 -97.5t-119 -31.5q-84 0 -127 31t-50 98zM218 0l512 690h73l-512 -690h-73zM557 149l205 276h98v-268h65v-57h-65v-100h-67v100h-236v49zM629 157h164v221z" />
    <glyph glyph-name="questiondown" unicode="&#xbf;" horiz-adv-x="505" 
d="M319 455q0 -25 -13 -37.5t-38 -12.5t-38.5 12.5t-13.5 37.5t13.5 37.5t38.5 12.5t38 -12.5t13 -37.5zM110 -18v-27q0 -49 36 -73t99 -24q72 0 112.5 29t42.5 106h81q-3 -108 -68 -154t-169 -46q-46 0 -85.5 10t-68 31t-45 53.5t-16.5 77.5q0 71 32.5 103.5t70.5 56.5
t70.5 57t32.5 105v34h68v-34q0 -81 -30 -122t-66.5 -66.5t-66.5 -48.5t-30 -68z" />
    <glyph glyph-name="Agrave" unicode="&#xc0;" horiz-adv-x="604" 
d="M244 690h117l233 -690h-82l-67 199h-295l-67 -199h-72zM171 262h253l-126 376zM262 758l-133 142h103l108 -142h-78z" />
    <glyph glyph-name="Aacute" unicode="&#xc1;" horiz-adv-x="604" 
d="M244 690h117l233 -690h-82l-67 199h-295l-67 -199h-72zM171 262h253l-126 376zM264 758l107 142h99l-133 -142h-73z" />
    <glyph glyph-name="Acircumflex" unicode="&#xc2;" horiz-adv-x="604" 
d="M244 690h117l233 -690h-82l-67 199h-295l-67 -199h-72zM171 262h253l-126 376zM129 758l137 142h69l139 -142h-84l-90 89l-90 -89h-81z" />
    <glyph glyph-name="Atilde" unicode="&#xc3;" horiz-adv-x="604" 
d="M244 690h117l233 -690h-82l-67 199h-295l-67 -199h-72zM171 262h253l-126 376zM236 892q27 0 45 -11t31.5 -24.5t25 -24.5t24.5 -11q19 0 26.5 20.5t7.5 50.5h55q0 -58 -19.5 -92.5t-64.5 -34.5q-27 0 -45 11.5t-32 24.5t-25.5 24.5t-24.5 11.5q-19 0 -26.5 -20t-7.5 -51
h-54q0 58 19.5 92t64.5 34z" />
    <glyph glyph-name="Adieresis" unicode="&#xc4;" horiz-adv-x="604" 
d="M244 690h117l233 -690h-82l-67 199h-295l-67 -199h-72zM171 262h253l-126 376zM150 826q0 24 13 36.5t37 12.5q25 0 38 -12.5t13 -36.5q0 -25 -13 -37t-38 -12q-24 0 -37 12t-13 37zM352 826q0 24 13 36.5t37 12.5t37 -12.5t13 -36.5q0 -25 -13 -37t-37 -12t-37 12
t-13 37z" />
    <glyph glyph-name="Aring" unicode="&#xc5;" horiz-adv-x="604" 
d="M244 690h117l233 -690h-82l-67 199h-295l-67 -199h-72zM171 262h253l-126 376zM178 833q0 42 30 63.5t93 21.5q64 0 94 -21.5t30 -63.5q0 -43 -30.5 -64.5t-93.5 -21.5t-93 21.5t-30 64.5zM302 793q40 0 53.5 10.5t13.5 29.5t-13.5 29t-53.5 10q-41 0 -54.5 -10
t-13.5 -29t13.5 -29.5t54.5 -10.5z" />
    <glyph glyph-name="AE" unicode="&#xc6;" horiz-adv-x="912" 
d="M415 690h450v-66h-331v-240h288v-64h-288v-254h335v-66h-414v219h-253l-136 -219h-82zM243 284h212v342z" />
    <glyph glyph-name="Ccedilla" unicode="&#xc7;" horiz-adv-x="613" 
d="M49 346q0 189 72 272t203 83q119 0 180.5 -49t72.5 -156h-80q-10 81 -51.5 110.5t-121.5 29.5q-90 0 -142 -59t-52 -187v-84q0 -125 52 -188.5t143 -63.5q77 0 119 28t54 106h80q-13 -105 -75 -152t-179 -47q-131 0 -203 83.5t-72 273.5zM274 -204v47q66 0 82.5 7
t16.5 29t-18.5 28t-68.5 7v87h54v-47q41 -4 71.5 -18t30.5 -60q0 -40 -27.5 -60t-81.5 -20h-59z" />
    <glyph glyph-name="Egrave" unicode="&#xc8;" horiz-adv-x="536" 
d="M78 690h411v-66h-331v-240h288v-64h-288v-254h335v-66h-415v690zM259 758l-133 142h103l108 -142h-78z" />
    <glyph glyph-name="Eacute" unicode="&#xc9;" horiz-adv-x="536" 
d="M78 690h411v-66h-331v-240h288v-64h-288v-254h335v-66h-415v690zM240 758l107 142h99l-133 -142h-73z" />
    <glyph glyph-name="Ecircumflex" unicode="&#xca;" horiz-adv-x="536" 
d="M78 690h411v-66h-331v-240h288v-64h-288v-254h335v-66h-415v690zM114 758l137 142h69l139 -142h-84l-90 89l-90 -89h-81z" />
    <glyph glyph-name="Edieresis" unicode="&#xcb;" horiz-adv-x="536" 
d="M78 690h411v-66h-331v-240h288v-64h-288v-254h335v-66h-415v690zM134 826q0 24 13 36.5t37 12.5q25 0 38 -12.5t13 -36.5q0 -25 -13 -37t-38 -12q-24 0 -37 12t-13 37zM336 826q0 24 13 36.5t37 12.5t37 -12.5t13 -36.5q0 -25 -13 -37t-37 -12t-37 12t-13 37z" />
    <glyph glyph-name="Igrave" unicode="&#xcc;" horiz-adv-x="237" 
d="M78 690h80v-690h-80v690zM78 758l-133 142h103l108 -142h-78z" />
    <glyph glyph-name="Iacute" unicode="&#xcd;" horiz-adv-x="237" 
d="M78 690h80v-690h-80v690zM81 758l107 142h99l-133 -142h-73z" />
    <glyph glyph-name="Icircumflex" unicode="&#xce;" horiz-adv-x="237" 
d="M78 690h80v-690h-80v690zM-54 758l137 142h69l139 -142h-84l-90 89l-90 -89h-81z" />
    <glyph glyph-name="Idieresis" unicode="&#xcf;" horiz-adv-x="237" 
d="M78 690h80v-690h-80v690zM-32 826q0 24 13 36.5t37 12.5q25 0 38 -12.5t13 -36.5q0 -25 -13 -37t-38 -12q-24 0 -37 12t-13 37zM170 826q0 24 13 36.5t37 12.5t37 -12.5t13 -36.5q0 -25 -13 -37t-37 -12t-37 12t-13 37z" />
    <glyph glyph-name="Eth" unicode="&#xd0;" horiz-adv-x="709" 
d="M26 321v63h99v306h231q151 0 227.5 -82t76.5 -263q0 -175 -76.5 -260t-227.5 -85h-231v321h-99zM356 67q107 0 165 60.5t58 181.5v79q0 121 -58 178.5t-165 57.5h-151v-240h181v-63h-181v-254h151z" />
    <glyph glyph-name="Ntilde" unicode="&#xd1;" horiz-adv-x="657" 
d="M473 0l-317 586v-586h-78v690h106l317 -586v586h78v-690h-106zM263 892q27 0 45 -11t31.5 -24.5t25 -24.5t24.5 -11q19 0 26.5 20.5t7.5 50.5h55q0 -58 -19.5 -92.5t-64.5 -34.5q-27 0 -45 11.5t-32 24.5t-25.5 24.5t-24.5 11.5q-19 0 -26.5 -20t-7.5 -51h-54
q0 58 19.5 92t64.5 34z" />
    <glyph glyph-name="Ograve" unicode="&#xd2;" horiz-adv-x="691" 
d="M49 347q0 190 74 272t222 82t222.5 -82t74.5 -272t-74.5 -274t-222.5 -84t-222 84t-74 274zM561 308v81q0 128 -54 187.5t-162 59.5t-161.5 -59.5t-53.5 -187.5v-81q0 -126 53.5 -190t161.5 -64t162 64t54 190zM312 758l-133 142h103l108 -142h-78z" />
    <glyph glyph-name="Oacute" unicode="&#xd3;" horiz-adv-x="691" 
d="M49 347q0 190 74 272t222 82t222.5 -82t74.5 -272t-74.5 -274t-222.5 -84t-222 84t-74 274zM561 308v81q0 128 -54 187.5t-162 59.5t-161.5 -59.5t-53.5 -187.5v-81q0 -126 53.5 -190t161.5 -64t162 64t54 190zM308 758l107 142h99l-133 -142h-73z" />
    <glyph glyph-name="Ocircumflex" unicode="&#xd4;" horiz-adv-x="691" 
d="M49 347q0 190 74 272t222 82t222.5 -82t74.5 -272t-74.5 -274t-222.5 -84t-222 84t-74 274zM561 308v81q0 128 -54 187.5t-162 59.5t-161.5 -59.5t-53.5 -187.5v-81q0 -126 53.5 -190t161.5 -64t162 64t54 190zM172 758l137 142h69l139 -142h-84l-90 89l-90 -89h-81z" />
    <glyph glyph-name="Otilde" unicode="&#xd5;" horiz-adv-x="691" 
d="M49 347q0 190 74 272t222 82t222.5 -82t74.5 -272t-74.5 -274t-222.5 -84t-222 84t-74 274zM561 308v81q0 128 -54 187.5t-162 59.5t-161.5 -59.5t-53.5 -187.5v-81q0 -126 53.5 -190t161.5 -64t162 64t54 190zM279 893q27 0 45 -11t31.5 -24.5t25 -24.5t24.5 -11
q19 0 26.5 20.5t7.5 50.5h55q0 -58 -19.5 -92.5t-64.5 -34.5q-27 0 -45 11.5t-32 24.5t-25.5 24.5t-24.5 11.5q-19 0 -26.5 -20t-7.5 -51h-54q0 58 19.5 92t64.5 34z" />
    <glyph glyph-name="Odieresis" unicode="&#xd6;" horiz-adv-x="691" 
d="M49 347q0 190 74 272t222 82t222.5 -82t74.5 -272t-74.5 -274t-222.5 -84t-222 84t-74 274zM561 308v81q0 128 -54 187.5t-162 59.5t-161.5 -59.5t-53.5 -187.5v-81q0 -126 53.5 -190t161.5 -64t162 64t54 190zM194 826q0 24 13 36.5t37 12.5q25 0 38 -12.5t13 -36.5
q0 -25 -13 -37t-38 -12q-24 0 -37 12t-13 37zM396 826q0 24 13 36.5t37 12.5t37 -12.5t13 -36.5q0 -25 -13 -37t-37 -12t-37 12t-13 37z" />
    <glyph glyph-name="multiply" unicode="&#xd7;" horiz-adv-x="573" 
d="M49 161l190 190l-191 191l48 48l190 -191l190 190l48 -47l-190 -190l190 -191l-48 -48l-190 190l-190 -190z" />
    <glyph glyph-name="Oslash" unicode="&#xd8;" horiz-adv-x="691" 
d="M50 347q0 190 74 272t222 82q51 0 93 -9t76 -28l48 71h77l-75 -111q39 -43 58.5 -111t19.5 -166q0 -190 -74.5 -274t-222.5 -84q-54 0 -99 11t-79 33l-49 -73h-77l78 117q-35 43 -52.5 110t-17.5 160zM131 308q0 -51 8.5 -92t26.5 -72l309 461q-25 16 -57 23.5t-72 7.5
q-108 0 -161.5 -59.5t-53.5 -187.5v-81zM562 308v81q0 55 -10 97.5t-30 72.5l-313 -465q25 -20 59.5 -30t77.5 -10q108 0 162 64t54 190z" />
    <glyph glyph-name="Ugrave" unicode="&#xd9;" horiz-adv-x="631" 
d="M73 236v454h80v-454q0 -99 42 -141t124 -42q83 0 125 42t42 141v454h72v-454q0 -118 -56 -182.5t-183 -64.5q-129 0 -187.5 64.5t-58.5 182.5zM297 758l-133 142h103l108 -142h-78z" />
    <glyph glyph-name="Uacute" unicode="&#xda;" horiz-adv-x="631" 
d="M73 236v454h80v-454q0 -99 42 -141t124 -42q83 0 125 42t42 141v454h72v-454q0 -118 -56 -182.5t-183 -64.5q-129 0 -187.5 64.5t-58.5 182.5zM282 758l107 142h99l-133 -142h-73z" />
    <glyph glyph-name="Ucircumflex" unicode="&#xdb;" horiz-adv-x="631" 
d="M73 236v454h80v-454q0 -99 42 -141t124 -42q83 0 125 42t42 141v454h72v-454q0 -118 -56 -182.5t-183 -64.5q-129 0 -187.5 64.5t-58.5 182.5zM144 758l137 142h69l139 -142h-84l-90 89l-90 -89h-81z" />
    <glyph glyph-name="Udieresis" unicode="&#xdc;" horiz-adv-x="631" 
d="M73 236v454h80v-454q0 -99 42 -141t124 -42q83 0 125 42t42 141v454h72v-454q0 -118 -56 -182.5t-183 -64.5q-129 0 -187.5 64.5t-58.5 182.5zM171 826q0 24 13 36.5t37 12.5q25 0 38 -12.5t13 -36.5q0 -25 -13 -37t-38 -12q-24 0 -37 12t-13 37zM373 826q0 24 13 36.5
t37 12.5t37 -12.5t13 -36.5q0 -25 -13 -37t-37 -12t-37 12t-13 37z" />
    <glyph glyph-name="Yacute" unicode="&#xdd;" horiz-adv-x="579" 
d="M251 308l-245 382h86l203 -318l200 318h77l-241 -382v-308h-80v308zM256 758l107 142h99l-133 -142h-73z" />
    <glyph glyph-name="Thorn" unicode="&#xde;" horiz-adv-x="585" 
d="M78 690h80v-123h184q105 0 155 -53.5t50 -149.5t-50 -149.5t-155 -53.5h-184v-161h-80v690zM466 343v38q0 51 -32 86t-102 35h-174v-275h174q69 0 101.5 33.5t32.5 82.5z" />
    <glyph glyph-name="germandbls" unicode="&#xdf;" horiz-adv-x="548" 
d="M214 60h77q78 0 109.5 32.5t31.5 104.5v23q0 66 -32 102.5t-108 36.5h-80v59h47q81 0 111 28t30 91v18q0 58 -26.5 88t-93.5 30q-72 0 -102.5 -40.5t-30.5 -143.5v-489h-75v509q0 68 16.5 111.5t45 68t66.5 34t81 9.5q98 0 146 -46.5t48 -136.5q0 -49 -21.5 -93.5
t-83.5 -60.5q64 -9 100.5 -55t36.5 -136q0 -103 -53 -153.5t-157 -50.5h-83v60z" />
    <glyph glyph-name="agrave" unicode="&#xe0;" horiz-adv-x="519" 
d="M41 131q0 68 40.5 104.5t144.5 44.5l152 14v15q0 75 -30.5 108t-94.5 33q-47 0 -78 -19t-41 -69h-77q11 72 60.5 107.5t136.5 35.5q100 0 149.5 -46.5t49.5 -149.5v-309h-72v81q-25 -43 -71.5 -67.5t-109.5 -24.5q-78 0 -118.5 37t-40.5 105zM117 126q0 -40 24.5 -61
t73.5 -21q31 0 60.5 8.5t52.5 28t36.5 50.5t13.5 76v36l-144 -13q-61 -6 -89 -25.5t-28 -63.5v-15zM93 734h98l107 -165h-72z" />
    <glyph glyph-name="aacute" unicode="&#xe1;" horiz-adv-x="519" 
d="M41 131q0 68 40.5 104.5t144.5 44.5l152 14v15q0 75 -30.5 108t-94.5 33q-47 0 -78 -19t-41 -69h-77q11 72 60.5 107.5t136.5 35.5q100 0 149.5 -46.5t49.5 -149.5v-309h-72v81q-25 -43 -71.5 -67.5t-109.5 -24.5q-78 0 -118.5 37t-40.5 105zM117 126q0 -40 24.5 -61
t73.5 -21q31 0 60.5 8.5t52.5 28t36.5 50.5t13.5 76v36l-144 -13q-61 -6 -89 -25.5t-28 -63.5v-15zM218 569l107 165h94l-133 -165h-68z" />
    <glyph glyph-name="acircumflex" unicode="&#xe2;" horiz-adv-x="519" 
d="M41 131q0 68 40.5 104.5t144.5 44.5l152 14v15q0 75 -30.5 108t-94.5 33q-47 0 -78 -19t-41 -69h-77q11 72 60.5 107.5t136.5 35.5q100 0 149.5 -46.5t49.5 -149.5v-309h-72v81q-25 -43 -71.5 -67.5t-109.5 -24.5q-78 0 -118.5 37t-40.5 105zM117 126q0 -40 24.5 -61
t73.5 -21q31 0 60.5 8.5t52.5 28t36.5 50.5t13.5 76v36l-144 -13q-61 -6 -89 -25.5t-28 -63.5v-15zM95 562l125 165h67l127 -165h-78l-84 108l-83 -108h-74z" />
    <glyph glyph-name="atilde" unicode="&#xe3;" horiz-adv-x="519" 
d="M41 131q0 68 40.5 104.5t144.5 44.5l152 14v15q0 75 -30.5 108t-94.5 33q-47 0 -78 -19t-41 -69h-77q11 72 60.5 107.5t136.5 35.5q100 0 149.5 -46.5t49.5 -149.5v-309h-72v81q-25 -43 -71.5 -67.5t-109.5 -24.5q-78 0 -118.5 37t-40.5 105zM117 126q0 -40 24.5 -61
t73.5 -21q31 0 60.5 8.5t52.5 28t36.5 50.5t13.5 76v36l-144 -13q-61 -6 -89 -25.5t-28 -63.5v-15zM191 727q28 0 46 -14.5t31 -32t24 -32t24 -14.5q19 0 26.5 26.5t7.5 65.5h54q0 -69 -20 -109t-65 -40q-28 0 -46 14.5t-31.5 32t-24 32t-23.5 14.5q-19 0 -26.5 -26.5
t-7.5 -66.5h-54q0 69 19.5 109.5t65.5 40.5z" />
    <glyph glyph-name="adieresis" unicode="&#xe4;" horiz-adv-x="519" 
d="M41 131q0 68 40.5 104.5t144.5 44.5l152 14v15q0 75 -30.5 108t-94.5 33q-47 0 -78 -19t-41 -69h-77q11 72 60.5 107.5t136.5 35.5q100 0 149.5 -46.5t49.5 -149.5v-309h-72v81q-25 -43 -71.5 -67.5t-109.5 -24.5q-78 0 -118.5 37t-40.5 105zM117 126q0 -40 24.5 -61
t73.5 -21q31 0 60.5 8.5t52.5 28t36.5 50.5t13.5 76v36l-144 -13q-61 -6 -89 -25.5t-28 -63.5v-15zM107 653q0 24 13 36.5t37 12.5q25 0 38 -12.5t13 -36.5q0 -25 -13 -37.5t-38 -12.5q-24 0 -37 12.5t-13 37.5zM301 653q0 24 12.5 36.5t37.5 12.5q23 0 36.5 -12.5
t13.5 -36.5q0 -25 -13.5 -37.5t-36.5 -12.5q-25 0 -37.5 12.5t-12.5 37.5z" />
    <glyph glyph-name="aring" unicode="&#xe5;" horiz-adv-x="519" 
d="M41 131q0 68 40.5 104.5t144.5 44.5l152 14v15q0 75 -30.5 108t-94.5 33q-47 0 -78 -19t-41 -69h-77q11 72 60.5 107.5t136.5 35.5q100 0 149.5 -46.5t49.5 -149.5v-309h-72v81q-25 -43 -71.5 -67.5t-109.5 -24.5q-78 0 -118.5 37t-40.5 105zM117 126q0 -40 24.5 -61
t73.5 -21q31 0 60.5 8.5t52.5 28t36.5 50.5t13.5 76v36l-144 -13q-61 -6 -89 -25.5t-28 -63.5v-15zM150 651q0 43 27 67t78 24q52 0 79 -24t27 -67t-27 -66.5t-79 -23.5q-51 0 -78 23.5t-27 66.5zM307 651q0 22 -12.5 34.5t-38.5 12.5q-28 0 -40 -12.5t-12 -34.5t12 -34
t40 -12q26 0 38.5 12t12.5 34z" />
    <glyph glyph-name="ae" unicode="&#xe6;" horiz-adv-x="849" 
d="M41 134q0 72 41 114t148 42h156v19q0 75 -31 108t-97 33q-49 0 -81.5 -19t-42.5 -69h-77q11 72 61.5 107.5t138.5 35.5q67 0 110.5 -22.5t63.5 -68.5q24 47 66.5 69t101.5 22q101 0 155.5 -58t54.5 -183v-24h-349v-26q0 -86 35.5 -127.5t100.5 -41.5q60 0 91 24t39 67h75
q-13 -69 -63.5 -108t-141.5 -39q-68 0 -113.5 29.5t-65.5 94.5q-21 -58 -74 -91t-131 -33q-84 0 -127.5 37.5t-43.5 107.5zM596 450q-68 0 -102 -37.5t-34 -121.5h274q-3 86 -37.5 122.5t-100.5 36.5zM223 44q31 0 60.5 8.5t52.5 27.5t36.5 49.5t13.5 74.5v36h-148
q-66 0 -93.5 -24.5t-27.5 -72.5v-15q0 -40 27 -62t79 -22z" />
    <glyph glyph-name="ccedilla" unicode="&#xe7;" horiz-adv-x="488" 
d="M43 245q0 134 52.5 197t158.5 63q86 0 137.5 -35t60.5 -110h-76q-7 50 -40.5 69.5t-82.5 19.5q-67 0 -100.5 -39.5t-33.5 -126.5v-74q0 -91 40 -127.5t94 -36.5q56 0 86.5 23t37.5 67h76q-10 -74 -62.5 -110t-137.5 -36q-47 0 -85.5 12.5t-66 42t-43 78.5t-15.5 123z
M192 -205v47q66 0 82.5 7t16.5 29t-18.5 28t-68.5 7v87h54v-47q41 -4 71.5 -18t30.5 -60q0 -40 -27.5 -60t-81.5 -20h-59z" />
    <glyph glyph-name="egrave" unicode="&#xe8;" horiz-adv-x="507" 
d="M44 247q0 138 54.5 198t155.5 60q103 0 157.5 -57.5t54.5 -179.5v-23h-348v-31q0 -86 35.5 -127.5t100.5 -41.5q60 0 91 24t39 67h75q-13 -69 -63.5 -108t-141.5 -39q-101 0 -155.5 60t-54.5 198zM254 450q-66 0 -100 -36t-36 -119h274q-3 84 -37.5 119.5t-100.5 35.5z
M90 734h98l107 -165h-72z" />
    <glyph glyph-name="eacute" unicode="&#xe9;" horiz-adv-x="507" 
d="M44 247q0 138 54.5 198t155.5 60q103 0 157.5 -57.5t54.5 -179.5v-23h-348v-31q0 -86 35.5 -127.5t100.5 -41.5q60 0 91 24t39 67h75q-13 -69 -63.5 -108t-141.5 -39q-101 0 -155.5 60t-54.5 198zM254 450q-66 0 -100 -36t-36 -119h274q-3 84 -37.5 119.5t-100.5 35.5z
M211 569l107 165h94l-133 -165h-68z" />
    <glyph glyph-name="ecircumflex" unicode="&#xea;" horiz-adv-x="507" 
d="M44 247q0 138 54.5 198t155.5 60q103 0 157.5 -57.5t54.5 -179.5v-23h-348v-31q0 -86 35.5 -127.5t100.5 -41.5q60 0 91 24t39 67h75q-13 -69 -63.5 -108t-141.5 -39q-101 0 -155.5 60t-54.5 198zM254 450q-66 0 -100 -36t-36 -119h274q-3 84 -37.5 119.5t-100.5 35.5z
M96 569l125 165h67l127 -165h-78l-84 108l-83 -108h-74z" />
    <glyph glyph-name="edieresis" unicode="&#xeb;" horiz-adv-x="507" 
d="M44 247q0 138 54.5 198t155.5 60q103 0 157.5 -57.5t54.5 -179.5v-23h-348v-31q0 -86 35.5 -127.5t100.5 -41.5q60 0 91 24t39 67h75q-13 -69 -63.5 -108t-141.5 -39q-101 0 -155.5 60t-54.5 198zM254 450q-66 0 -100 -36t-36 -119h274q-3 84 -37.5 119.5t-100.5 35.5z
M109 653q0 24 13 36.5t37 12.5q25 0 38 -12.5t13 -36.5q0 -25 -13 -37.5t-38 -12.5q-24 0 -37 12.5t-13 37.5zM303 653q0 24 12.5 36.5t37.5 12.5q23 0 36.5 -12.5t13.5 -36.5q0 -25 -13.5 -37.5t-36.5 -12.5q-25 0 -37.5 12.5t-12.5 37.5z" />
    <glyph glyph-name="igrave" unicode="&#xec;" horiz-adv-x="219" 
d="M72 494h75v-494h-75v494zM-61 734h98l107 -165h-72z" />
    <glyph glyph-name="iacute" unicode="&#xed;" horiz-adv-x="219" 
d="M72 494h75v-494h-75v494zM75 569l107 165h94l-133 -165h-68z" />
    <glyph glyph-name="icircumflex" unicode="&#xee;" horiz-adv-x="219" 
d="M72 494h75v-494h-75v494zM-50 569l125 165h67l127 -165h-78l-84 108l-83 -108h-74z" />
    <glyph glyph-name="idieresis" unicode="&#xef;" horiz-adv-x="219" 
d="M72 494h75v-494h-75v494zM-38 653q0 24 13 36.5t37 12.5q25 0 38 -12.5t13 -36.5q0 -25 -13 -37.5t-38 -12.5q-24 0 -37 12.5t-13 37.5zM156 653q0 24 12.5 36.5t37.5 12.5q23 0 36.5 -12.5t13.5 -36.5q0 -25 -13.5 -37.5t-36.5 -12.5q-25 0 -37.5 12.5t-12.5 37.5z" />
    <glyph glyph-name="eth" unicode="&#xf0;" horiz-adv-x="546" 
d="M43 245q0 124 60 178.5t155 54.5q63 0 104 -24.5t58 -72.5q-9 81 -34 136t-64 89l-164 -88l-24 44l142 76q-34 18 -74 27.5t-85 12.5v53q60 -3 117 -16t105 -43l123 66l25 -44l-105 -56q48 -46 76.5 -122.5t28.5 -193.5v-65q0 -140 -54.5 -204t-167.5 -64
q-110 0 -166 60.5t-56 195.5zM412 217v35q0 89 -37 131t-110 42q-80 0 -113 -38t-33 -119v-51q0 -78 34 -125t112 -47t112.5 47t34.5 125z" />
    <glyph glyph-name="ntilde" unicode="&#xf1;" horiz-adv-x="544" 
d="M403 0v313q0 81 -31.5 108t-88.5 27q-61 0 -98.5 -30t-37.5 -105v-313h-75v494h71v-77q21 46 62.5 67t95.5 21q86 0 131.5 -45.5t45.5 -146.5v-313h-75zM212 727q28 0 46 -14.5t31 -32t24 -32t24 -14.5q19 0 26.5 26.5t7.5 65.5h54q0 -69 -20 -109t-65 -40
q-28 0 -46 14.5t-31.5 32t-24 32t-23.5 14.5q-19 0 -26.5 -26.5t-7.5 -66.5h-54q0 69 19.5 109.5t65.5 40.5z" />
    <glyph glyph-name="ograve" unicode="&#xf2;" horiz-adv-x="531" 
d="M43 247q0 140 58.5 199t164.5 59q107 0 164.5 -59t57.5 -199q0 -143 -57.5 -200.5t-164.5 -57.5q-106 0 -164.5 57.5t-58.5 200.5zM412 214v67q0 87 -38.5 127.5t-107.5 40.5t-108 -40.5t-39 -127.5v-68q0 -86 39 -127t108 -41t107.5 41t38.5 128zM98 734h98l107 -165
h-72z" />
    <glyph glyph-name="oacute" unicode="&#xf3;" horiz-adv-x="531" 
d="M43 247q0 140 58.5 199t164.5 59q107 0 164.5 -59t57.5 -199q0 -143 -57.5 -200.5t-164.5 -57.5q-106 0 -164.5 57.5t-58.5 200.5zM412 214v67q0 87 -38.5 127.5t-107.5 40.5t-108 -40.5t-39 -127.5v-68q0 -86 39 -127t108 -41t107.5 41t38.5 128zM219 569l107 165h94
l-133 -165h-68z" />
    <glyph glyph-name="ocircumflex" unicode="&#xf4;" horiz-adv-x="531" 
d="M43 247q0 140 58.5 199t164.5 59q107 0 164.5 -59t57.5 -199q0 -143 -57.5 -200.5t-164.5 -57.5q-106 0 -164.5 57.5t-58.5 200.5zM412 214v67q0 87 -38.5 127.5t-107.5 40.5t-108 -40.5t-39 -127.5v-68q0 -86 39 -127t108 -41t107.5 41t38.5 128zM107 569l125 165h67
l127 -165h-78l-84 108l-83 -108h-74z" />
    <glyph glyph-name="otilde" unicode="&#xf5;" horiz-adv-x="531" 
d="M43 247q0 140 58.5 199t164.5 59q107 0 164.5 -59t57.5 -199q0 -143 -57.5 -200.5t-164.5 -57.5q-106 0 -164.5 57.5t-58.5 200.5zM412 214v67q0 87 -38.5 127.5t-107.5 40.5t-108 -40.5t-39 -127.5v-68q0 -86 39 -127t108 -41t107.5 41t38.5 128zM201 727q28 0 46 -14.5
t31 -32t24 -32t24 -14.5q19 0 26.5 26.5t7.5 65.5h54q0 -69 -20 -109t-65 -40q-28 0 -46 14.5t-31.5 32t-24 32t-23.5 14.5q-19 0 -26.5 -26.5t-7.5 -66.5h-54q0 69 19.5 109.5t65.5 40.5z" />
    <glyph glyph-name="odieresis" unicode="&#xf6;" horiz-adv-x="531" 
d="M43 247q0 140 58.5 199t164.5 59q107 0 164.5 -59t57.5 -199q0 -143 -57.5 -200.5t-164.5 -57.5q-106 0 -164.5 57.5t-58.5 200.5zM412 214v67q0 87 -38.5 127.5t-107.5 40.5t-108 -40.5t-39 -127.5v-68q0 -86 39 -127t108 -41t107.5 41t38.5 128zM118 653q0 24 13 36.5
t37 12.5q25 0 38 -12.5t13 -36.5q0 -25 -13 -37.5t-38 -12.5q-24 0 -37 12.5t-13 37.5zM312 653q0 24 12.5 36.5t37.5 12.5q23 0 36.5 -12.5t13.5 -36.5q0 -25 -13.5 -37.5t-36.5 -12.5q-25 0 -37.5 12.5t-12.5 37.5z" />
    <glyph glyph-name="divide" unicode="&#xf7;" horiz-adv-x="599" 
d="M249 548q0 25 13 37t37 12q25 0 38.5 -12t13.5 -37t-13.5 -37.5t-38.5 -12.5q-24 0 -37 12.5t-13 37.5zM58 385h484v-67h-484v67zM249 156q0 24 13 36.5t37 12.5q25 0 38.5 -12.5t13.5 -36.5q0 -25 -13.5 -37.5t-38.5 -12.5q-24 0 -37 12.5t-13 37.5z" />
    <glyph glyph-name="oslash" unicode="&#xf8;" horiz-adv-x="531" 
d="M43 247q0 140 58.5 199t164.5 59q28 0 53.5 -4t47.5 -12l35 63h63l-51 -90q37 -30 55.5 -83t18.5 -132q0 -143 -57.5 -200.5t-164.5 -57.5q-31 0 -58 4t-49 14l-29 -52h-63l45 80q-34 30 -51.5 82t-17.5 130zM117 213q0 -37 7.5 -66.5t22.5 -49.5l190 339q-15 7 -33 10
t-38 3q-71 0 -110 -40.5t-39 -127.5v-68zM414 214v67q0 40 -8.5 70.5t-24.5 50.5l-192 -341q16 -8 35.5 -12t41.5 -4q70 0 109 41t39 128z" />
    <glyph glyph-name="ugrave" unicode="&#xf9;" horiz-adv-x="544" 
d="M66 181v313h75v-313q0 -81 31.5 -108t88.5 -27q60 0 98 30t38 105v313h75v-494h-74v69q-21 -42 -61 -61t-94 -19q-86 0 -131.5 45t-45.5 147zM105 734h98l107 -165h-72z" />
    <glyph glyph-name="uacute" unicode="&#xfa;" horiz-adv-x="544" 
d="M66 181v313h75v-313q0 -81 31.5 -108t88.5 -27q60 0 98 30t38 105v313h75v-494h-74v69q-21 -42 -61 -61t-94 -19q-86 0 -131.5 45t-45.5 147zM228 569l107 165h94l-133 -165h-68z" />
    <glyph glyph-name="ucircumflex" unicode="&#xfb;" horiz-adv-x="544" 
d="M66 181v313h75v-313q0 -81 31.5 -108t88.5 -27q60 0 98 30t38 105v313h75v-494h-74v69q-21 -42 -61 -61t-94 -19q-86 0 -131.5 45t-45.5 147zM110 569l125 165h67l127 -165h-78l-84 108l-83 -108h-74z" />
    <glyph glyph-name="udieresis" unicode="&#xfc;" horiz-adv-x="544" 
d="M66 181v313h75v-313q0 -81 31.5 -108t88.5 -27q60 0 98 30t38 105v313h75v-494h-74v69q-21 -42 -61 -61t-94 -19q-86 0 -131.5 45t-45.5 147zM122 653q0 24 13 36.5t37 12.5q25 0 38 -12.5t13 -36.5q0 -25 -13 -37.5t-38 -12.5q-24 0 -37 12.5t-13 37.5zM316 653
q0 24 12.5 36.5t37.5 12.5q23 0 36.5 -12.5t13.5 -36.5q0 -25 -13.5 -37.5t-36.5 -12.5q-25 0 -37.5 12.5t-12.5 37.5z" />
    <glyph glyph-name="yacute" unicode="&#xfd;" horiz-adv-x="471" 
d="M41 -141h37q48 0 70 17t40 68l14 38l-192 512h79l151 -410l150 410h70l-209 -564q-28 -75 -62 -102.5t-103 -27.5h-45v59zM199 569l107 165h94l-133 -165h-68z" />
    <glyph glyph-name="thorn" unicode="&#xfe;" horiz-adv-x="559" 
d="M72 730h75v-307q25 43 66.5 62.5t93.5 19.5q101 0 155 -59t54 -199t-54 -199t-155 -59q-52 0 -93.5 19.5t-66.5 62.5v-271h-75v930zM440 212v70q0 90 -40 128.5t-107 38.5q-68 0 -107 -38.5t-39 -128.5v-70q0 -84 41 -125.5t105 -41.5q67 0 107 42t40 125z" />
    <glyph glyph-name="ydieresis" unicode="&#xff;" horiz-adv-x="471" 
d="M41 -141h37q48 0 70 17t40 68l14 38l-192 512h79l151 -410l150 410h70l-209 -564q-28 -75 -62 -102.5t-103 -27.5h-45v59zM90 653q0 24 13 36.5t37 12.5q25 0 38 -12.5t13 -36.5q0 -25 -13 -37.5t-38 -12.5q-24 0 -37 12.5t-13 37.5zM284 653q0 24 12.5 36.5t37.5 12.5
q23 0 36.5 -12.5t13.5 -36.5q0 -25 -13.5 -37.5t-36.5 -12.5q-25 0 -37.5 12.5t-12.5 37.5z" />
    <glyph glyph-name="Amacron" unicode="&#x100;" horiz-adv-x="604" 
d="M244 690h117l233 -690h-82l-67 199h-295l-67 -199h-72zM171 262h253l-126 376zM163 807v55h276v-55h-276z" />
    <glyph glyph-name="amacron" unicode="&#x101;" horiz-adv-x="519" 
d="M41 131q0 68 40.5 104.5t144.5 44.5l152 14v15q0 75 -30.5 108t-94.5 33q-47 0 -78 -19t-41 -69h-77q11 72 60.5 107.5t136.5 35.5q100 0 149.5 -46.5t49.5 -149.5v-309h-72v81q-25 -43 -71.5 -67.5t-109.5 -24.5q-78 0 -118.5 37t-40.5 105zM117 126q0 -40 24.5 -61
t73.5 -21q31 0 60.5 8.5t52.5 28t36.5 50.5t13.5 76v36l-144 -13q-61 -6 -89 -25.5t-28 -63.5v-15zM118 624v54h276v-54h-276z" />
    <glyph glyph-name="Abreve" unicode="&#x102;" horiz-adv-x="604" 
d="M244 690h117l233 -690h-82l-67 199h-295l-67 -199h-72zM171 262h253l-126 376zM157 900h65q0 -46 19.5 -66.5t59.5 -20.5q41 0 60.5 20.5t19.5 66.5h65q0 -69 -36.5 -106.5t-108.5 -37.5q-71 0 -107.5 37t-36.5 107z" />
    <glyph glyph-name="abreve" unicode="&#x103;" horiz-adv-x="519" 
d="M41 131q0 68 40.5 104.5t144.5 44.5l152 14v15q0 75 -30.5 108t-94.5 33q-47 0 -78 -19t-41 -69h-77q11 72 60.5 107.5t136.5 35.5q100 0 149.5 -46.5t49.5 -149.5v-309h-72v81q-25 -43 -71.5 -67.5t-109.5 -24.5q-78 0 -118.5 37t-40.5 105zM117 126q0 -40 24.5 -61
t73.5 -21q31 0 60.5 8.5t52.5 28t36.5 50.5t13.5 76v36l-144 -13q-61 -6 -89 -25.5t-28 -63.5v-15zM112 726h65q0 -51 19 -76t59 -25t59.5 25t19.5 76h65q0 -76 -36 -117t-108 -41q-71 0 -107 40.5t-36 117.5z" />
    <glyph glyph-name="Aogonek" unicode="&#x104;" horiz-adv-x="604" 
d="M577 -189q-60 0 -96 23.5t-36 70.5q0 35 19 59t47 39l-66 196h-295l-67 -199h-72l233 690h117l233 -690h-15q-37 -11 -53.5 -31.5t-16.5 -46.5q0 -28 23 -42.5t74 -14.5v-54h-29zM171 262h253l-126 376z" />
    <glyph glyph-name="aogonek" unicode="&#x105;" horiz-adv-x="519" 
d="M41 131q0 68 40.5 104.5t144.5 44.5l152 14v15q0 75 -30.5 108t-94.5 33q-47 0 -78 -19t-41 -69h-77q11 72 60.5 107.5t136.5 35.5q100 0 149.5 -46.5t49.5 -149.5v-309h-15q-37 -10 -53.5 -30.5t-16.5 -47.5q0 -28 23 -42.5t74 -14.5v-54h-29q-60 0 -96 24t-36 72
q0 40 22 65.5t55 35.5v73q-25 -43 -71.5 -67.5t-109.5 -24.5q-78 0 -118.5 37t-40.5 105zM117 126q0 -40 24.5 -61t73.5 -21q31 0 60.5 8.5t52.5 28t36.5 50.5t13.5 76v36l-144 -13q-61 -6 -89 -25.5t-28 -63.5v-15z" />
    <glyph glyph-name="Cacute" unicode="&#x106;" horiz-adv-x="614" 
d="M49 346q0 189 72 272t203 83q119 0 180.5 -49t72.5 -156h-80q-10 81 -51.5 110.5t-121.5 29.5q-90 0 -142 -59t-52 -187v-84q0 -125 52 -188.5t143 -63.5q77 0 119 28t54 106h80q-13 -105 -75 -152t-179 -47q-131 0 -203 83.5t-72 273.5zM277 758l107 142h99l-133 -142
h-73z" />
    <glyph glyph-name="cacute" unicode="&#x107;" horiz-adv-x="488" 
d="M43 245q0 134 52.5 197t158.5 63q86 0 137.5 -35t60.5 -110h-76q-7 50 -40.5 69.5t-82.5 19.5q-67 0 -100.5 -39.5t-33.5 -126.5v-74q0 -91 40 -127.5t94 -36.5q56 0 86.5 23t37.5 67h76q-10 -74 -62.5 -110t-137.5 -36q-47 0 -85.5 12.5t-66 42t-43 78.5t-15.5 123z
M210 569l107 165h94l-133 -165h-68z" />
    <glyph glyph-name="Ccircumflex" unicode="&#x108;" horiz-adv-x="614" 
d="M49 346q0 189 72 272t203 83q119 0 180.5 -49t72.5 -156h-80q-10 81 -51.5 110.5t-121.5 29.5q-90 0 -142 -59t-52 -187v-84q0 -125 52 -188.5t143 -63.5q77 0 119 28t54 106h80q-13 -105 -75 -152t-179 -47q-131 0 -203 83.5t-72 273.5zM155 758l137 142h69l139 -142
h-84l-90 89l-90 -89h-81z" />
    <glyph glyph-name="ccircumflex" unicode="&#x109;" horiz-adv-x="488" 
d="M43 245q0 134 52.5 197t158.5 63q86 0 137.5 -35t60.5 -110h-76q-7 50 -40.5 69.5t-82.5 19.5q-67 0 -100.5 -39.5t-33.5 -126.5v-74q0 -91 40 -127.5t94 -36.5q56 0 86.5 23t37.5 67h76q-10 -74 -62.5 -110t-137.5 -36q-47 0 -85.5 12.5t-66 42t-43 78.5t-15.5 123z
M91 562l125 165h67l127 -165h-78l-84 108l-83 -108h-74z" />
    <glyph glyph-name="Cdotaccent" unicode="&#x10a;" horiz-adv-x="614" 
d="M49 346q0 189 72 272t203 83q119 0 180.5 -49t72.5 -156h-80q-10 81 -51.5 110.5t-121.5 29.5q-90 0 -142 -59t-52 -187v-84q0 -125 52 -188.5t143 -63.5q77 0 119 28t54 106h80q-13 -105 -75 -152t-179 -47q-131 0 -203 83.5t-72 273.5zM271 828q0 24 14.5 36.5
t40.5 12.5q28 0 42.5 -12.5t14.5 -36.5q0 -25 -14.5 -37.5t-42.5 -12.5q-26 0 -40.5 12.5t-14.5 37.5z" />
    <glyph glyph-name="cdotaccent" unicode="&#x10b;" horiz-adv-x="488" 
d="M43 245q0 134 52.5 197t158.5 63q86 0 137.5 -35t60.5 -110h-76q-7 50 -40.5 69.5t-82.5 19.5q-67 0 -100.5 -39.5t-33.5 -126.5v-74q0 -91 40 -127.5t94 -36.5q56 0 86.5 23t37.5 67h76q-10 -74 -62.5 -110t-137.5 -36q-47 0 -85.5 12.5t-66 42t-43 78.5t-15.5 123z
M202 658q0 24 13 36.5t38 12.5t38.5 -12.5t13.5 -36.5q0 -25 -13.5 -37.5t-38.5 -12.5t-38 12.5t-13 37.5z" />
    <glyph glyph-name="Ccaron" unicode="&#x10c;" horiz-adv-x="614" 
d="M49 346q0 189 72 272t203 83q119 0 180.5 -49t72.5 -156h-80q-10 81 -51.5 110.5t-121.5 29.5q-90 0 -142 -59t-52 -187v-84q0 -125 52 -188.5t143 -63.5q77 0 119 28t54 106h80q-13 -105 -75 -152t-179 -47q-131 0 -203 83.5t-72 273.5zM151 902h84l91 -89l89 89h81
l-137 -142h-69z" />
    <glyph glyph-name="ccaron" unicode="&#x10d;" horiz-adv-x="488" 
d="M43 245q0 134 52.5 197t158.5 63q86 0 137.5 -35t60.5 -110h-76q-7 50 -40.5 69.5t-82.5 19.5q-67 0 -100.5 -39.5t-33.5 -126.5v-74q0 -91 40 -127.5t94 -36.5q56 0 86.5 23t37.5 67h76q-10 -74 -62.5 -110t-137.5 -36q-47 0 -85.5 12.5t-66 42t-43 78.5t-15.5 123z
M91 734h77l84 -107l83 107h75l-125 -165h-67z" />
    <glyph glyph-name="Dcaron" unicode="&#x10e;" horiz-adv-x="661" 
d="M78 690h231q151 0 227.5 -82t76.5 -263q0 -175 -76.5 -260t-227.5 -85h-231v690zM309 67q107 0 165 60.5t58 181.5v79q0 121 -58 178.5t-165 57.5h-151v-557h151zM124 900h84l91 -89l89 89h81l-137 -142h-69z" />
    <glyph glyph-name="dcaron" unicode="&#x10f;" horiz-adv-x="578" 
d="M43 243q0 141 55 201.5t156 60.5q52 0 92.5 -18t65.5 -60v303h75v-730h-71v76q-25 -45 -66.5 -66t-95.5 -21q-99 0 -155 58t-56 196zM412 212v70q0 87 -40 127t-106 40t-106.5 -40.5t-40.5 -130.5v-70q0 -81 41 -122t106 -41q66 0 106 41.5t40 125.5zM547 581l10 149h73
l-29 -149h-54z" />
    <glyph glyph-name="Dcroat" unicode="&#x110;" horiz-adv-x="709" 
d="M26 321v63h99v306h231q151 0 227.5 -82t76.5 -263q0 -175 -76.5 -260t-227.5 -85h-231v321h-99zM356 67q107 0 165 60.5t58 181.5v79q0 121 -58 178.5t-165 57.5h-151v-240h181v-63h-181v-254h151z" />
    <glyph glyph-name="dcroat" unicode="&#x111;" horiz-adv-x="559" 
d="M43 243q0 141 55 201.5t156 60.5q52 0 92.5 -18t65.5 -60v151h-147v53h147v99h75v-99h80v-53h-80v-578h-71v76q-25 -45 -66.5 -66t-95.5 -21q-99 0 -155 58t-56 196zM412 212v70q0 87 -40 127t-106 40t-106.5 -40.5t-40.5 -130.5v-70q0 -81 41 -122t106 -41
q66 0 106 41.5t40 125.5z" />
    <glyph glyph-name="Emacron" unicode="&#x112;" horiz-adv-x="536" 
d="M78 690h411v-66h-331v-240h288v-64h-288v-254h335v-66h-415v690zM148 807v55h276v-55h-276z" />
    <glyph glyph-name="emacron" unicode="&#x113;" horiz-adv-x="507" 
d="M44 247q0 138 54.5 198t155.5 60q103 0 157.5 -57.5t54.5 -179.5v-23h-348v-31q0 -86 35.5 -127.5t100.5 -41.5q60 0 91 24t39 67h75q-13 -69 -63.5 -108t-141.5 -39q-101 0 -155.5 60t-54.5 198zM254 450q-66 0 -100 -36t-36 -119h274q-3 84 -37.5 119.5t-100.5 35.5z
M118 624v54h276v-54h-276z" />
    <glyph glyph-name="Ebreve" unicode="&#x114;" horiz-adv-x="536" 
d="M78 690h411v-66h-331v-240h288v-64h-288v-254h335v-66h-415v690zM142 900h65q0 -46 19.5 -66.5t59.5 -20.5q41 0 60.5 20.5t19.5 66.5h65q0 -69 -36.5 -106.5t-108.5 -37.5q-71 0 -107.5 37t-36.5 107z" />
    <glyph glyph-name="ebreve" unicode="&#x115;" horiz-adv-x="507" 
d="M44 247q0 138 54.5 198t155.5 60q103 0 157.5 -57.5t54.5 -179.5v-23h-348v-31q0 -86 35.5 -127.5t100.5 -41.5q60 0 91 24t39 67h75q-13 -69 -63.5 -108t-141.5 -39q-101 0 -155.5 60t-54.5 198zM254 450q-66 0 -100 -36t-36 -119h274q-3 84 -37.5 119.5t-100.5 35.5z
M112 726h65q0 -51 19 -76t59 -25t59.5 25t19.5 76h65q0 -76 -36 -117t-108 -41q-71 0 -107 40.5t-36 117.5z" />
    <glyph glyph-name="Edotaccent" unicode="&#x116;" horiz-adv-x="536" 
d="M78 690h411v-66h-331v-240h288v-64h-288v-254h335v-66h-415v690zM232 828q0 24 14.5 36.5t40.5 12.5q28 0 42.5 -12.5t14.5 -36.5q0 -25 -14.5 -37.5t-42.5 -12.5q-26 0 -40.5 12.5t-14.5 37.5z" />
    <glyph glyph-name="edotaccent" unicode="&#x117;" horiz-adv-x="507" 
d="M44 247q0 138 54.5 198t155.5 60q103 0 157.5 -57.5t54.5 -179.5v-23h-348v-31q0 -86 35.5 -127.5t100.5 -41.5q60 0 91 24t39 67h75q-13 -69 -63.5 -108t-141.5 -39q-101 0 -155.5 60t-54.5 198zM254 450q-66 0 -100 -36t-36 -119h274q-3 84 -37.5 119.5t-100.5 35.5z
M204 658q0 24 13 36.5t38 12.5t38.5 -12.5t13.5 -36.5q0 -25 -13.5 -37.5t-38.5 -12.5t-38 12.5t-13 37.5z" />
    <glyph glyph-name="Eogonek" unicode="&#x118;" horiz-adv-x="536" 
d="M473 -189q-60 0 -96 24t-36 72q0 36 24.5 61t63.5 32h-351v690h411v-66h-331v-240h288v-64h-288v-254h335v-66q-47 -10 -67 -30.5t-20 -47.5q0 -28 20.5 -42.5t66.5 -14.5v-54h-20z" />
    <glyph glyph-name="eogonek" unicode="&#x119;" horiz-adv-x="507" 
d="M44 247q0 138 54.5 198t155.5 60q103 0 157.5 -57.5t54.5 -179.5v-23h-348v-31q0 -86 35.5 -127.5t100.5 -41.5q60 0 91 24t39 67h75q-8 -44 -31.5 -76t-62.5 -49q-43 -21 -63.5 -40t-20.5 -49q0 -28 23 -42.5t74 -14.5v-54h-29q-60 0 -96 24t-36 72q0 28 13 49t35 33
h-5.5h-5.5q-101 0 -155.5 60t-54.5 198zM254 450q-66 0 -100 -36t-36 -119h274q-3 84 -37.5 119.5t-100.5 35.5z" />
    <glyph glyph-name="Ecaron" unicode="&#x11a;" horiz-adv-x="536" 
d="M78 690h411v-66h-331v-240h288v-64h-288v-254h335v-66h-415v690zM114 900h84l91 -89l89 89h81l-137 -142h-69z" />
    <glyph glyph-name="ecaron" unicode="&#x11b;" horiz-adv-x="507" 
d="M44 247q0 138 54.5 198t155.5 60q103 0 157.5 -57.5t54.5 -179.5v-23h-348v-31q0 -86 35.5 -127.5t100.5 -41.5q60 0 91 24t39 67h75q-13 -69 -63.5 -108t-141.5 -39q-101 0 -155.5 60t-54.5 198zM254 450q-66 0 -100 -36t-36 -119h274q-3 84 -37.5 119.5t-100.5 35.5z
M95 734h77l84 -107l83 107h75l-125 -165h-67z" />
    <glyph glyph-name="Gcircumflex" unicode="&#x11c;" horiz-adv-x="642" 
d="M49 346q0 191 73.5 273t205.5 82q121 0 183 -49.5t75 -154.5h-81q-9 75 -52 107t-125 32q-92 0 -145 -58.5t-53 -191.5v-81q0 -128 52.5 -189.5t145.5 -61.5q104 0 146 54t44 158h-174v61h253v-48q0 -135 -63.5 -212.5t-205.5 -77.5q-132 0 -205.5 82t-73.5 275zM159 758
l137 142h69l139 -142h-84l-90 89l-90 -89h-81z" />
    <glyph glyph-name="gcircumflex" unicode="&#x11d;" horiz-adv-x="559" 
d="M65 -68h76q11 -49 47 -68t90 -19q78 0 107 38.5t29 128.5v65q-25 -40 -65 -59t-92 -19q-99 0 -155.5 58.5t-56.5 189.5q0 136 55 197t157 61q53 0 94.5 -19.5t66.5 -65.5v74h71v-482q0 -107 -49 -165t-163 -58q-94 0 -147.5 36t-64.5 107zM414 218v64q0 87 -40 127
t-106 40t-106.5 -40.5t-40.5 -130.5v-64q0 -79 41 -119t106 -40q68 0 107 38t39 125zM109 569l125 165h67l127 -165h-78l-84 108l-83 -108h-74z" />
    <glyph glyph-name="Gbreve" unicode="&#x11e;" horiz-adv-x="642" 
d="M49 346q0 191 73.5 273t205.5 82q121 0 183 -49.5t75 -154.5h-81q-9 75 -52 107t-125 32q-92 0 -145 -58.5t-53 -191.5v-81q0 -128 52.5 -189.5t145.5 -61.5q104 0 146 54t44 158h-174v61h253v-48q0 -135 -63.5 -212.5t-205.5 -77.5q-132 0 -205.5 82t-73.5 275zM187 900
h65q0 -46 19.5 -66.5t59.5 -20.5q41 0 60.5 20.5t19.5 66.5h65q0 -69 -36.5 -106.5t-108.5 -37.5q-71 0 -107.5 37t-36.5 107z" />
    <glyph glyph-name="gbreve" unicode="&#x11f;" horiz-adv-x="559" 
d="M65 -68h76q11 -49 47 -68t90 -19q78 0 107 38.5t29 128.5v65q-25 -40 -65 -59t-92 -19q-99 0 -155.5 58.5t-56.5 189.5q0 136 55 197t157 61q53 0 94.5 -19.5t66.5 -65.5v74h71v-482q0 -107 -49 -165t-163 -58q-94 0 -147.5 36t-64.5 107zM414 218v64q0 87 -40 127
t-106 40t-106.5 -40.5t-40.5 -130.5v-64q0 -79 41 -119t106 -40q68 0 107 38t39 125zM125 726h65q0 -51 19 -76t59 -25t59.5 25t19.5 76h65q0 -76 -36 -117t-108 -41q-71 0 -107 40.5t-36 117.5z" />
    <glyph glyph-name="Gdotaccent" unicode="&#x120;" horiz-adv-x="642" 
d="M49 346q0 191 73.5 273t205.5 82q121 0 183 -49.5t75 -154.5h-81q-9 75 -52 107t-125 32q-92 0 -145 -58.5t-53 -191.5v-81q0 -128 52.5 -189.5t145.5 -61.5q104 0 146 54t44 158h-174v61h253v-48q0 -135 -63.5 -212.5t-205.5 -77.5q-132 0 -205.5 82t-73.5 275zM276 828
q0 24 14.5 36.5t40.5 12.5q28 0 42.5 -12.5t14.5 -36.5q0 -25 -14.5 -37.5t-42.5 -12.5q-26 0 -40.5 12.5t-14.5 37.5z" />
    <glyph glyph-name="gdotaccent" unicode="&#x121;" horiz-adv-x="559" 
d="M65 -68h76q11 -49 47 -68t90 -19q78 0 107 38.5t29 128.5v65q-25 -40 -65 -59t-92 -19q-99 0 -155.5 58.5t-56.5 189.5q0 136 55 197t157 61q53 0 94.5 -19.5t66.5 -65.5v74h71v-482q0 -107 -49 -165t-163 -58q-94 0 -147.5 36t-64.5 107zM414 218v64q0 87 -40 127
t-106 40t-106.5 -40.5t-40.5 -130.5v-64q0 -79 41 -119t106 -40q68 0 107 38t39 125zM218 658q0 24 13 36.5t38 12.5t38.5 -12.5t13.5 -36.5q0 -25 -13.5 -37.5t-38.5 -12.5t-38 12.5t-13 37.5z" />
    <glyph glyph-name="Gcommaaccent" unicode="&#x122;" horiz-adv-x="642" 
d="M49 346q0 191 73.5 273t205.5 82q121 0 183 -49.5t75 -154.5h-81q-9 75 -52 107t-125 32q-92 0 -145 -58.5t-53 -191.5v-81q0 -128 52.5 -189.5t145.5 -61.5q104 0 146 54t44 158h-174v61h253v-48q0 -135 -63.5 -212.5t-205.5 -77.5q-132 0 -205.5 82t-73.5 275z
M294 -194q25 0 34 14t9 41h-3q-22 0 -35 12t-13 35q0 24 13.5 35.5t36.5 11.5q25 0 39 -12t14 -39v-33q0 -56 -22 -82.5t-73 -26.5v44z" />
    <glyph glyph-name="gcommaaccent" unicode="&#x123;" horiz-adv-x="559" 
d="M65 -68h76q11 -49 47 -68t90 -19q78 0 107 38.5t29 128.5v65q-25 -40 -65 -59t-92 -19q-99 0 -155.5 58.5t-56.5 189.5q0 136 55 197t157 61q53 0 94.5 -19.5t66.5 -65.5v74h71v-482q0 -107 -49 -165t-163 -58q-94 0 -147.5 36t-64.5 107zM414 218v64q0 87 -40 127
t-106 40t-106.5 -40.5t-40.5 -130.5v-64q0 -79 41 -119t106 -40q68 0 107 38t39 125zM310 727q-25 0 -34 -14t-9 -41h3q22 0 35 -12t13 -35q0 -24 -13.5 -35.5t-36.5 -11.5q-25 0 -39 12t-14 39v33q0 56 22 82.5t73 26.5v-44z" />
    <glyph glyph-name="Hcircumflex" unicode="&#x124;" horiz-adv-x="645" 
d="M78 690h80v-305h328v305h80v-690h-80v318h-328v-318h-80v690zM150 758l137 142h69l139 -142h-84l-90 89l-90 -89h-81z" />
    <glyph glyph-name="hcircumflex" unicode="&#x125;" horiz-adv-x="544" 
d="M403 0v313q0 81 -31.5 108t-88.5 27q-61 0 -98.5 -30t-37.5 -105v-313h-75v730h75v-305q22 42 62.5 61t91.5 19q86 0 131.5 -45.5t45.5 -146.5v-313h-75zM84 768l137 142h69l139 -142h-84l-90 89l-90 -89h-81z" />
    <glyph glyph-name="Hbar" unicode="&#x126;" horiz-adv-x="664" 
d="M14 517v60h73v113h80v-113h328v113h80v-113h74v-60h-74v-517h-80v318h-328v-318h-80v517h-73zM167 385h328v132h-328v-132z" />
    <glyph glyph-name="hbar" unicode="&#x127;" horiz-adv-x="544" 
d="M403 0v313q0 81 -31.5 108t-88.5 27q-61 0 -98.5 -30t-37.5 -105v-313h-75v578h-78v53h78v99h75v-99h147v-53h-147v-153q22 42 62.5 61t91.5 19q86 0 131.5 -45.5t45.5 -146.5v-313h-75z" />
    <glyph glyph-name="Itilde" unicode="&#x128;" horiz-adv-x="237" 
d="M78 690h80v-690h-80v690zM54 892q27 0 45 -11t31.5 -24.5t25 -24.5t24.5 -11q19 0 26.5 20.5t7.5 50.5h55q0 -58 -19.5 -92.5t-64.5 -34.5q-27 0 -45 11.5t-32 24.5t-25.5 24.5t-24.5 11.5q-19 0 -26.5 -20t-7.5 -51h-54q0 58 19.5 92t64.5 34z" />
    <glyph glyph-name="itilde" unicode="&#x129;" horiz-adv-x="219" 
d="M72 494h75v-494h-75v494zM46 727q28 0 46 -14.5t31 -32t24 -32t24 -14.5q19 0 26.5 26.5t7.5 65.5h54q0 -69 -20 -109t-65 -40q-28 0 -46 14.5t-31.5 32t-24 32t-23.5 14.5q-19 0 -26.5 -26.5t-7.5 -66.5h-54q0 69 19.5 109.5t65.5 40.5z" />
    <glyph glyph-name="Imacron" unicode="&#x12a;" horiz-adv-x="237" 
d="M78 690h80v-690h-80v690zM-19 807v55h276v-55h-276z" />
    <glyph glyph-name="imacron" unicode="&#x12b;" horiz-adv-x="219" 
d="M72 494h75v-494h-75v494zM-29 624v54h276v-54h-276z" />
    <glyph glyph-name="Ibreve" unicode="&#x12c;" horiz-adv-x="237" 
d="M78 690h80v-690h-80v690zM-26 900h65q0 -46 19.5 -66.5t59.5 -20.5q41 0 60.5 20.5t19.5 66.5h65q0 -69 -36.5 -106.5t-108.5 -37.5q-71 0 -107.5 37t-36.5 107z" />
    <glyph glyph-name="ibreve" unicode="&#x12d;" horiz-adv-x="219" 
d="M72 494h75v-494h-75v494zM-34 726h65q0 -51 19 -76t59 -25t59.5 25t19.5 76h65q0 -76 -36 -117t-108 -41q-71 0 -107 40.5t-36 117.5z" />
    <glyph glyph-name="Iogonek" unicode="&#x12e;" horiz-adv-x="237" 
d="M156 -189q-63 0 -99 24.5t-36 73.5q0 34 16 58.5t41 39.5v683h80v-690q-39 -12 -56 -31.5t-17 -46.5q0 -28 23.5 -42.5t76.5 -14.5v-54h-29z" />
    <glyph glyph-name="iogonek" unicode="&#x12f;" horiz-adv-x="219" 
d="M58 657q0 24 13 36.5t38 12.5t38.5 -12.5t13.5 -36.5q0 -25 -13.5 -37.5t-38.5 -12.5t-38 12.5t-13 37.5zM143 -189q-60 0 -95.5 24t-35.5 72q0 34 16.5 58.5t43.5 38.5v490h75v-494q-38 -11 -54.5 -31.5t-16.5 -46.5q0 -28 23 -42.5t74 -14.5v-54h-30z" />
    <glyph glyph-name="Idotaccent" unicode="&#x130;" horiz-adv-x="237" 
d="M78 690h80v-690h-80v690zM63 828q0 24 14.5 36.5t40.5 12.5q28 0 42.5 -12.5t14.5 -36.5q0 -25 -14.5 -37.5t-42.5 -12.5q-26 0 -40.5 12.5t-14.5 37.5z" />
    <glyph glyph-name="dotlessi" unicode="&#x131;" horiz-adv-x="219" 
d="M72 494h75v-494h-75v494z" />
    <glyph glyph-name="IJ" unicode="&#x132;" horiz-adv-x="523" 
d="M253 65h48q37 0 51.5 17.5t14.5 59.5v548h80v-562q0 -66 -27 -97t-104 -31h-63v65zM78 690h80v-690h-80v690z" />
    <glyph glyph-name="ij" unicode="&#x133;" horiz-adv-x="427" 
d="M72 494h75v-494h-75v494zM58 657q0 24 13 36.5t38 12.5t38.5 -12.5t13.5 -36.5q0 -25 -13.5 -37.5t-38.5 -12.5t-38 12.5t-13 37.5zM192 -140h28q35 0 47.5 15.5t12.5 44.5v574h75v-578q0 -61 -27 -88.5t-94 -27.5h-42v60zM266 657q0 24 13 36.5t38 12.5t38.5 -12.5
t13.5 -36.5q0 -25 -13.5 -37.5t-38.5 -12.5t-38 12.5t-13 37.5z" />
    <glyph glyph-name="Jcircumflex" unicode="&#x134;" horiz-adv-x="282" 
d="M13 65h48q36 0 50.5 17.5t14.5 59.5v548h80v-562q0 -66 -27 -97t-103 -31h-63v65zM-7 758l137 142h69l139 -142h-84l-90 89l-90 -89h-81z" />
    <glyph glyph-name="jcircumflex" unicode="&#x135;" horiz-adv-x="219" 
d="M-16 -140h28q35 0 47.5 15.5t12.5 44.5v574h75v-578q0 -61 -27 -88.5t-94 -27.5h-42v60zM-50 569l125 165h67l127 -165h-78l-84 108l-83 -108h-74z" />
    <glyph glyph-name="Kcommaaccent" unicode="&#x136;" horiz-adv-x="567" 
d="M78 690h80v-310h75l231 310h86l-251 -337l270 -353h-96l-240 314h-75v-314h-80v690zM265 -194q25 0 34 14t9 41h-3q-22 0 -35 12t-13 35q0 24 13.5 35.5t36.5 11.5q25 0 39 -12t14 -39v-33q0 -56 -22 -82.5t-73 -26.5v44z" />
    <glyph glyph-name="kcommaaccent" unicode="&#x137;" horiz-adv-x="469" 
d="M366 494h82l-185 -240l209 -254h-92l-181 219h-52v-219h-75v730h75v-452h53zM214 -194q25 0 34 14t9 41h-3q-22 0 -35 12t-13 35q0 24 13.5 35.5t36.5 11.5q25 0 39 -12t14 -39v-33q0 -56 -22 -82.5t-73 -26.5v44z" />
    <glyph glyph-name="Lacute" unicode="&#x139;" horiz-adv-x="497" 
d="M78 690h80v-623h325v-67h-405v690zM81 758l107 142h99l-133 -142h-73z" />
    <glyph glyph-name="lacute" unicode="&#x13a;" horiz-adv-x="219" 
d="M72 730h75v-730h-75v730zM75 775l107 142h99l-133 -142h-73z" />
    <glyph glyph-name="Lcommaaccent" unicode="&#x13b;" horiz-adv-x="497" 
d="M78 690h80v-623h325v-67h-405v690zM240 -194q25 0 34 14t9 41h-3q-22 0 -35 12t-13 35q0 24 13.5 35.5t36.5 11.5q25 0 39 -12t14 -39v-33q0 -56 -22 -82.5t-73 -26.5v44z" />
    <glyph glyph-name="lcommaaccent" unicode="&#x13c;" horiz-adv-x="219" 
d="M72 730h75v-730h-75v730zM66 -194q25 0 34 14t9 41h-3q-22 0 -35 12t-13 35q0 24 13.5 35.5t36.5 11.5q25 0 39 -12t14 -39v-33q0 -56 -22 -82.5t-73 -26.5v44z" />
    <glyph glyph-name="Lcaron" unicode="&#x13d;" horiz-adv-x="515" 
d="M78 690h80v-623h325v-67h-405v690zM400 541l10 149h73l-29 -149h-54z" />
    <glyph glyph-name="lcaron" unicode="&#x13e;" horiz-adv-x="237" 
d="M72 730h75v-730h-75v730zM210 581l10 149h73l-29 -149h-54z" />
    <glyph glyph-name="Ldot" unicode="&#x13f;" horiz-adv-x="502" 
d="M78 690h80v-623h325v-67h-405v690zM318 366q0 25 13 37.5t38 12.5t38.5 -12.5t13.5 -37.5t-13.5 -37.5t-38.5 -12.5t-38 12.5t-13 37.5z" />
    <glyph glyph-name="ldot" unicode="&#x140;" horiz-adv-x="342" 
d="M72 730h75v-730h-75v730zM229 271q0 25 13 37.5t38 12.5t38.5 -12.5t13.5 -37.5t-13.5 -37.5t-38.5 -12.5t-38 12.5t-13 37.5z" />
    <glyph glyph-name="Lslash" unicode="&#x141;" horiz-adv-x="548" 
d="M33 322l96 55v313h80v-266l136 78v-73l-136 -78v-284h325v-67h-405v304l-96 -55v73z" />
    <glyph glyph-name="lslash" unicode="&#x142;" horiz-adv-x="256" 
d="M10 360l81 48v322h75v-277l80 47v-67l-80 -48v-385h-75v340l-81 -48v68z" />
    <glyph glyph-name="Nacute" unicode="&#x143;" horiz-adv-x="657" 
d="M473 0l-317 586v-586h-78v690h106l317 -586v586h78v-690h-106zM285 758l107 142h99l-133 -142h-73z" />
    <glyph glyph-name="nacute" unicode="&#x144;" horiz-adv-x="544" 
d="M403 0v313q0 81 -31.5 108t-88.5 27q-61 0 -98.5 -30t-37.5 -105v-313h-75v494h71v-77q21 46 62.5 67t95.5 21q86 0 131.5 -45.5t45.5 -146.5v-313h-75zM233 569l107 165h94l-133 -165h-68z" />
    <glyph glyph-name="Ncommaaccent" unicode="&#x145;" horiz-adv-x="657" 
d="M473 0l-317 586v-586h-78v690h106l317 -586v586h78v-690h-106zM285 -194q25 0 34 14t9 41h-3q-22 0 -35 12t-13 35q0 24 13.5 35.5t36.5 11.5q25 0 39 -12t14 -39v-33q0 -56 -22 -82.5t-73 -26.5v44z" />
    <glyph glyph-name="ncommaaccent" unicode="&#x146;" horiz-adv-x="544" 
d="M403 0v313q0 81 -31.5 108t-88.5 27q-61 0 -98.5 -30t-37.5 -105v-313h-75v494h71v-77q21 46 62.5 67t95.5 21q86 0 131.5 -45.5t45.5 -146.5v-313h-75zM231 -194q25 0 34 14t9 41h-3q-22 0 -35 12t-13 35q0 24 13.5 35.5t36.5 11.5q25 0 39 -12t14 -39v-33
q0 -56 -22 -82.5t-73 -26.5v44z" />
    <glyph glyph-name="Ncaron" unicode="&#x147;" horiz-adv-x="657" 
d="M473 0l-317 586v-586h-78v690h106l317 -586v586h78v-690h-106zM164 900h84l91 -89l89 89h81l-137 -142h-69z" />
    <glyph glyph-name="ncaron" unicode="&#x148;" horiz-adv-x="544" 
d="M403 0v313q0 81 -31.5 108t-88.5 27q-61 0 -98.5 -30t-37.5 -105v-313h-75v494h71v-77q21 46 62.5 67t95.5 21q86 0 131.5 -45.5t45.5 -146.5v-313h-75zM116 734h77l84 -107l83 107h75l-125 -165h-67z" />
    <glyph glyph-name="napostrophe" unicode="&#x149;" horiz-adv-x="544" 
d="M-7 581l10 149h73l-29 -149h-54zM403 0v313q0 81 -31.5 108t-88.5 27q-61 0 -98.5 -30t-37.5 -105v-313h-75v494h71v-77q21 46 62.5 67t95.5 21q86 0 131.5 -45.5t45.5 -146.5v-313h-75z" />
    <glyph glyph-name="Eng" unicode="&#x14a;" horiz-adv-x="657" 
d="M385 -135h52q34 0 47 15.5t13 53.5v49l-341 598v-581h-78v690h100l323 -569v569h78v-762q0 -66 -27 -97t-104 -31h-63v65z" />
    <glyph glyph-name="eng" unicode="&#x14b;" horiz-adv-x="544" 
d="M315 -140h28q34 0 47 15.5t13 44.5v393q0 81 -31.5 108t-88.5 27q-61 0 -98.5 -30t-37.5 -105v-313h-75v494h71v-77q21 46 62.5 67t95.5 21q86 0 131.5 -45.5t45.5 -146.5v-397q0 -61 -27 -88.5t-94 -27.5h-42v60z" />
    <glyph glyph-name="Omacron" unicode="&#x14c;" horiz-adv-x="691" 
d="M49 347q0 190 74 272t222 82t222.5 -82t74.5 -272t-74.5 -274t-222.5 -84t-222 84t-74 274zM561 308v81q0 128 -54 187.5t-162 59.5t-161.5 -59.5t-53.5 -187.5v-81q0 -126 53.5 -190t161.5 -64t162 64t54 190zM208 807v55h276v-55h-276z" />
    <glyph glyph-name="omacron" unicode="&#x14d;" horiz-adv-x="531" 
d="M43 247q0 140 58.5 199t164.5 59q107 0 164.5 -59t57.5 -199q0 -143 -57.5 -200.5t-164.5 -57.5q-106 0 -164.5 57.5t-58.5 200.5zM412 214v67q0 87 -38.5 127.5t-107.5 40.5t-108 -40.5t-39 -127.5v-68q0 -86 39 -127t108 -41t107.5 41t38.5 128zM126 624v54h276v-54
h-276z" />
    <glyph glyph-name="Obreve" unicode="&#x14e;" horiz-adv-x="691" 
d="M49 347q0 190 74 272t222 82t222.5 -82t74.5 -272t-74.5 -274t-222.5 -84t-222 84t-74 274zM561 308v81q0 128 -54 187.5t-162 59.5t-161.5 -59.5t-53.5 -187.5v-81q0 -126 53.5 -190t161.5 -64t162 64t54 190zM201 900h65q0 -46 19.5 -66.5t59.5 -20.5q41 0 60.5 20.5
t19.5 66.5h65q0 -69 -36.5 -106.5t-108.5 -37.5q-71 0 -107.5 37t-36.5 107z" />
    <glyph glyph-name="obreve" unicode="&#x14f;" horiz-adv-x="531" 
d="M43 247q0 140 58.5 199t164.5 59q107 0 164.5 -59t57.5 -199q0 -143 -57.5 -200.5t-164.5 -57.5q-106 0 -164.5 57.5t-58.5 200.5zM412 214v67q0 87 -38.5 127.5t-107.5 40.5t-108 -40.5t-39 -127.5v-68q0 -86 39 -127t108 -41t107.5 41t38.5 128zM122 726h65
q0 -51 19 -76t59 -25t59.5 25t19.5 76h65q0 -76 -36 -117t-108 -41q-71 0 -107 40.5t-36 117.5z" />
    <glyph glyph-name="Ohungarumlaut" unicode="&#x150;" horiz-adv-x="691" 
d="M49 347q0 190 74 272t222 82t222.5 -82t74.5 -272t-74.5 -274t-222.5 -84t-222 84t-74 274zM561 308v81q0 128 -54 187.5t-162 59.5t-161.5 -59.5t-53.5 -187.5v-81q0 -126 53.5 -190t161.5 -64t162 64t54 190zM235 758l74 142h93l-99 -142h-68zM385 758l101 142h97
l-126 -142h-72z" />
    <glyph glyph-name="ohungarumlaut" unicode="&#x151;" horiz-adv-x="531" 
d="M43 247q0 140 58.5 199t164.5 59q107 0 164.5 -59t57.5 -199q0 -143 -57.5 -200.5t-164.5 -57.5q-106 0 -164.5 57.5t-58.5 200.5zM412 214v67q0 87 -38.5 127.5t-107.5 40.5t-108 -40.5t-39 -127.5v-68q0 -86 39 -127t108 -41t107.5 41t38.5 128zM161 569l73 165h88
l-98 -165h-63zM287 569l100 165h92l-125 -165h-67z" />
    <glyph glyph-name="OE" unicode="&#x152;" horiz-adv-x="937" 
d="M49 347q0 187 76.5 265t228.5 78h536v-66h-331v-240h288v-64h-288v-254h335v-66h-540q-152 0 -228.5 79t-76.5 268zM354 65h125v563h-125q-113 0 -168.5 -58t-55.5 -181v-81q0 -124 55.5 -183.5t168.5 -59.5z" />
    <glyph glyph-name="oe" unicode="&#x153;" horiz-adv-x="877" 
d="M43 247q0 140 58.5 199t164.5 59q63 0 109.5 -21t73.5 -65q26 45 70.5 65.5t104.5 20.5q103 0 158 -57.5t55 -179.5v-23h-349v-31q0 -86 35.5 -127.5t100.5 -41.5q60 0 91 24t39 67h75q-13 -69 -63.5 -108t-141.5 -39q-60 0 -104 20.5t-70 64.5q-28 -45 -74.5 -65
t-109.5 -20q-106 0 -164.5 57.5t-58.5 200.5zM624 450q-66 0 -100 -36t-36 -119h274q-3 84 -37.5 119.5t-100.5 35.5zM412 214v67q0 87 -38.5 127.5t-107.5 40.5t-108 -40.5t-39 -127.5v-68q0 -86 39 -127t108 -41t107.5 41t38.5 128z" />
    <glyph glyph-name="Racute" unicode="&#x154;" horiz-adv-x="599" 
d="M78 690h258q105 0 156.5 -53.5t51.5 -149.5q0 -75 -30.5 -123.5t-93.5 -67.5l152 -296h-87l-147 285h-2h-178v-285h-80v690zM463 468v37q0 51 -31.5 85.5t-102.5 34.5h-171v-275h171q70 0 102 34t32 84zM241 758l107 142h99l-133 -142h-73z" />
    <glyph glyph-name="racute" unicode="&#x155;" horiz-adv-x="341" 
d="M72 494h71v-94q19 48 57 71t90 23h37v-70h-41q-68 0 -103.5 -32.5t-35.5 -107.5v-284h-75v494zM166 569l107 165h94l-133 -165h-68z" />
    <glyph glyph-name="Rcommaaccent" unicode="&#x156;" horiz-adv-x="599" 
d="M78 690h258q105 0 156.5 -53.5t51.5 -149.5q0 -75 -30.5 -123.5t-93.5 -67.5l152 -296h-87l-147 285h-2h-178v-285h-80v690zM463 468v37q0 51 -31.5 85.5t-102.5 34.5h-171v-275h171q70 0 102 34t32 84zM264 -194q25 0 34 14t9 41h-3q-22 0 -35 12t-13 35q0 24 13.5 35.5
t36.5 11.5q25 0 39 -12t14 -39v-33q0 -56 -22 -82.5t-73 -26.5v44z" />
    <glyph glyph-name="rcommaaccent" unicode="&#x157;" horiz-adv-x="341" 
d="M72 494h71v-94q19 48 57 71t90 23h37v-70h-41q-68 0 -103.5 -32.5t-35.5 -107.5v-284h-75v494zM64 -194q25 0 34 14t9 41h-3q-22 0 -35 12t-13 35q0 24 13.5 35.5t36.5 11.5q25 0 39 -12t14 -39v-33q0 -56 -22 -82.5t-73 -26.5v44z" />
    <glyph glyph-name="Rcaron" unicode="&#x158;" horiz-adv-x="599" 
d="M78 690h258q105 0 156.5 -53.5t51.5 -149.5q0 -75 -30.5 -123.5t-93.5 -67.5l152 -296h-87l-147 285h-2h-178v-285h-80v690zM463 468v37q0 51 -31.5 85.5t-102.5 34.5h-171v-275h171q70 0 102 34t32 84zM109 900h84l91 -89l89 89h81l-137 -142h-69z" />
    <glyph glyph-name="rcaron" unicode="&#x159;" horiz-adv-x="341" 
d="M72 494h71v-94q19 48 57 71t90 23h37v-70h-41q-68 0 -103.5 -32.5t-35.5 -107.5v-284h-75v494zM43 734h77l84 -107l83 107h75l-125 -165h-67z" />
    <glyph glyph-name="Sacute" unicode="&#x15a;" horiz-adv-x="569" 
d="M42 176h81q4 -72 45 -97.5t126 -25.5q76 0 114.5 30.5t38.5 97.5q0 86 -61.5 107.5t-135.5 34t-135.5 45.5t-61.5 142q0 98 59 144.5t169 46.5q107 0 167.5 -40t64.5 -135h-81q-4 66 -43.5 88.5t-107.5 22.5q-74 0 -111.5 -28.5t-37.5 -97.5q0 -81 61.5 -101.5
t135.5 -33.5t135.5 -48t61.5 -145q0 -102 -59 -148t-172 -46q-125 0 -186 40.5t-67 146.5zM244 758l107 142h99l-133 -142h-73z" />
    <glyph glyph-name="sacute" unicode="&#x15b;" horiz-adv-x="472" 
d="M36 149h75q3 -58 37 -81.5t92 -23.5q60 0 92 21t32 69q0 54 -49.5 67.5t-108.5 23.5t-108.5 35.5t-49.5 103.5q0 68 49 104.5t136 36.5q81 0 133 -35t55 -111h-75q-3 54 -34 72.5t-79 18.5q-53 0 -82 -20t-29 -65q0 -53 49 -66t108 -22.5t108 -35.5t49 -105
q0 -78 -54.5 -112.5t-140.5 -34.5q-96 0 -149 39.5t-56 120.5zM192 569l107 165h94l-133 -165h-68z" />
    <glyph glyph-name="Scircumflex" unicode="&#x15c;" horiz-adv-x="569" 
d="M42 176h81q4 -72 45 -97.5t126 -25.5q76 0 114.5 30.5t38.5 97.5q0 86 -61.5 107.5t-135.5 34t-135.5 45.5t-61.5 142q0 98 59 144.5t169 46.5q107 0 167.5 -40t64.5 -135h-81q-4 66 -43.5 88.5t-107.5 22.5q-74 0 -111.5 -28.5t-37.5 -97.5q0 -81 61.5 -101.5
t135.5 -33.5t135.5 -48t61.5 -145q0 -102 -59 -148t-172 -46q-125 0 -186 40.5t-67 146.5zM112 758l137 142h69l139 -142h-84l-90 89l-90 -89h-81z" />
    <glyph glyph-name="scircumflex" unicode="&#x15d;" horiz-adv-x="472" 
d="M36 149h75q3 -58 37 -81.5t92 -23.5q60 0 92 21t32 69q0 54 -49.5 67.5t-108.5 23.5t-108.5 35.5t-49.5 103.5q0 68 49 104.5t136 36.5q81 0 133 -35t55 -111h-75q-3 54 -34 72.5t-79 18.5q-53 0 -82 -20t-29 -65q0 -53 49 -66t108 -22.5t108 -35.5t49 -105
q0 -78 -54.5 -112.5t-140.5 -34.5q-96 0 -149 39.5t-56 120.5zM76 569l125 165h67l127 -165h-78l-84 108l-83 -108h-74z" />
    <glyph glyph-name="Scedilla" unicode="&#x15e;" horiz-adv-x="569" 
d="M42 176h81q4 -72 45 -97.5t126 -25.5q76 0 114.5 30.5t38.5 97.5q0 86 -61.5 107.5t-135.5 34t-135.5 45.5t-61.5 142q0 98 59 144.5t169 46.5q107 0 167.5 -40t64.5 -135h-81q-4 66 -43.5 88.5t-107.5 22.5q-74 0 -111.5 -28.5t-37.5 -97.5q0 -81 61.5 -101.5
t135.5 -33.5t135.5 -48t61.5 -145q0 -102 -59 -148t-172 -46q-125 0 -186 40.5t-67 146.5zM226 -201v47q66 0 82.5 7t16.5 29t-18.5 28t-68.5 7v87h54v-47q41 -4 71.5 -18t30.5 -60q0 -40 -27.5 -60t-81.5 -20h-59z" />
    <glyph glyph-name="scedilla" unicode="&#x15f;" horiz-adv-x="472" 
d="M36 149h75q3 -58 37 -81.5t92 -23.5q60 0 92 21t32 69q0 54 -49.5 67.5t-108.5 23.5t-108.5 35.5t-49.5 103.5q0 68 49 104.5t136 36.5q81 0 133 -35t55 -111h-75q-3 54 -34 72.5t-79 18.5q-53 0 -82 -20t-29 -65q0 -53 49 -66t108 -22.5t108 -35.5t49 -105
q0 -78 -54.5 -112.5t-140.5 -34.5q-96 0 -149 39.5t-56 120.5zM179 -203v47q66 0 82.5 7t16.5 29t-18.5 28t-68.5 7v87h54v-47q41 -4 71.5 -18t30.5 -60q0 -40 -27.5 -60t-81.5 -20h-59z" />
    <glyph glyph-name="Scaron" unicode="&#x160;" horiz-adv-x="569" 
d="M42 176h81q4 -72 45 -97.5t126 -25.5q76 0 114.5 30.5t38.5 97.5q0 86 -61.5 107.5t-135.5 34t-135.5 45.5t-61.5 142q0 98 59 144.5t169 46.5q107 0 167.5 -40t64.5 -135h-81q-4 66 -43.5 88.5t-107.5 22.5q-74 0 -111.5 -28.5t-37.5 -97.5q0 -81 61.5 -101.5
t135.5 -33.5t135.5 -48t61.5 -145q0 -102 -59 -148t-172 -46q-125 0 -186 40.5t-67 146.5zM111 900h84l91 -89l89 89h81l-137 -142h-69z" />
    <glyph glyph-name="scaron" unicode="&#x161;" horiz-adv-x="472" 
d="M36 149h75q3 -58 37 -81.5t92 -23.5q60 0 92 21t32 69q0 54 -49.5 67.5t-108.5 23.5t-108.5 35.5t-49.5 103.5q0 68 49 104.5t136 36.5q81 0 133 -35t55 -111h-75q-3 54 -34 72.5t-79 18.5q-53 0 -82 -20t-29 -65q0 -53 49 -66t108 -22.5t108 -35.5t49 -105
q0 -78 -54.5 -112.5t-140.5 -34.5q-96 0 -149 39.5t-56 120.5zM76 734h77l84 -107l83 107h75l-125 -165h-67z" />
    <glyph glyph-name="Tcedilla" unicode="&#x162;" horiz-adv-x="531" 
d="M225 624h-212v66h504v-66h-212v-624h-80v624zM222 -194q25 0 34 14t9 41h-3q-22 0 -35 12t-13 35q0 24 13.5 35.5t36.5 11.5q25 0 39 -12t14 -39v-33q0 -56 -22 -82.5t-73 -26.5v44z" />
    <glyph glyph-name="tcedilla" unicode="&#x163;" horiz-adv-x="303" 
d="M83 117v318h-64v59h64v159h75v-159h123v-59h-123v-313q0 -32 14.5 -47t46.5 -15h62v-60h-74q-68 0 -96 27t-28 90zM142 -194q25 0 34 14t9 41h-3q-22 0 -35 12t-13 35q0 24 13.5 35.5t36.5 11.5q25 0 39 -12t14 -39v-33q0 -56 -22 -82.5t-73 -26.5v44z" />
    <glyph glyph-name="Tcaron" unicode="&#x164;" horiz-adv-x="531" 
d="M225 624h-212v66h504v-66h-212v-624h-80v624zM93 900h84l91 -89l89 89h81l-137 -142h-69z" />
    <glyph glyph-name="tcaron" unicode="&#x165;" horiz-adv-x="303" 
d="M83 117v318h-64v59h64v159h75v-159h123v-59h-123v-313q0 -32 14.5 -47t46.5 -15h62v-60h-74q-68 0 -96 27t-28 90zM231 581l10 149h73l-29 -149h-54z" />
    <glyph glyph-name="Tbar" unicode="&#x166;" horiz-adv-x="531" 
d="M67 317v63h158v244h-212v66h504v-66h-212v-244h159v-63h-159v-317h-80v317h-158z" />
    <glyph glyph-name="tbar" unicode="&#x167;" horiz-adv-x="316" 
d="M90 117v126h-64v53h64v139h-64v59h64v159h75v-159h123v-59h-123v-139h123v-53h-123v-121q0 -32 14.5 -47t46.5 -15h62v-60h-74q-68 0 -96 27t-28 90z" />
    <glyph glyph-name="Utilde" unicode="&#x168;" horiz-adv-x="631" 
d="M73 236v454h80v-454q0 -99 42 -141t124 -42q83 0 125 42t42 141v454h72v-454q0 -118 -56 -182.5t-183 -64.5q-129 0 -187.5 64.5t-58.5 182.5zM260 892q27 0 45 -11t31.5 -24.5t25 -24.5t24.5 -11q19 0 26.5 20.5t7.5 50.5h55q0 -58 -19.5 -92.5t-64.5 -34.5
q-27 0 -45 11.5t-32 24.5t-25.5 24.5t-24.5 11.5q-19 0 -26.5 -20t-7.5 -51h-54q0 58 19.5 92t64.5 34z" />
    <glyph glyph-name="utilde" unicode="&#x169;" horiz-adv-x="544" 
d="M66 181v313h75v-313q0 -81 31.5 -108t88.5 -27q60 0 98 30t38 105v313h75v-494h-74v69q-21 -42 -61 -61t-94 -19q-86 0 -131.5 45t-45.5 147zM206 727q28 0 46 -14.5t31 -32t24 -32t24 -14.5q19 0 26.5 26.5t7.5 65.5h54q0 -69 -20 -109t-65 -40q-28 0 -46 14.5t-31.5 32
t-24 32t-23.5 14.5q-19 0 -26.5 -26.5t-7.5 -66.5h-54q0 69 19.5 109.5t65.5 40.5z" />
    <glyph glyph-name="Umacron" unicode="&#x16a;" horiz-adv-x="631" 
d="M73 236v454h80v-454q0 -99 42 -141t124 -42q83 0 125 42t42 141v454h72v-454q0 -118 -56 -182.5t-183 -64.5q-129 0 -187.5 64.5t-58.5 182.5zM184 807v55h276v-55h-276z" />
    <glyph glyph-name="umacron" unicode="&#x16b;" horiz-adv-x="544" 
d="M66 181v313h75v-313q0 -81 31.5 -108t88.5 -27q60 0 98 30t38 105v313h75v-494h-74v69q-21 -42 -61 -61t-94 -19q-86 0 -131.5 45t-45.5 147zM132 624v54h276v-54h-276z" />
    <glyph glyph-name="Ubreve" unicode="&#x16c;" horiz-adv-x="631" 
d="M73 236v454h80v-454q0 -99 42 -141t124 -42q83 0 125 42t42 141v454h72v-454q0 -118 -56 -182.5t-183 -64.5q-129 0 -187.5 64.5t-58.5 182.5zM179 900h65q0 -46 19.5 -66.5t59.5 -20.5q41 0 60.5 20.5t19.5 66.5h65q0 -69 -36.5 -106.5t-108.5 -37.5q-71 0 -107.5 37
t-36.5 107z" />
    <glyph glyph-name="ubreve" unicode="&#x16d;" horiz-adv-x="544" 
d="M66 181v313h75v-313q0 -81 31.5 -108t88.5 -27q60 0 98 30t38 105v313h75v-494h-74v69q-21 -42 -61 -61t-94 -19q-86 0 -131.5 45t-45.5 147zM126 726h65q0 -51 19 -76t59 -25t59.5 25t19.5 76h65q0 -76 -36 -117t-108 -41q-71 0 -107 40.5t-36 117.5z" />
    <glyph glyph-name="Uring" unicode="&#x16e;" horiz-adv-x="631" 
d="M73 236v454h80v-454q0 -99 42 -141t124 -42q83 0 125 42t42 141v454h72v-454q0 -118 -56 -182.5t-183 -64.5q-129 0 -187.5 64.5t-58.5 182.5zM200 833q0 42 30 63.5t93 21.5q64 0 94 -21.5t30 -63.5q0 -43 -30.5 -64.5t-93.5 -21.5t-93 21.5t-30 64.5zM324 793
q40 0 53.5 10.5t13.5 29.5t-13.5 29t-53.5 10q-41 0 -54.5 -10t-13.5 -29t13.5 -29.5t54.5 -10.5z" />
    <glyph glyph-name="uring" unicode="&#x16f;" horiz-adv-x="544" 
d="M66 181v313h75v-313q0 -81 31.5 -108t88.5 -27q60 0 98 30t38 105v313h75v-494h-74v69q-21 -42 -61 -61t-94 -19q-86 0 -131.5 45t-45.5 147zM164 651q0 43 27 67t78 24q52 0 79 -24t27 -67t-27 -66.5t-79 -23.5q-51 0 -78 23.5t-27 66.5zM321 651q0 22 -12.5 34.5
t-38.5 12.5q-28 0 -40 -12.5t-12 -34.5t12 -34t40 -12q26 0 38.5 12t12.5 34z" />
    <glyph glyph-name="Uhungarumlaut" unicode="&#x170;" horiz-adv-x="631" 
d="M73 236v454h80v-454q0 -99 42 -141t124 -42q83 0 125 42t42 141v454h72v-454q0 -118 -56 -182.5t-183 -64.5q-129 0 -187.5 64.5t-58.5 182.5zM202 758l74 142h93l-99 -142h-68zM352 758l101 142h97l-126 -142h-72z" />
    <glyph glyph-name="uhungarumlaut" unicode="&#x171;" horiz-adv-x="544" 
d="M66 181v313h75v-313q0 -81 31.5 -108t88.5 -27q60 0 98 30t38 105v313h75v-494h-74v69q-21 -42 -61 -61t-94 -19q-86 0 -131.5 45t-45.5 147zM167 569l73 165h88l-98 -165h-63zM293 569l100 165h92l-125 -165h-67z" />
    <glyph glyph-name="Uogonek" unicode="&#x172;" horiz-adv-x="631" 
d="M73 236v454h80v-454q0 -99 42 -141t124 -42q83 0 125 42t42 141v454h72v-454q0 -92 -33.5 -152t-106.5 -82v0q-40 -16 -57.5 -35t-17.5 -47t22.5 -41.5t73.5 -13.5v-54h-29q-60 0 -96 24t-36 73q0 27 12.5 47.5t32.5 33.5h-4q-129 0 -187.5 64.5t-58.5 182.5z" />
    <glyph glyph-name="uogonek" unicode="&#x173;" horiz-adv-x="544" 
d="M66 181v313h75v-313q0 -81 31.5 -108t88.5 -27q60 0 98 30t38 105v313h75v-494h-14q-37 -10 -53 -30.5t-16 -47.5q0 -28 22.5 -42.5t73.5 -14.5v-54h-29q-60 0 -96 24t-36 72q0 37 21.5 61.5t52.5 31.5v69q-21 -42 -61 -61t-94 -19q-86 0 -131.5 45t-45.5 147z" />
    <glyph glyph-name="Wcircumflex" unicode="&#x174;" horiz-adv-x="837" 
d="M25 690h81l119 -613l150 613h101l143 -605l128 605h71l-147 -690h-107l-143 603l-148 -603h-114zM250 758l137 142h69l139 -142h-84l-90 89l-90 -89h-81z" />
    <glyph glyph-name="wcircumflex" unicode="&#x175;" horiz-adv-x="721" 
d="M152 0l-137 494h72l119 -434l113 434h90l112 -431l120 431h66l-140 -494h-96l-111 429l-112 -429h-96zM202 569l125 165h67l127 -165h-78l-84 108l-83 -108h-74z" />
    <glyph glyph-name="Ycircumflex" unicode="&#x176;" horiz-adv-x="579" 
d="M251 308l-245 382h86l203 -318l200 318h77l-241 -382v-308h-80v308zM118 758l137 142h69l139 -142h-84l-90 89l-90 -89h-81z" />
    <glyph glyph-name="ycircumflex" unicode="&#x177;" horiz-adv-x="471" 
d="M41 -141h37q48 0 70 17t40 68l14 38l-192 512h79l151 -410l150 410h70l-209 -564q-28 -75 -62 -102.5t-103 -27.5h-45v59zM77 569l125 165h67l127 -165h-78l-84 108l-83 -108h-74z" />
    <glyph glyph-name="Ydieresis" unicode="&#x178;" horiz-adv-x="579" 
d="M251 308l-245 382h86l203 -318l200 318h77l-241 -382v-308h-80v308zM138 826q0 24 13 36.5t37 12.5q25 0 38 -12.5t13 -36.5q0 -25 -13 -37t-38 -12q-24 0 -37 12t-13 37zM340 826q0 24 13 36.5t37 12.5t37 -12.5t13 -36.5q0 -25 -13 -37t-37 -12t-37 12t-13 37z" />
    <glyph glyph-name="Zacute" unicode="&#x179;" horiz-adv-x="528" 
d="M34 67l376 557h-376v66h459v-66l-376 -557h376v-67h-459v67zM221 758l107 142h99l-133 -142h-73z" />
    <glyph glyph-name="zacute" unicode="&#x17a;" horiz-adv-x="449" 
d="M34 60l292 375h-287v59h367v-59l-292 -375h309v-60h-389v60zM180 569l107 165h94l-133 -165h-68z" />
    <glyph glyph-name="Zdotaccent" unicode="&#x17b;" horiz-adv-x="528" 
d="M34 67l376 557h-376v66h459v-66l-376 -557h376v-67h-459v67zM210 828q0 24 14.5 36.5t40.5 12.5q28 0 42.5 -12.5t14.5 -36.5q0 -25 -14.5 -37.5t-42.5 -12.5q-26 0 -40.5 12.5t-14.5 37.5z" />
    <glyph glyph-name="zdotaccent" unicode="&#x17c;" horiz-adv-x="449" 
d="M34 60l292 375h-287v59h367v-59l-292 -375h309v-60h-389v60zM178 658q0 24 13 36.5t38 12.5t38.5 -12.5t13.5 -36.5q0 -25 -13.5 -37.5t-38.5 -12.5t-38 12.5t-13 37.5z" />
    <glyph glyph-name="Zcaron" unicode="&#x17d;" horiz-adv-x="528" 
d="M34 67l376 557h-376v66h459v-66l-376 -557h376v-67h-459v67zM93 900h84l91 -89l89 89h81l-137 -142h-69z" />
    <glyph glyph-name="zcaron" unicode="&#x17e;" horiz-adv-x="449" 
d="M34 60l292 375h-287v59h367v-59l-292 -375h309v-60h-389v60zM70 734h77l84 -107l83 107h75l-125 -165h-67z" />
    <glyph glyph-name="florin" unicode="&#x192;" horiz-adv-x="600" 
d="M-8 -140h54q54 0 79.5 26t45.5 90l110 357h-136v60h154l54 174q25 79 58.5 121t94.5 42h98v-60h-90q-34 0 -54 -23.5t-36 -74.5l-55 -179h151v-60h-169l-111 -363q-13 -41 -27 -73t-35 -53.5t-53 -32.5t-81 -11h-52v60z" />
    <glyph glyph-name="Aringacute" unicode="&#x1fa;" horiz-adv-x="604" 
d="M244 690h117l233 -690h-82l-67 199h-295l-67 -199h-72zM171 262h253l-126 376zM178 808q0 42 30 63.5t93 21.5q64 0 94 -21.5t30 -63.5q0 -43 -30.5 -64.5t-93.5 -21.5t-93 21.5t-30 64.5zM302 768q40 0 53.5 10.5t13.5 29.5t-13.5 29t-53.5 10q-41 0 -54.5 -10
t-13.5 -29t13.5 -29.5t54.5 -10.5zM264 914l107 142h99l-133 -142h-73z" />
    <glyph glyph-name="aringacute" unicode="&#x1fb;" horiz-adv-x="519" 
d="M41 131q0 68 40.5 104.5t144.5 44.5l152 14v15q0 75 -30.5 108t-94.5 33q-47 0 -78 -19t-41 -69h-77q11 72 60.5 107.5t136.5 35.5q100 0 149.5 -46.5t49.5 -149.5v-309h-72v81q-25 -43 -71.5 -67.5t-109.5 -24.5q-78 0 -118.5 37t-40.5 105zM117 126q0 -40 24.5 -61
t73.5 -21q31 0 60.5 8.5t52.5 28t36.5 50.5t13.5 76v36l-144 -13q-61 -6 -89 -25.5t-28 -63.5v-15zM213 781l107 142h99l-133 -142h-73zM148 643q0 43 27 67t78 24q52 0 79 -24t27 -67t-27 -66.5t-79 -23.5q-51 0 -78 23.5t-27 66.5zM305 643q0 22 -12.5 34.5t-38.5 12.5
q-28 0 -40 -12.5t-12 -34.5t12 -34t40 -12q26 0 38.5 12t12.5 34z" />
    <glyph glyph-name="AEacute" unicode="&#x1fc;" horiz-adv-x="912" 
d="M415 690h450v-66h-331v-240h288v-64h-288v-254h335v-66h-414v219h-253l-136 -219h-82zM243 284h212v342zM592 758l107 142h99l-133 -142h-73z" />
    <glyph glyph-name="aeacute" unicode="&#x1fd;" horiz-adv-x="849" 
d="M41 134q0 72 41 114t148 42h156v19q0 75 -31 108t-97 33q-49 0 -81.5 -19t-42.5 -69h-77q11 72 61.5 107.5t138.5 35.5q67 0 110.5 -22.5t63.5 -68.5q24 47 66.5 69t101.5 22q101 0 155.5 -58t54.5 -183v-24h-349v-26q0 -86 35.5 -127.5t100.5 -41.5q60 0 91 24t39 67h75
q-13 -69 -63.5 -108t-141.5 -39q-68 0 -113.5 29.5t-65.5 94.5q-21 -58 -74 -91t-131 -33q-84 0 -127.5 37.5t-43.5 107.5zM596 450q-68 0 -102 -37.5t-34 -121.5h274q-3 86 -37.5 122.5t-100.5 36.5zM223 44q31 0 60.5 8.5t52.5 27.5t36.5 49.5t13.5 74.5v36h-148
q-66 0 -93.5 -24.5t-27.5 -72.5v-15q0 -40 27 -62t79 -22zM400 569l107 165h94l-133 -165h-68z" />
    <glyph glyph-name="Oslashacute" unicode="&#x1fe;" horiz-adv-x="691" 
d="M50 347q0 190 74 272t222 82q51 0 93 -9t76 -28l48 71h77l-75 -111q39 -43 58.5 -111t19.5 -166q0 -190 -74.5 -274t-222.5 -84q-54 0 -99 11t-79 33l-49 -73h-77l78 117q-35 43 -52.5 110t-17.5 160zM131 308q0 -51 8.5 -92t26.5 -72l309 461q-25 16 -57 23.5t-72 7.5
q-108 0 -161.5 -59.5t-53.5 -187.5v-81zM562 308v81q0 55 -10 97.5t-30 72.5l-313 -465q25 -20 59.5 -30t77.5 -10q108 0 162 64t54 190zM295 759l107 142h99l-133 -142h-73z" />
    <glyph glyph-name="oslashacute" unicode="&#x1ff;" horiz-adv-x="531" 
d="M43 247q0 140 58.5 199t164.5 59q28 0 53.5 -4t47.5 -12l35 63h63l-51 -90q37 -30 55.5 -83t18.5 -132q0 -143 -57.5 -200.5t-164.5 -57.5q-31 0 -58 4t-49 14l-29 -52h-63l45 80q-34 30 -51.5 82t-17.5 130zM117 213q0 -37 7.5 -66.5t22.5 -49.5l190 339q-15 7 -33 10
t-38 3q-71 0 -110 -40.5t-39 -127.5v-68zM414 214v67q0 40 -8.5 70.5t-24.5 50.5l-192 -341q16 -8 35.5 -12t41.5 -4q70 0 109 41t39 128zM219 569l107 165h94l-133 -165h-68z" />
    <glyph glyph-name="Scommaaccent" unicode="&#x218;" horiz-adv-x="569" 
d="M42 176h81q4 -72 45 -97.5t126 -25.5q76 0 114.5 30.5t38.5 97.5q0 86 -61.5 107.5t-135.5 34t-135.5 45.5t-61.5 142q0 98 59 144.5t169 46.5q107 0 167.5 -40t64.5 -135h-81q-4 66 -43.5 88.5t-107.5 22.5q-74 0 -111.5 -28.5t-37.5 -97.5q0 -81 61.5 -101.5
t135.5 -33.5t135.5 -48t61.5 -145q0 -102 -59 -148t-172 -46q-125 0 -186 40.5t-67 146.5zM242 -194q25 0 34 14t9 41h-3q-22 0 -35 12t-13 35q0 24 13.5 35.5t36.5 11.5q25 0 39 -12t14 -39v-33q0 -56 -22 -82.5t-73 -26.5v44z" />
    <glyph glyph-name="scommaaccent" unicode="&#x219;" horiz-adv-x="472" 
d="M36 149h75q3 -58 37 -81.5t92 -23.5q60 0 92 21t32 69q0 54 -49.5 67.5t-108.5 23.5t-108.5 35.5t-49.5 103.5q0 68 49 104.5t136 36.5q81 0 133 -35t55 -111h-75q-3 54 -34 72.5t-79 18.5q-53 0 -82 -20t-29 -65q0 -53 49 -66t108 -22.5t108 -35.5t49 -105
q0 -78 -54.5 -112.5t-140.5 -34.5q-96 0 -149 39.5t-56 120.5zM192 -194q25 0 34 14t9 41h-3q-22 0 -35 12t-13 35q0 24 13.5 35.5t36.5 11.5q25 0 39 -12t14 -39v-33q0 -56 -22 -82.5t-73 -26.5v44z" />
    <glyph glyph-name="Tcommaaccent" unicode="&#x21a;" horiz-adv-x="531" 
d="M225 624h-212v66h504v-66h-212v-624h-80v624zM222 -194q25 0 34 14t9 41h-3q-22 0 -35 12t-13 35q0 24 13.5 35.5t36.5 11.5q25 0 39 -12t14 -39v-33q0 -56 -22 -82.5t-73 -26.5v44z" />
    <glyph glyph-name="tcommaaccent" unicode="&#x21b;" horiz-adv-x="303" 
d="M83 117v318h-64v59h64v159h75v-159h123v-59h-123v-313q0 -32 14.5 -47t46.5 -15h62v-60h-74q-68 0 -96 27t-28 90zM142 -194q25 0 34 14t9 41h-3q-22 0 -35 12t-13 35q0 24 13.5 35.5t36.5 11.5q25 0 39 -12t14 -39v-33q0 -56 -22 -82.5t-73 -26.5v44z" />
    <glyph glyph-name="uni02BC" unicode="&#x2bc;" horiz-adv-x="201" 
d="M59 523q25 0 34.5 15.5t9.5 45.5v17h-3q-23 0 -36 13t-13 37q0 25 13.5 37.5t37.5 12.5t38 -12t14 -39v-60q0 -59 -22 -86t-73 -27v46z" />
    <glyph glyph-name="circumflex" unicode="&#x2c6;" horiz-adv-x="329" 
d="M5 569l125 165h67l127 -165h-78l-84 108l-83 -108h-74z" />
    <glyph glyph-name="caron" unicode="&#x2c7;" horiz-adv-x="329" 
d="M5 734h77l84 -107l83 107h75l-125 -165h-67z" />
    <glyph glyph-name="breve" unicode="&#x2d8;" horiz-adv-x="307" 
d="M10 726h65q0 -51 19 -76t59 -25t59.5 25t19.5 76h65q0 -76 -36 -117t-108 -41q-71 0 -107 40.5t-36 117.5z" />
    <glyph glyph-name="dotaccent" unicode="&#x2d9;" horiz-adv-x="277" 
d="M87 657q0 24 13 36.5t38 12.5t38.5 -12.5t13.5 -36.5q0 -25 -13.5 -37.5t-38.5 -12.5t-38 12.5t-13 37.5z" />
    <glyph glyph-name="ring" unicode="&#x2da;" horiz-adv-x="233" 
d="M11 651q0 43 27 67t78 24q52 0 79 -24t27 -67t-27 -66.5t-79 -23.5q-51 0 -78 23.5t-27 66.5zM168 651q0 22 -12.5 34.5t-38.5 12.5q-28 0 -40 -12.5t-12 -34.5t12 -34t40 -12q26 0 38.5 12t12.5 34z" />
    <glyph glyph-name="ogonek" unicode="&#x2db;" horiz-adv-x="295" 
d="M233 -189q-60 0 -96 24t-36 72q0 37 21.5 62t54.5 32l58 -1q-37 -11 -53 -31.5t-16 -46.5q0 -28 22.5 -42.5t73.5 -14.5v-54h-29z" />
    <glyph glyph-name="tilde" unicode="&#x2dc;" horiz-adv-x="318" 
d="M95 727q28 0 46 -14.5t31 -32t24 -32t24 -14.5q19 0 26.5 26.5t7.5 65.5h54q0 -69 -20 -109t-65 -40q-28 0 -46 14.5t-31.5 32t-24 32t-23.5 14.5q-19 0 -26.5 -26.5t-7.5 -66.5h-54q0 69 19.5 109.5t65.5 40.5z" />
    <glyph glyph-name="hungarumlaut" unicode="&#x2dd;" horiz-adv-x="328" 
d="M5 569l73 165h88l-98 -165h-63zM131 569l100 165h92l-125 -165h-67z" />
    <glyph glyph-name="afii10023" unicode="&#x401;" horiz-adv-x="536" 
d="M78 690h411v-66h-331v-240h288v-64h-288v-254h335v-66h-415v690zM134 826q0 24 13 36.5t37 12.5q25 0 38 -12.5t13 -36.5q0 -25 -13 -37t-38 -12q-24 0 -37 12t-13 37zM336 826q0 24 13 36.5t37 12.5t37 -12.5t13 -36.5q0 -25 -13 -37t-37 -12t-37 12t-13 37z" />
    <glyph glyph-name="afii10051" unicode="&#x402;" horiz-adv-x="701" 
d="M447 -135h49q45 0 63 35t18 123v159q0 82 -46 116.5t-130 34.5q-24 0 -55 -2.5t-60 -6.5v-324h-80v624h-192v66h504v-66h-232v-234q28 4 61 6t56 2q73 0 122 -15t78 -44.5t41.5 -75t12.5 -105.5v-122q0 -115 -32.5 -175.5t-101.5 -60.5h-76v65z" />
    <glyph glyph-name="afii10052" unicode="&#x403;" horiz-adv-x="481" 
d="M209 758l107 142h99l-133 -142h-73zM78 690h389v-66h-309v-624h-80v690z" />
    <glyph glyph-name="afii10053" unicode="&#x404;" horiz-adv-x="613" 
d="M49 346q0 189 72 272t203 83q119 0 180.5 -49t72.5 -156h-80q-10 81 -51.5 110.5t-121.5 29.5q-90 0 -142 -59t-52 -187v-7h274v-63h-274v-14q0 -125 52 -188.5t143 -63.5q77 0 119 28t54 106h80q-13 -105 -75 -152t-179 -47q-131 0 -203 83.5t-72 273.5z" />
    <glyph glyph-name="afii10054" unicode="&#x405;" horiz-adv-x="569" 
d="M42 176h81q4 -72 45 -97.5t126 -25.5q76 0 114.5 30.5t38.5 97.5q0 86 -61.5 107.5t-135.5 34t-135.5 45.5t-61.5 142q0 98 59 144.5t169 46.5q107 0 167.5 -40t64.5 -135h-81q-4 66 -43.5 88.5t-107.5 22.5q-74 0 -111.5 -28.5t-37.5 -97.5q0 -81 61.5 -101.5
t135.5 -33.5t135.5 -48t61.5 -145q0 -102 -59 -148t-172 -46q-125 0 -186 40.5t-67 146.5z" />
    <glyph glyph-name="afii10055" unicode="&#x406;" horiz-adv-x="237" 
d="M78 690h80v-690h-80v690z" />
    <glyph glyph-name="afii10056" unicode="&#x407;" horiz-adv-x="237" 
d="M13 826q0 24 12 36.5t34 12.5q23 0 35 -12.5t12 -36.5q0 -25 -12 -37.5t-35 -12.5q-22 0 -34 12.5t-12 37.5zM130 826q0 24 12 36.5t35 12.5q22 0 34.5 -12.5t12.5 -36.5q0 -25 -12.5 -37.5t-34.5 -12.5q-23 0 -35 12.5t-12 37.5zM78 690h80v-690h-80v690z" />
    <glyph glyph-name="afii10057" unicode="&#x408;" horiz-adv-x="282" 
d="M13 65h48q36 0 50.5 17.5t14.5 59.5v548h80v-562q0 -66 -27 -97t-103 -31h-63v65z" />
    <glyph glyph-name="afii10058" unicode="&#x409;" horiz-adv-x="944" 
d="M13 73h14q34 0 55.5 16.5t33.5 54t16 100.5t4 154v292h393v-265h166q112 0 165 -56.5t53 -154.5q0 -99 -53 -156.5t-165 -57.5h-246v624h-240v-226q0 -113 -7.5 -190t-27 -123t-54 -65.5t-88.5 -19.5h-19v73zM832 194v39q0 51 -32.5 88.5t-113.5 37.5h-157v-293h157
q81 0 113.5 37t32.5 91z" />
    <glyph glyph-name="afii10059" unicode="&#x40a;" horiz-adv-x="957" 
d="M78 690h80v-295h304v295h80v-295h168q112 0 165 -51.5t53 -141.5q0 -93 -53 -147.5t-165 -54.5h-248v329h-304v-329h-80v690zM847 181v37q0 46 -32.5 79t-113.5 33h-159v-265h159q81 0 113.5 34t32.5 82z" />
    <glyph glyph-name="afii10060" unicode="&#x40b;" horiz-adv-x="701" 
d="M576 182q0 91 -44 121t-131 30q-24 0 -55 -2.5t-60 -6.5v-324h-80v624h-192v66h504v-66h-232v-234q28 4 61 6t56 2q125 0 189 -45.5t64 -165.5v-189h-80v184z" />
    <glyph glyph-name="afii10061" unicode="&#x40c;" horiz-adv-x="567" 
d="M246 758l107 142h99l-133 -142h-73zM78 690h80v-310h75l231 310h86l-251 -337l270 -353h-96l-240 314h-75v-314h-80v690z" />
    <glyph glyph-name="afii10062" unicode="&#x40e;" horiz-adv-x="548" 
d="M165 0l80 183l-236 507h83l193 -418l183 418h74l-303 -690h-74zM137 897h71q0 -48 18 -69t57 -21t57 21t18 69h72q0 -69 -37 -106t-110 -37q-72 0 -109 37t-37 106z" />
    <glyph glyph-name="afii10145" unicode="&#x40f;" horiz-adv-x="635" 
d="M280 -150v150h-202v690h80v-623h318v623h80v-690h-201v-150h-75z" />
    <glyph glyph-name="afii10017" unicode="&#x410;" horiz-adv-x="604" 
d="M244 690h117l233 -690h-82l-67 199h-295l-67 -199h-72zM171 262h253l-126 376z" />
    <glyph glyph-name="afii10018" unicode="&#x411;" horiz-adv-x="578" 
d="M78 690h419v-66h-340v-224h171q109 0 162 -52t53 -145q0 -95 -53 -149t-162 -54h-250v690zM461 183v38q0 49 -33.5 83t-110.5 34h-160v-274h160q77 0 110.5 33.5t33.5 85.5z" />
    <glyph glyph-name="afii10019" unicode="&#x412;" horiz-adv-x="591" 
d="M78 690h264q87 0 135.5 -42t48.5 -128q0 -60 -26.5 -104t-81.5 -61q60 -13 92.5 -54t32.5 -110q0 -93 -49 -142t-143 -49h-273v690zM446 492v36q0 47 -28.5 74t-84.5 27h-176v-248h176q55 0 84 29.5t29 81.5zM463 166v47q0 51 -32 80t-96 29h-178v-261h178q62 0 95 27.5
t33 77.5z" />
    <glyph glyph-name="afii10020" unicode="&#x413;" horiz-adv-x="481" 
d="M78 690h389v-66h-309v-624h-80v690z" />
    <glyph glyph-name="afii10021" unicode="&#x414;" horiz-adv-x="684" 
d="M13 -150v217h63q26 41 48.5 124.5t22.5 236.5v262h433v-623h82v-217h-74v150h-501v-150h-74zM501 624h-281v-196q0 -154 -19.5 -237t-41.5 -124h342v557z" />
    <glyph glyph-name="afii10022" unicode="&#x415;" horiz-adv-x="536" 
d="M78 690h411v-66h-331v-240h288v-64h-288v-254h335v-66h-415v690z" />
    <glyph glyph-name="afii10024" unicode="&#x416;" horiz-adv-x="851" 
d="M384 690h80v-311h45l245 311h84l-266 -338l275 -352h-93l-245 313h-45v-313h-80v313h-44l-245 -313h-91l273 349l-270 341h88l245 -311h44v311z" />
    <glyph glyph-name="afii10025" unicode="&#x417;" horiz-adv-x="567" 
d="M39 184h81q0 -72 45 -101.5t120 -29.5q78 0 117 30.5t39 84.5v40q0 52 -33 82.5t-102 30.5h-109v62h109q57 0 85.5 30t28.5 80v35q0 54 -34.5 81.5t-106.5 27.5q-58 0 -102.5 -24t-46.5 -96h-81q3 99 67.5 141.5t162.5 42.5q106 0 164 -44.5t58 -137.5q0 -60 -29.5 -104
t-86.5 -57q63 -10 100 -51t37 -113q0 -101 -58.5 -153t-178.5 -52q-112 0 -177 44.5t-69 150.5z" />
    <glyph glyph-name="afii10026" unicode="&#x418;" horiz-adv-x="657" 
d="M498 577l-331 -577h-89v690h80v-577l332 577h88v-690h-80v577z" />
    <glyph glyph-name="afii10027" unicode="&#x419;" horiz-adv-x="657" 
d="M498 577l-331 -577h-89v690h80v-577l332 577h88v-690h-80v577zM182 897h71q0 -48 18 -69t57 -21t57 21t18 69h72q0 -69 -37 -106t-110 -37q-72 0 -109 37t-37 106z" />
    <glyph glyph-name="afii10028" unicode="&#x41a;" horiz-adv-x="567" 
d="M78 690h80v-310h75l231 310h86l-251 -337l270 -353h-96l-240 314h-75v-314h-80v690z" />
    <glyph glyph-name="afii10029" unicode="&#x41b;" horiz-adv-x="635" 
d="M13 73h14q34 0 55.5 16.5t33.5 54t16 100.5t4 154v292h421v-690h-80v624h-268v-226q0 -113 -7.5 -190t-27 -123t-54 -65.5t-88.5 -19.5h-19v73z" />
    <glyph glyph-name="afii10030" unicode="&#x41c;" horiz-adv-x="807" 
d="M359 105l-208 520v-625h-73v690h121l204 -507l206 507h119v-690h-80v621l-210 -516h-79z" />
    <glyph glyph-name="afii10031" unicode="&#x41d;" horiz-adv-x="645" 
d="M78 690h80v-305h328v305h80v-690h-80v318h-328v-318h-80v690z" />
    <glyph glyph-name="afii10032" unicode="&#x41e;" horiz-adv-x="691" 
d="M49 347q0 190 74 272t222 82t222.5 -82t74.5 -272t-74.5 -274t-222.5 -84t-222 84t-74 274zM561 308v81q0 128 -54 187.5t-162 59.5t-161.5 -59.5t-53.5 -187.5v-81q0 -126 53.5 -190t161.5 -64t162 64t54 190z" />
    <glyph glyph-name="afii10033" unicode="&#x41f;" horiz-adv-x="635" 
d="M78 690h478v-690h-80v624h-318v-624h-80v690z" />
    <glyph glyph-name="afii10034" unicode="&#x420;" horiz-adv-x="575" 
d="M78 690h262q106 0 155.5 -55t49.5 -151t-49.5 -149t-155.5 -53h-182v-282h-80v690zM464 465v39q0 51 -31.5 85.5t-101.5 34.5h-173v-276h173q69 0 101 33.5t32 83.5z" />
    <glyph glyph-name="afii10035" unicode="&#x421;" horiz-adv-x="614" 
d="M49 346q0 189 72 272t203 83q119 0 180.5 -49t72.5 -156h-80q-10 81 -51.5 110.5t-121.5 29.5q-90 0 -142 -59t-52 -187v-84q0 -125 52 -188.5t143 -63.5q77 0 119 28t54 106h80q-13 -105 -75 -152t-179 -47q-131 0 -203 83.5t-72 273.5z" />
    <glyph glyph-name="afii10036" unicode="&#x422;" horiz-adv-x="531" 
d="M225 624h-212v66h504v-66h-212v-624h-80v624z" />
    <glyph glyph-name="afii10037" unicode="&#x423;" horiz-adv-x="548" 
d="M165 0l80 183l-236 507h83l193 -418l183 418h74l-303 -690h-74z" />
    <glyph glyph-name="afii10038" unicode="&#x424;" horiz-adv-x="803" 
d="M362 100q-163 1 -242 63t-79 197q0 140 79 199.5t242 60.5v81h80v-81q163 -1 241.5 -60.5t78.5 -199.5q0 -135 -78.5 -197t-241.5 -63v-111h-80v111zM362 556q-133 0 -186.5 -42.5t-53.5 -132.5v-46q0 -88 51.5 -129.5t188.5 -42.5v393zM681 335v46q0 90 -52.5 132.5
t-186.5 42.5v-393q136 1 187.5 42.5t51.5 129.5z" />
    <glyph glyph-name="afii10039" unicode="&#x425;" horiz-adv-x="574" 
d="M482 0l-198 296l-198 -296h-80l235 350l-227 340h88l188 -281l188 281h80l-226 -334l238 -356h-88z" />
    <glyph glyph-name="afii10040" unicode="&#x426;" horiz-adv-x="659" 
d="M564 -150v150h-485v690h80v-624h318v624h80v-623h81v-217h-74z" />
    <glyph glyph-name="afii10041" unicode="&#x427;" horiz-adv-x="597" 
d="M439 288q-32 -4 -69 -6.5t-63 -2.5q-131 0 -196 46t-65 166v199h80v-194q0 -91 46 -121t139 -30q27 0 61 2.5t67 6.5v336h80v-690h-80v288z" />
    <glyph glyph-name="afii10042" unicode="&#x428;" horiz-adv-x="903" 
d="M78 690h80v-623h254v623h80v-623h253v623h80v-690h-747v690z" />
    <glyph glyph-name="afii10043" unicode="&#x429;" horiz-adv-x="928" 
d="M78 690h80v-623h254v623h80v-623h253v623h80v-623h81v-217h-74v150h-754v690z" />
    <glyph glyph-name="afii10044" unicode="&#x42a;" horiz-adv-x="673" 
d="M15 690h241v-66h-1v-199h169q111 0 164.5 -56.5t53.5 -154.5q0 -99 -53.5 -156.5t-164.5 -57.5h-249v624h-160v66zM561 194v39q0 51 -32.5 88.5t-114.5 37.5h-159v-293h159q82 0 114.5 37t32.5 91z" />
    <glyph glyph-name="afii10045" unicode="&#x42b;" horiz-adv-x="799" 
d="M78 690h80v-265h169q111 0 164.5 -56.5t53.5 -154.5q0 -99 -53.5 -156.5t-164.5 -57.5h-249v690zM464 194v39q0 51 -32.5 88.5t-114.5 37.5h-159v-293h159q82 0 114.5 37t32.5 91zM640 690h80v-690h-80v690z" />
    <glyph glyph-name="afii10046" unicode="&#x42c;" horiz-adv-x="576" 
d="M78 690h80v-265h169q111 0 164.5 -56.5t53.5 -154.5q0 -99 -53.5 -156.5t-164.5 -57.5h-249v690zM464 194v39q0 51 -32.5 88.5t-114.5 37.5h-159v-293h159q82 0 114.5 37t32.5 91z" />
    <glyph glyph-name="afii10047" unicode="&#x42d;" horiz-adv-x="611" 
d="M32 188h81q12 -73 53 -103.5t116 -30.5q93 0 145.5 60.5t52.5 191.5v14h-274v63h274v9q0 130 -49.5 187t-138.5 57q-72 0 -117.5 -29.5t-55.5 -110.5h-81q14 110 79.5 157.5t175.5 47.5q130 0 199 -81t69 -274t-73 -275t-205 -82q-116 0 -177 49t-74 150z" />
    <glyph glyph-name="afii10048" unicode="&#x42e;" horiz-adv-x="890" 
d="M78 690h80v-305h111q7 169 78.5 242.5t206.5 73.5q143 0 215 -82.5t72 -272.5q0 -185 -72 -271t-215 -86q-137 0 -209 79.5t-77 251.5h-110v-320h-80v690zM760 309v79q0 128 -51 188t-155 60q-101 0 -153 -60t-52 -188v-79q0 -127 52 -191t153 -64q104 0 155 64t51 191z
" />
    <glyph glyph-name="afii10049" unicode="&#x42f;" horiz-adv-x="598" 
d="M439 285h-172l-156 -285h-85l159 294q-66 17 -99.5 66.5t-33.5 125.5q0 95 51.5 149.5t156.5 54.5h259v-690h-80v285zM439 625h-172q-69 0 -101.5 -34t-32.5 -86v-38q0 -50 32.5 -84t101.5 -34h172v276z" />
    <glyph glyph-name="afii10065" unicode="&#x430;" horiz-adv-x="519" 
d="M41 131q0 68 40.5 104.5t144.5 44.5l152 14v15q0 75 -30.5 108t-94.5 33q-47 0 -78 -19t-41 -69h-77q11 72 60.5 107.5t136.5 35.5q100 0 149.5 -46.5t49.5 -149.5v-309h-72v81q-25 -43 -71.5 -67.5t-109.5 -24.5q-78 0 -118.5 37t-40.5 105zM117 126q0 -40 24.5 -61
t73.5 -21q31 0 60.5 8.5t52.5 28t36.5 50.5t13.5 76v36l-144 -13q-61 -6 -89 -25.5t-28 -63.5v-15z" />
    <glyph glyph-name="afii10066" unicode="&#x431;" horiz-adv-x="548" 
d="M60 258q0 135 12 223.5t43 140.5t85 74t138 26q52 2 83.5 5.5t49.5 7.5v-65q-17 -4 -48 -7.5t-83 -5.5q-58 -3 -97.5 -14.5t-64.5 -40t-37.5 -79t-16.5 -129.5q24 48 67.5 73.5t106.5 25.5q101 0 153.5 -59.5t52.5 -187.5q0 -137 -56.5 -197t-165.5 -60q-108 0 -165 61.5
t-57 207.5zM428 214v62q0 87 -40 123.5t-106 36.5t-106.5 -36.5t-40.5 -123.5v-62q0 -89 40.5 -129t106.5 -40q68 0 107 40t39 129z" />
    <glyph glyph-name="afii10067" unicode="&#x432;" horiz-adv-x="497" 
d="M72 494h213q78 0 114.5 -32t36.5 -86q0 -36 -17 -69.5t-66 -48.5q60 -13 81.5 -46t21.5 -72q0 -73 -40.5 -106.5t-121.5 -33.5h-222v494zM361 353v19q0 31 -17.5 50t-66.5 19h-131v-162h136q45 0 62 21.5t17 52.5zM381 131v24q0 37 -23.5 56t-74.5 19h-137v-176h137
q51 0 74.5 18.5t23.5 58.5z" />
    <glyph glyph-name="afii10068" unicode="&#x433;" horiz-adv-x="393" 
d="M72 494h308v-59h-233v-435h-75v494z" />
    <glyph glyph-name="afii10069" unicode="&#x434;" horiz-adv-x="564" 
d="M11 -140v200h54q28 47 39 119t11 171v144h355v-434h76v-200h-69v140h-397v-140h-69zM395 435h-212v-85q0 -99 -10 -171.5t-33 -118.5h255v375z" />
    <glyph glyph-name="afii10070" unicode="&#x435;" horiz-adv-x="507" 
d="M44 247q0 138 54.5 198t155.5 60q103 0 157.5 -57.5t54.5 -179.5v-23h-348v-31q0 -86 35.5 -127.5t100.5 -41.5q60 0 91 24t39 67h75q-13 -69 -63.5 -108t-141.5 -39q-101 0 -155.5 60t-54.5 198zM254 450q-66 0 -100 -36t-36 -119h274q-3 84 -37.5 119.5t-100.5 35.5z
" />
    <glyph glyph-name="afii10072" unicode="&#x436;" horiz-adv-x="683" 
d="M303 494h75v-216h52l149 216h76l-165 -240l187 -254h-86l-161 219h-52v-219h-75v219h-52l-161 -219h-84l183 249l-168 245h81l149 -216h52v216z" />
    <glyph glyph-name="afii10073" unicode="&#x437;" horiz-adv-x="465" 
d="M29 138h76q5 -49 35 -72t87 -23q60 0 90.5 20t30.5 69v18q0 40 -28.5 61.5t-79.5 21.5h-77v54h74q49 0 73.5 19t24.5 55v21q0 37 -27.5 53t-79.5 16q-55 0 -81.5 -19.5t-33.5 -61.5h-76q8 71 56.5 103t133.5 32q84 0 134 -31.5t50 -97.5q0 -39 -20 -69t-68 -43
q53 -14 77 -47t24 -73q0 -84 -51.5 -119.5t-145.5 -35.5q-83 0 -137 34.5t-61 114.5z" />
    <glyph glyph-name="afii10074" unicode="&#x438;" horiz-adv-x="545" 
d="M72 494h74v-404l239 404h88v-494h-75v404l-239 -404h-87v494z" />
    <glyph glyph-name="afii10075" unicode="&#x439;" horiz-adv-x="545" 
d="M128 726h68q0 -54 18.5 -80.5t57.5 -26.5q38 0 57 26.5t19 80.5h68q0 -75 -36 -116.5t-108 -41.5q-71 0 -107.5 40.5t-36.5 117.5zM72 494h75v-420l231 420h95v-494h-75v420l-231 -420h-95v494z" />
    <glyph glyph-name="afii10076" unicode="&#x43a;" horiz-adv-x="469" 
d="M72 494h75v-216h53l166 216h82l-185 -240l209 -254h-92l-181 219h-52v-219h-75v494z" />
    <glyph glyph-name="afii10077" unicode="&#x43b;" horiz-adv-x="525" 
d="M16 0v67h8q22 0 37.5 8t25.5 32t14.5 66.5t4.5 111.5v209h347v-494h-74v435h-205v-150q0 -91 -8.5 -147.5t-26 -87t-45.5 -40.5t-66 -10h-12z" />
    <glyph glyph-name="afii10078" unicode="&#x43c;" horiz-adv-x="669" 
d="M295 76l-156 354v-430h-67v494h108l154 -350l154 350h109v-494h-74v430l-156 -354h-72z" />
    <glyph glyph-name="afii10079" unicode="&#x43d;" horiz-adv-x="533" 
d="M72 494h75v-212h239v212h75v-494h-75v222h-239v-222h-75v494z" />
    <glyph glyph-name="afii10080" unicode="&#x43e;" horiz-adv-x="531" 
d="M43 247q0 140 58.5 199t164.5 59q107 0 164.5 -59t57.5 -199q0 -143 -57.5 -200.5t-164.5 -57.5q-106 0 -164.5 57.5t-58.5 200.5zM412 214v67q0 87 -38.5 127.5t-107.5 40.5t-108 -40.5t-39 -127.5v-68q0 -86 39 -127t108 -41t107.5 41t38.5 128z" />
    <glyph glyph-name="afii10081" unicode="&#x43f;" horiz-adv-x="527" 
d="M72 494h383v-494h-75v435h-233v-435h-75v494z" />
    <glyph glyph-name="afii10082" unicode="&#x440;" horiz-adv-x="559" 
d="M72 494h71v-78q25 46 67.5 67.5t96.5 21.5q101 0 155 -59t54 -199t-54 -199t-155 -59q-52 0 -93.5 19.5t-66.5 62.5v-271h-75v694zM440 212v70q0 90 -40 128.5t-107 38.5q-68 0 -107 -38.5t-39 -128.5v-70q0 -84 41 -125.5t105 -41.5q67 0 107 42t40 125z" />
    <glyph glyph-name="afii10083" unicode="&#x441;" horiz-adv-x="488" 
d="M43 245q0 134 52.5 197t158.5 63q86 0 137.5 -35t60.5 -110h-76q-7 50 -40.5 69.5t-82.5 19.5q-67 0 -100.5 -39.5t-33.5 -126.5v-74q0 -91 40 -127.5t94 -36.5q56 0 86.5 23t37.5 67h76q-10 -74 -62.5 -110t-137.5 -36q-47 0 -85.5 12.5t-66 42t-43 78.5t-15.5 123z" />
    <glyph glyph-name="afii10084" unicode="&#x442;" horiz-adv-x="431" 
d="M178 435h-164v59h402v-59h-163v-435h-75v435z" />
    <glyph glyph-name="afii10085" unicode="&#x443;" horiz-adv-x="471" 
d="M41 -141h37q48 0 70 17t40 68l14 38l-192 512h79l151 -410l150 410h70l-209 -564q-28 -75 -62 -102.5t-103 -27.5h-45v59z" />
    <glyph glyph-name="afii10086" unicode="&#x444;" horiz-adv-x="689" 
d="M307 -11q-122 -1 -193.5 57t-71.5 201t71.5 200.5t193.5 57.5v225h75v-225q122 0 193.5 -57.5t71.5 -200.5t-71.5 -200.5t-193.5 -57.5v-189h-75v189zM307 449q-89 0 -139 -38.5t-50 -131.5v-58q0 -93 48 -134t141 -41v403zM571 221v59q0 92 -49.5 130.5t-139.5 38.5
v-403q90 0 139.5 41t49.5 134z" />
    <glyph glyph-name="afii10087" unicode="&#x445;" horiz-adv-x="461" 
d="M369 0l-142 203l-145 -203h-74l179 252l-169 242h83l132 -188l134 188h75l-169 -236l180 -258h-84z" />
    <glyph glyph-name="afii10088" unicode="&#x446;" horiz-adv-x="549" 
d="M462 -140v140h-390v494h75v-435h233v435h75v-434h76v-200h-69z" />
    <glyph glyph-name="afii10089" unicode="&#x447;" horiz-adv-x="488" 
d="M341 207q-28 -5 -54.5 -7.5t-62.5 -2.5q-101 0 -143.5 40.5t-42.5 133.5v123h75v-120q0 -66 27.5 -91.5t91.5 -25.5q34 0 57.5 2t51.5 8v227h75v-494h-75v207z" />
    <glyph glyph-name="afii10090" unicode="&#x448;" horiz-adv-x="747" 
d="M72 494h75v-434h189v434h75v-434h189v434h75v-494h-603v494z" />
    <glyph glyph-name="afii10091" unicode="&#x449;" horiz-adv-x="769" 
d="M72 494h75v-434h189v434h75v-434h189v434h75v-434h76v-200h-69v140h-610v494z" />
    <glyph glyph-name="afii10092" unicode="&#x44a;" horiz-adv-x="541" 
d="M134 0v435h-118v59h193v-177h146q77 0 117.5 -40.5t40.5 -112.5q0 -79 -40.5 -121.5t-117.5 -42.5h-221zM437 150v28q0 34 -22 58.5t-73 24.5h-133v-205h133q51 0 73 27t22 67z" />
    <glyph glyph-name="afii10093" unicode="&#x44b;" horiz-adv-x="663" 
d="M72 0v494h75v-177h146q77 0 117.5 -40.5t40.5 -112.5q0 -79 -40.5 -121.5t-117.5 -42.5h-221zM375 150v28q0 34 -22 58.5t-73 24.5h-133v-205h133q51 0 73 27t22 67zM516 494h75v-494h-75v494z" />
    <glyph glyph-name="afii10094" unicode="&#x44c;" horiz-adv-x="480" 
d="M72 0v494h75v-177h146q77 0 117.5 -40.5t40.5 -112.5q0 -79 -40.5 -121.5t-117.5 -42.5h-221zM375 150v28q0 34 -22 58.5t-73 24.5h-133v-205h133q51 0 73 27t22 67z" />
    <glyph glyph-name="afii10095" unicode="&#x44d;" horiz-adv-x="487" 
d="M32 135h76q10 -44 39 -67t86 -23q68 0 102 43t34 121v15h-198v54h198v5q0 78 -32.5 122t-103.5 44q-50 0 -82.5 -20t-42.5 -69h-76q12 71 63 108t139 37q104 0 157 -63t53 -197q0 -132 -53 -194t-157 -62q-84 0 -136.5 36t-65.5 110z" />
    <glyph glyph-name="afii10096" unicode="&#x44e;" horiz-adv-x="726" 
d="M72 494h75v-212h102q7 122 62.5 172.5t153.5 50.5q105 0 161 -57.5t56 -200.5q0 -141 -56 -199.5t-161 -58.5q-100 0 -156 53t-61 181h-101v-223h-75v494zM606 217v62q0 96 -38.5 133t-102.5 37t-103 -37t-39 -133v-62q0 -96 39 -134t103 -38t102.5 38t38.5 134z" />
    <glyph glyph-name="afii10097" unicode="&#x44f;" horiz-adv-x="487" 
d="M340 191h-105l-128 -191h-79l132 199q-57 11 -86.5 49t-29.5 94q0 72 40.5 112t119.5 40h211v-494h-75v191zM340 439h-130q-40 0 -65.5 -20.5t-25.5 -61.5v-32q0 -37 24 -58t67 -21h130v193z" />
    <glyph glyph-name="afii10071" unicode="&#x451;" horiz-adv-x="507" 
d="M44 247q0 138 54.5 198t155.5 60q103 0 157.5 -57.5t54.5 -179.5v-23h-348v-31q0 -86 35.5 -127.5t100.5 -41.5q60 0 91 24t39 67h75q-13 -69 -63.5 -108t-141.5 -39q-101 0 -155.5 60t-54.5 198zM254 450q-66 0 -100 -36t-36 -119h274q-3 84 -37.5 119.5t-100.5 35.5z
M109 653q0 24 13 36.5t37 12.5q25 0 38 -12.5t13 -36.5q0 -25 -13 -37.5t-38 -12.5q-24 0 -37 12.5t-13 37.5zM303 653q0 24 12.5 36.5t37.5 12.5q23 0 36.5 -12.5t13.5 -36.5q0 -25 -13.5 -37.5t-36.5 -12.5q-25 0 -37.5 12.5t-12.5 37.5z" />
    <glyph glyph-name="afii10099" unicode="&#x452;" horiz-adv-x="544" 
d="M315 -140h28q34 0 47 15.5t13 44.5v393q0 81 -31.5 108t-88.5 27q-61 0 -98.5 -30t-37.5 -105v-313h-75v578h-78v53h78v99h75v-99h147v-53h-147v-153q22 42 62.5 61t91.5 19q86 0 131.5 -45.5t45.5 -146.5v-397q1 -61 -26.5 -88.5t-94.5 -27.5h-42v60z" />
    <glyph glyph-name="afii10100" unicode="&#x453;" horiz-adv-x="393" 
d="M72 494h308v-59h-233v-435h-75v494zM177 569l107 165h94l-133 -165h-68z" />
    <glyph glyph-name="afii10101" unicode="&#x454;" horiz-adv-x="487" 
d="M44 245q0 141 55 200.5t156 59.5q90 0 140 -38t61 -107h-76q-10 47 -42.5 68t-82.5 21q-62 0 -99 -38.5t-37 -127.5v-5h198v-54h-198v-15q0 -91 37 -127.5t99 -36.5q57 0 85 21.5t41 68.5h75q-17 -75 -66.5 -110.5t-135.5 -35.5q-99 0 -154.5 55.5t-55.5 200.5z" />
    <glyph glyph-name="afii10102" unicode="&#x455;" horiz-adv-x="472" 
d="M36 149h75q3 -58 37 -81.5t92 -23.5q60 0 92 21t32 69q0 54 -49.5 67.5t-108.5 23.5t-108.5 35.5t-49.5 103.5q0 68 49 104.5t136 36.5q81 0 133 -35t55 -111h-75q-3 54 -34 72.5t-79 18.5q-53 0 -82 -20t-29 -65q0 -53 49 -66t108 -22.5t108 -35.5t49 -105
q0 -78 -54.5 -112.5t-140.5 -34.5q-96 0 -149 39.5t-56 120.5z" />
    <glyph glyph-name="afii10103" unicode="&#x456;" horiz-adv-x="219" 
d="M72 494h75v-494h-75v494zM58 657q0 24 13 36.5t38 12.5t38.5 -12.5t13.5 -36.5q0 -25 -13.5 -37.5t-38.5 -12.5t-38 12.5t-13 37.5z" />
    <glyph glyph-name="afii10104" unicode="&#x457;" horiz-adv-x="219" 
d="M14 657q0 24 10.5 36.5t32.5 12.5t33.5 -12.5t11.5 -36.5q0 -25 -11.5 -37.5t-33.5 -12.5t-32.5 12.5t-10.5 37.5zM117 657q0 24 11 36.5t33 12.5q21 0 32.5 -12.5t11.5 -36.5q0 -25 -11.5 -37.5t-32.5 -12.5q-22 0 -33 12.5t-11 37.5zM72 494h75v-494h-75v494z" />
    <glyph glyph-name="afii10105" unicode="&#x458;" horiz-adv-x="219" 
d="M-16 -140h28q35 0 47.5 15.5t12.5 44.5v574h75v-578q0 -61 -27 -88.5t-94 -27.5h-42v60zM58 657q0 24 13 36.5t38 12.5t38.5 -12.5t13.5 -36.5q0 -25 -13.5 -37.5t-38.5 -12.5t-38 12.5t-13 37.5z" />
    <glyph glyph-name="afii10106" unicode="&#x459;" horiz-adv-x="758" 
d="M16 67h8q22 0 37.5 8t25.5 32t14.5 66.5t4.5 111.5v209h321v-177h144q78 0 118 -40.5t40 -112.5q0 -79 -40 -121.5t-118 -42.5h-219v435h-178v-150q0 -91 -8.5 -147.5t-26 -87t-45.5 -40.5t-66 -10h-12v67zM653 150v28q0 34 -21.5 58.5t-73.5 24.5h-131v-205h131
q52 0 73.5 27t21.5 67z" />
    <glyph glyph-name="afii10107" unicode="&#x45a;" horiz-adv-x="772" 
d="M368 0v233h-221v-233h-75v494h75v-201h221v201h75v-201h144q78 0 118 -37.5t40 -104.5q0 -73 -40 -112t-118 -39h-219zM669 137v29q0 28 -21.5 49.5t-73.5 21.5h-131v-181h131q52 0 73.5 23.5t21.5 57.5z" />
    <glyph glyph-name="afii10108" unicode="&#x45b;" horiz-adv-x="544" 
d="M403 0v313q0 81 -31.5 108t-88.5 27q-61 0 -98.5 -30t-37.5 -105v-313h-75v578h-78v53h78v99h75v-99h147v-53h-147v-153q22 42 62.5 61t91.5 19q86 0 131.5 -45.5t45.5 -146.5v-313h-75z" />
    <glyph glyph-name="afii10109" unicode="&#x45c;" horiz-adv-x="469" 
d="M72 494h75v-216h53l166 216h82l-185 -240l209 -254h-92l-181 219h-52v-219h-75v494zM196 569l107 165h94l-133 -165h-68z" />
    <glyph glyph-name="afii10110" unicode="&#x45e;" horiz-adv-x="471" 
d="M41 -141h37q48 0 70 17t40 68l14 38l-192 512h79l151 -410l150 410h70l-209 -564q-28 -75 -62 -102.5t-103 -27.5h-45v59zM94 726h68q0 -54 18 -80.5t57 -26.5t57.5 26.5t18.5 80.5h68q0 -76 -36 -117t-108 -41q-71 0 -107 40.5t-36 117.5z" />
    <glyph glyph-name="afii10193" unicode="&#x45f;" horiz-adv-x="527" 
d="M229 -140v140h-157v494h75v-434h233v434h75v-494h-157v-140h-69z" />
    <glyph glyph-name="afii10050" unicode="&#x490;" horiz-adv-x="481" 
d="M78 690h315v150h74v-216h-309v-624h-80v690z" />
    <glyph glyph-name="afii10098" unicode="&#x491;" horiz-adv-x="393" 
d="M72 494h239v140h69v-199h-233v-435h-75v494z" />
    <glyph glyph-name="uni0492" unicode="&#x492;" horiz-adv-x="531" 
d="M26 317v63h99v310h389v-66h-309v-244h199v-63h-199v-317h-80v317h-99z" />
    <glyph glyph-name="uni0493" unicode="&#x493;" horiz-adv-x="434" 
d="M29 214v53h83v227h308v-59h-233v-168h144v-53h-144v-214h-75v214h-83z" />
    <glyph glyph-name="uni0496" unicode="&#x496;" horiz-adv-x="881" 
d="M384 690h80v-311h45l245 311h84l-266 -338l225 -285h81v-217h-74v150h-50l-245 313h-45v-313h-80v313h-44l-245 -313h-91l273 349l-270 341h88l245 -311h44v311z" />
    <glyph glyph-name="uni0497" unicode="&#x497;" horiz-adv-x="700" 
d="M303 494h75v-216h52l149 216h76l-165 -240l146 -194h58v-200h-69v140h-34l-161 219h-52v-219h-75v219h-52l-161 -219h-84l183 249l-168 245h81l149 -216h52v216z" />
    <glyph glyph-name="uni0498" unicode="&#x498;" horiz-adv-x="567" 
d="M39 184h81q0 -72 45 -101.5t120 -29.5q78 0 117 30.5t39 84.5v40q0 52 -33 82.5t-102 30.5h-109v62h109q57 0 85.5 30t28.5 80v35q0 54 -34.5 81.5t-106.5 27.5q-58 0 -102.5 -24t-46.5 -96h-81q3 99 67.5 141.5t162.5 42.5q106 0 164 -44.5t58 -137.5q0 -60 -29.5 -104
t-86.5 -57q63 -10 100 -51t37 -113q0 -91 -47.5 -142.5t-146.5 -60.5v-141h-74v140q-98 5 -154.5 50t-60.5 144z" />
    <glyph glyph-name="uni0499" unicode="&#x499;" horiz-adv-x="465" 
d="M29 138h76q5 -49 35 -72t87 -23q60 0 90.5 20t30.5 69v18q0 40 -28.5 61.5t-79.5 21.5h-77v54h74q49 0 73.5 19t24.5 55v21q0 37 -27.5 53t-79.5 16q-55 0 -81.5 -19.5t-33.5 -61.5h-76q8 71 56.5 103t133.5 32q84 0 134 -31.5t50 -97.5q0 -39 -20 -69t-68 -43
q53 -14 77 -47t24 -73q0 -75 -40.5 -110.5t-115.5 -42.5v-131h-69v130q-72 5 -117.5 40t-52.5 108z" />
    <glyph glyph-name="uni049A" unicode="&#x49a;" horiz-adv-x="592" 
d="M515 -150v150h-42l-240 314h-75v-314h-80v690h80v-310h75l231 310h86l-251 -337l219 -286h71v-217h-74z" />
    <glyph glyph-name="uni049B" unicode="&#x49b;" horiz-adv-x="495" 
d="M420 -140v140h-40l-181 219h-52v-219h-75v494h75v-216h53l166 216h82l-185 -240l162 -194h64v-200h-69z" />
    <glyph glyph-name="uni049C" unicode="&#x49c;" horiz-adv-x="637" 
d="M234 134v180h-76v-314h-80v690h80v-310h76v170h64v-170h5l232 310h86l-252 -337l270 -353h-96l-240 314h-5v-180h-64z" />
    <glyph glyph-name="uni049D" unicode="&#x49d;" horiz-adv-x="535" 
d="M207 81v138h-60v-219h-75v494h75v-216h60v131h53v-131h7l166 216h82l-185 -240l208 -254h-91l-181 219h-6v-138h-53z" />
    <glyph glyph-name="uni04A0" unicode="&#x4a0;" horiz-adv-x="732" 
d="M13 690h311v-310h75l231 310h86l-251 -337l270 -353h-96l-240 314h-75v-314h-80v624h-231v66z" />
    <glyph glyph-name="uni04A1" unicode="&#x4a1;" horiz-adv-x="600" 
d="M13 494h266v-216h53l166 216h82l-185 -240l209 -254h-92l-181 219h-52v-219h-75v435h-191v59z" />
    <glyph glyph-name="uni04A2" unicode="&#x4a2;" horiz-adv-x="669" 
d="M574 -150v150h-88v318h-328v-318h-80v690h80v-305h328v305h80v-623h82v-217h-74z" />
    <glyph glyph-name="uni04A3" unicode="&#x4a3;" horiz-adv-x="555" 
d="M468 -140v140h-82v222h-239v-222h-75v494h75v-212h239v212h75v-434h76v-200h-69z" />
    <glyph glyph-name="uni04AA" unicode="&#x4aa;" horiz-adv-x="614" 
d="M295 -150v140q-117 8 -181.5 92t-64.5 264q0 189 72 272t203 83q119 0 180.5 -49t72.5 -156h-80q-10 81 -51.5 110.5t-121.5 29.5q-90 0 -142 -59t-52 -187v-84q0 -125 52 -188.5t143 -63.5q77 0 119 28t54 106h80q-12 -95 -63 -142.5t-146 -54.5v-141h-74z" />
    <glyph glyph-name="uni04AB" unicode="&#x4ab;" horiz-adv-x="488" 
d="M43 245q0 134 52.5 197t158.5 63q86 0 137.5 -35t60.5 -110h-76q-7 50 -40.5 69.5t-82.5 19.5q-67 0 -100.5 -39.5t-33.5 -126.5v-74q0 -91 40 -127.5t94 -36.5q56 0 86.5 23t37.5 67h76q-9 -66 -51 -101.5t-111 -42.5v-131h-69v130q-81 7 -130 64t-49 191z" />
    <glyph glyph-name="uni04AE" unicode="&#x4ae;" horiz-adv-x="579" 
d="M251 308l-245 382h86l203 -318l200 318h77l-241 -382v-308h-80v308z" />
    <glyph glyph-name="uni04AF" unicode="&#x4af;" horiz-adv-x="469" 
d="M198 0l-188 494h76l153 -402l151 402h69l-186 -494v-200h-75v200z" />
    <glyph glyph-name="uni04B0" unicode="&#x4b0;" horiz-adv-x="580" 
d="M103 245v63h148l-245 382h86l203 -318l200 318h77l-241 -382h149v-63h-149v-245h-80v245h-148z" />
    <glyph glyph-name="uni04B1" unicode="&#x4b1;" horiz-adv-x="469" 
d="M87 -53v53h111l-188 494h76l153 -402l151 402h69l-186 -494h112v-53h-112v-147h-75v147h-111z" />
    <glyph glyph-name="uni04B2" unicode="&#x4b2;" horiz-adv-x="610" 
d="M535 -150v150h-53l-198 296l-198 -296h-80l235 350l-227 340h88l188 -281l188 281h80l-226 -334l193 -289h84v-217h-74z" />
    <glyph glyph-name="uni04B3" unicode="&#x4b3;" horiz-adv-x="483" 
d="M407 -140v140h-38l-142 203l-145 -203h-74l179 252l-169 242h83l132 -188l134 188h75l-169 -236l137 -198h66v-200h-69z" />
    <glyph glyph-name="uni04B6" unicode="&#x4b6;" horiz-adv-x="622" 
d="M439 288q-32 -4 -69 -6.5t-63 -2.5q-131 0 -196 46t-65 166v199h80v-194q0 -91 46 -121t139 -30q27 0 61 2.5t67 6.5v336h80v-623h82v-217h-75v150h-87v288z" />
    <glyph glyph-name="uni04B7" unicode="&#x4b7;" horiz-adv-x="509" 
d="M341 207q-28 -5 -54.5 -7.5t-62.5 -2.5q-101 0 -143.5 40.5t-42.5 133.5v123h75v-120q0 -66 27.5 -91.5t91.5 -25.5q34 0 57.5 2t51.5 8v227h75v-434h76v-200h-70v140h-81v207z" />
    <glyph glyph-name="uni04B8" unicode="&#x4b8;" horiz-adv-x="602" 
d="M253 125v156q-104 7 -155.5 55t-51.5 155v199h80v-198q0 -73 32 -105t95 -39v160h64v-163q30 0 63 2.5t64 6.5v336h80v-690h-80v288q-30 -4 -64.5 -6t-62.5 -3v-154h-64z" />
    <glyph glyph-name="uni04B9" unicode="&#x4b9;" horiz-adv-x="493" 
d="M209 74v123q-94 4 -132.5 45t-38.5 129v123h75v-123q0 -58 22.5 -83.5t73.5 -29.5v122h53v-123q23 1 42.5 3.5t41.5 6.5v227h75v-494h-75v207q-22 -4 -42 -6t-42 -3v-124h-53z" />
    <glyph glyph-name="uni04BA" unicode="&#x4ba;" horiz-adv-x="597" 
d="M158 402q32 4 69 6.5t63 2.5q131 0 196 -46t65 -166v-199h-80v194q0 91 -46 121t-139 30q-27 0 -61 -2.5t-67 -6.5v-336h-80v690h80v-288z" />
    <glyph glyph-name="uni04BB" unicode="&#x4bb;" horiz-adv-x="544" 
d="M403 0v313q0 81 -31.5 108t-88.5 27q-61 0 -98.5 -30t-37.5 -105v-313h-75v730h75v-305q22 42 62.5 61t91.5 19q86 0 131.5 -45.5t45.5 -146.5v-313h-75z" />
    <glyph glyph-name="uni04C0" unicode="&#x4c0;" horiz-adv-x="237" 
d="M78 690h80v-690h-80v690z" />
    <glyph glyph-name="uni04C1" unicode="&#x4c1;" horiz-adv-x="851" 
d="M384 690h80v-311h45l245 311h84l-266 -338l275 -352h-93l-245 313h-45v-313h-80v313h-44l-245 -313h-91l273 349l-270 341h88l245 -311h44v311zM278 897h71q0 -48 18 -69t57 -21t57 21t18 69h72q0 -69 -37 -106t-110 -37q-72 0 -109 37t-37 106z" />
    <glyph glyph-name="uni04C2" unicode="&#x4c2;" horiz-adv-x="683" 
d="M303 494h75v-216h52l149 216h76l-165 -240l187 -254h-86l-161 219h-52v-219h-75v219h-52l-161 -219h-84l183 249l-168 245h81l149 -216h52v216zM197 727h68q0 -54 18 -80.5t57 -26.5t57.5 26.5t18.5 80.5h68q0 -76 -36 -117t-108 -41q-71 0 -107 40.5t-36 117.5z" />
    <glyph glyph-name="uni04CF" unicode="&#x4cf;" horiz-adv-x="224" 
d="M71 690h80v-690h-80v690z" />
    <glyph glyph-name="uni04D0" unicode="&#x4d0;" horiz-adv-x="604" 
d="M244 690h117l233 -690h-82l-67 199h-295l-67 -199h-72zM171 262h253l-126 376zM153 897h71q0 -48 18 -69t57 -21t57 21t18 69h72q0 -69 -37 -106t-110 -37q-72 0 -109 37t-37 106z" />
    <glyph glyph-name="uni04D1" unicode="&#x4d1;" horiz-adv-x="519" 
d="M41 131q0 68 40.5 104.5t144.5 44.5l152 14v15q0 75 -30.5 108t-94.5 33q-47 0 -78 -19t-41 -69h-77q11 72 60.5 107.5t136.5 35.5q100 0 149.5 -46.5t49.5 -149.5v-309h-72v81q-25 -43 -71.5 -67.5t-109.5 -24.5q-78 0 -118.5 37t-40.5 105zM117 126q0 -40 24.5 -61
t73.5 -21q31 0 60.5 8.5t52.5 28t36.5 50.5t13.5 76v36l-144 -13q-61 -6 -89 -25.5t-28 -63.5v-15zM110 727h68q0 -54 18 -80.5t57 -26.5t57.5 26.5t18.5 80.5h68q0 -76 -36 -117t-108 -41q-71 0 -107 40.5t-36 117.5z" />
    <glyph glyph-name="uni04D6" unicode="&#x4d6;" horiz-adv-x="536" 
d="M78 690h411v-66h-331v-240h288v-64h-288v-254h335v-66h-415v690zM140 897h71q0 -48 18 -69t57 -21t57 21t18 69h72q0 -69 -37 -106t-110 -37q-72 0 -109 37t-37 106z" />
    <glyph glyph-name="uni04D7" unicode="&#x4d7;" horiz-adv-x="507" 
d="M44 247q0 138 54.5 198t155.5 60q103 0 157.5 -57.5t54.5 -179.5v-23h-348v-31q0 -86 35.5 -127.5t100.5 -41.5q60 0 91 24t39 67h75q-13 -69 -63.5 -108t-141.5 -39q-101 0 -155.5 60t-54.5 198zM254 450q-66 0 -100 -36t-36 -119h274q-3 84 -37.5 119.5t-100.5 35.5z
M111 728h68q0 -54 18 -80.5t57 -26.5t57.5 26.5t18.5 80.5h68q0 -76 -36 -117t-108 -41q-71 0 -107 40.5t-36 117.5z" />
    <glyph glyph-name="uni04D8" unicode="&#x4d8;" horiz-adv-x="681" 
d="M48 320v34h503v32q0 74 -15.5 122.5t-43.5 76.5t-67 39.5t-86 11.5q-96 0 -146 -47.5t-61 -139.5h-80q16 125 87.5 188.5t199.5 63.5q146 0 219.5 -81.5t73.5 -271.5q0 -191 -75.5 -275t-217.5 -84q-144 0 -217.5 79.5t-73.5 251.5zM128 291q0 -122 55 -179.5t156 -57.5
t156.5 57.5t55.5 179.5v3h-423v-3z" />
    <glyph glyph-name="uni04D9" unicode="&#x4d9;" horiz-adv-x="507" 
d="M463 247q0 -138 -54.5 -198t-155.5 -60q-103 0 -157.5 57.5t-54.5 179.5v23h348v31q0 86 -35.5 127.5t-100.5 41.5q-60 0 -91 -24t-39 -67h-75q13 69 63.5 108t141.5 39q101 0 155.5 -60t54.5 -198zM253 44q66 0 100 36t36 119h-274q3 -84 37.5 -119.5t100.5 -35.5z" />
    <glyph glyph-name="uni04E2" unicode="&#x4e2;" horiz-adv-x="657" 
d="M498 577l-331 -577h-89v690h80v-577l332 577h88v-690h-80v577zM189 807v55h276v-55h-276z" />
    <glyph glyph-name="uni04E3" unicode="&#x4e3;" horiz-adv-x="545" 
d="M72 494h74v-404l239 404h88v-494h-75v404l-239 -404h-87v494zM134 624v54h276v-54h-276z" />
    <glyph glyph-name="uni04E6" unicode="&#x4e6;" horiz-adv-x="691" 
d="M49 347q0 190 74 272t222 82t222.5 -82t74.5 -272t-74.5 -274t-222.5 -84t-222 84t-74 274zM561 308v81q0 128 -54 187.5t-162 59.5t-161.5 -59.5t-53.5 -187.5v-81q0 -126 53.5 -190t161.5 -64t162 64t54 190zM195 826q0 24 13 36.5t37 12.5q25 0 38 -12.5t13 -36.5
q0 -25 -13 -37t-38 -12q-24 0 -37 12t-13 37zM397 826q0 24 13 36.5t37 12.5t37 -12.5t13 -36.5q0 -25 -13 -37t-37 -12t-37 12t-13 37z" />
    <glyph glyph-name="uni04E7" unicode="&#x4e7;" horiz-adv-x="531" 
d="M43 247q0 140 58.5 199t164.5 59q107 0 164.5 -59t57.5 -199q0 -143 -57.5 -200.5t-164.5 -57.5q-106 0 -164.5 57.5t-58.5 200.5zM412 214v67q0 87 -38.5 127.5t-107.5 40.5t-108 -40.5t-39 -127.5v-68q0 -86 39 -127t108 -41t107.5 41t38.5 128zM119 653q0 24 13 36.5
t37 12.5q25 0 38 -12.5t13 -36.5q0 -25 -13 -37.5t-38 -12.5q-24 0 -37 12.5t-13 37.5zM313 653q0 24 12.5 36.5t37.5 12.5q23 0 36.5 -12.5t13.5 -36.5q0 -25 -13.5 -37.5t-36.5 -12.5q-25 0 -37.5 12.5t-12.5 37.5z" />
    <glyph glyph-name="uni04E8" unicode="&#x4e8;" horiz-adv-x="691" 
d="M49 347q0 190 74 272t222 82t222.5 -82t74.5 -272t-74.5 -274t-222.5 -84t-222 84t-74 274zM128 390v-14h434v14q0 128 -53.5 187.5t-163.5 59.5q-108 0 -162.5 -59.5t-54.5 -187.5zM562 307v6h-434v-6q0 -126 54.5 -190t162.5 -64q110 0 163.5 64t53.5 190z" />
    <glyph glyph-name="uni04E9" unicode="&#x4e9;" horiz-adv-x="531" 
d="M43 247q0 140 58.5 199t164.5 59q107 0 164.5 -59t57.5 -199q0 -143 -57.5 -200.5t-164.5 -57.5q-106 0 -164.5 57.5t-58.5 200.5zM117 281v-9h297v9q0 87 -39 127.5t-109 40.5q-71 0 -110 -40.5t-39 -127.5zM414 214v5h-297v-6q0 -86 39 -127t110 -41q70 0 109 41
t39 128z" />
    <glyph glyph-name="uni04EE" unicode="&#x4ee;" horiz-adv-x="548" 
d="M165 0l80 183l-236 507h83l193 -418l183 418h74l-303 -690h-74zM145 807v55h276v-55h-276z" />
    <glyph glyph-name="uni04EF" unicode="&#x4ef;" horiz-adv-x="471" 
d="M41 -141h37q48 0 70 17t40 68l14 38l-192 512h79l151 -410l150 410h70l-209 -564q-28 -75 -62 -102.5t-103 -27.5h-45v59zM101 624v54h276v-54h-276z" />
    <glyph glyph-name="uni04F2" unicode="&#x4f2;" horiz-adv-x="548" 
d="M165 0l80 183l-236 507h83l193 -418l183 418h74l-303 -690h-74zM156 758l74 142h93l-99 -142h-68zM306 758l101 142h97l-126 -142h-72z" />
    <glyph glyph-name="uni04F3" unicode="&#x4f3;" horiz-adv-x="471" 
d="M134 569l73 165h88l-98 -165h-63zM260 569l100 165h92l-125 -165h-67zM41 -141h37q48 0 70 17t40 68l14 38l-192 512h79l151 -410l150 410h70l-209 -564q-28 -75 -62 -102.5t-103 -27.5h-45v59z" />
    <glyph glyph-name="Wgrave" unicode="&#x1e80;" horiz-adv-x="837" 
d="M25 690h81l119 -613l150 613h101l143 -605l128 605h71l-147 -690h-107l-143 603l-148 -603h-114zM391 758l-133 142h103l108 -142h-78z" />
    <glyph glyph-name="wgrave" unicode="&#x1e81;" horiz-adv-x="721" 
d="M152 0l-137 494h72l119 -434l113 434h90l112 -431l120 431h66l-140 -494h-96l-111 429l-112 -429h-96zM193 734h98l107 -165h-72z" />
    <glyph glyph-name="Wacute" unicode="&#x1e82;" horiz-adv-x="837" 
d="M25 690h81l119 -613l150 613h101l143 -605l128 605h71l-147 -690h-107l-143 603l-148 -603h-114zM384 758l107 142h99l-133 -142h-73z" />
    <glyph glyph-name="wacute" unicode="&#x1e83;" horiz-adv-x="721" 
d="M152 0l-137 494h72l119 -434l113 434h90l112 -431l120 431h66l-140 -494h-96l-111 429l-112 -429h-96zM333 569l107 165h94l-133 -165h-68z" />
    <glyph glyph-name="Wdieresis" unicode="&#x1e84;" horiz-adv-x="837" 
d="M25 690h81l119 -613l150 613h101l143 -605l128 605h71l-147 -690h-107l-143 603l-148 -603h-114zM270 826q0 24 13 36.5t37 12.5q25 0 38 -12.5t13 -36.5q0 -25 -13 -37t-38 -12q-24 0 -37 12t-13 37zM472 826q0 24 13 36.5t37 12.5t37 -12.5t13 -36.5q0 -25 -13 -37
t-37 -12t-37 12t-13 37z" />
    <glyph glyph-name="wdieresis" unicode="&#x1e85;" horiz-adv-x="721" 
d="M152 0l-137 494h72l119 -434l113 434h90l112 -431l120 431h66l-140 -494h-96l-111 429l-112 -429h-96zM213 653q0 24 13 36.5t37 12.5q25 0 38 -12.5t13 -36.5q0 -25 -13 -37.5t-38 -12.5q-24 0 -37 12.5t-13 37.5zM407 653q0 24 12.5 36.5t37.5 12.5q23 0 36.5 -12.5
t13.5 -36.5q0 -25 -13.5 -37.5t-36.5 -12.5q-25 0 -37.5 12.5t-12.5 37.5z" />
    <glyph glyph-name="Ygrave" unicode="&#x1ef2;" horiz-adv-x="579" 
d="M251 308l-245 382h86l203 -318l200 318h77l-241 -382v-308h-80v308zM266 758l-133 142h103l108 -142h-78z" />
    <glyph glyph-name="ygrave" unicode="&#x1ef3;" horiz-adv-x="471" 
d="M41 -141h37q48 0 70 17t40 68l14 38l-192 512h79l151 -410l150 410h70l-209 -564q-28 -75 -62 -102.5t-103 -27.5h-45v59zM74 734h98l107 -165h-72z" />
    <glyph glyph-name="enquad" unicode="&#x2000;" horiz-adv-x="500" 
 />
    <glyph glyph-name="emquad" unicode="&#x2001;" horiz-adv-x="1000" 
 />
    <glyph glyph-name="enspace" unicode="&#x2002;" horiz-adv-x="500" 
 />
    <glyph glyph-name="emspace" unicode="&#x2003;" horiz-adv-x="1000" 
 />
    <glyph glyph-name="thirdemspace" unicode="&#x2004;" horiz-adv-x="333" 
 />
    <glyph glyph-name="quarteremspace" unicode="&#x2005;" horiz-adv-x="250" 
 />
    <glyph glyph-name="sixthemspace" unicode="&#x2006;" horiz-adv-x="167" 
 />
    <glyph glyph-name="figurespace" unicode="&#x2007;" 
 />
    <glyph glyph-name="punctuationspace" unicode="&#x2008;" horiz-adv-x="201" 
 />
    <glyph glyph-name="thinspace" unicode="&#x2009;" horiz-adv-x="125" 
 />
    <glyph glyph-name="hairspace" unicode="&#x200a;" horiz-adv-x="42" 
 />
    <glyph glyph-name="zerowidthspace" unicode="&#x200b;" horiz-adv-x="0" 
 />
    <glyph glyph-name="uni2010" unicode="&#x2010;" horiz-adv-x="409" 
d="M50 293h310v-73h-310v73z" />
    <glyph glyph-name="uni2011" unicode="&#x2011;" horiz-adv-x="409" 
d="M50 293h310v-73h-310v73z" />
    <glyph glyph-name="endash" unicode="&#x2013;" horiz-adv-x="615" 
d="M44 287h527v-61h-527v61z" />
    <glyph glyph-name="emdash" unicode="&#x2014;" horiz-adv-x="815" 
d="M44 287h727v-61h-727v61z" />
    <glyph glyph-name="uni2015" unicode="&#x2015;" horiz-adv-x="815" 
d="M44 287h727v-61h-727v61z" />
    <glyph glyph-name="quoteleft" unicode="&#x2018;" horiz-adv-x="201" 
d="M146 655q-25 0 -34.5 -15.5t-9.5 -45.5v-17h3q23 0 36 -13t13 -37q0 -25 -13.5 -37.5t-37.5 -12.5t-38 12t-14 39v60q0 59 22 86t73 27v-46z" />
    <glyph glyph-name="quoteright" unicode="&#x2019;" horiz-adv-x="201" 
d="M59 523q25 0 34.5 15.5t9.5 45.5v17h-3q-23 0 -36 13t-13 37q0 25 13.5 37.5t37.5 12.5t38 -12t14 -39v-60q0 -59 -22 -86t-73 -27v46z" />
    <glyph glyph-name="quotesinglbase" unicode="&#x201a;" horiz-adv-x="192" 
d="M50 -89q25 0 34.5 15.5t9.5 45.5v17h-3q-23 0 -36 13t-13 37q0 25 13.5 37.5t37.5 12.5t38 -12t14 -39v-60q0 -59 -22 -86t-73 -27v46z" />
    <glyph glyph-name="quotedblleft" unicode="&#x201c;" horiz-adv-x="366" 
d="M311 655q-25 0 -34.5 -15.5t-9.5 -45.5v-17h3q23 0 36 -13t13 -37q0 -25 -13.5 -37.5t-37.5 -12.5t-38 12t-14 39v60q0 59 22 86t73 27v-46zM146 655q-25 0 -34.5 -15.5t-9.5 -45.5v-17h3q23 0 36 -13t13 -37q0 -25 -13.5 -37.5t-37.5 -12.5t-38 12t-14 39v60q0 59 22 86
t73 27v-46z" />
    <glyph glyph-name="quotedblright" unicode="&#x201d;" horiz-adv-x="366" 
d="M59 523q25 0 34.5 15.5t9.5 45.5v17h-3q-23 0 -36 13t-13 37q0 25 13.5 37.5t37.5 12.5t38 -12t14 -39v-60q0 -59 -22 -86t-73 -27v46zM224 523q25 0 34.5 15.5t9.5 45.5v17h-3q-23 0 -36 13t-13 37q0 25 13.5 37.5t37.5 12.5t38 -12t14 -39v-60q0 -59 -22 -86t-73 -27
v46z" />
    <glyph glyph-name="quotedblbase" unicode="&#x201e;" horiz-adv-x="358" 
d="M50 -89q25 0 34.5 15.5t9.5 45.5v17h-3q-23 0 -36 13t-13 37q0 25 13.5 37.5t37.5 12.5t38 -12t14 -39v-60q0 -59 -22 -86t-73 -27v46zM215 -89q25 0 34.5 15.5t9.5 45.5v17h-3q-23 0 -36 13t-13 37q0 25 13.5 37.5t37.5 12.5t38 -12t14 -39v-60q0 -59 -22 -86t-73 -27
v46z" />
    <glyph glyph-name="dagger" unicode="&#x2020;" horiz-adv-x="434" 
d="M178 0v471h-158v64h158v155h78v-155h158v-64h-158v-471h-78z" />
    <glyph glyph-name="daggerdbl" unicode="&#x2021;" horiz-adv-x="434" 
d="M20 152v63h158v260h-158v63h158v152h78v-152h158v-63h-158v-260h158v-63h-158v-152h-78v152h-158z" />
    <glyph glyph-name="bullet" unicode="&#x2022;" horiz-adv-x="396" 
d="M74 358q0 62 33 89.5t91 27.5q59 0 91 -27.5t32 -89.5t-32 -90t-91 -28q-58 0 -91 28t-33 90z" />
    <glyph glyph-name="ellipsis" unicode="&#x2026;" horiz-adv-x="561" 
d="M49 39q0 25 13 37.5t38 12.5t38.5 -12.5t13.5 -37.5t-13.5 -37.5t-38.5 -12.5t-38 12.5t-13 37.5zM229 39q0 25 13 37.5t38 12.5t38.5 -12.5t13.5 -37.5t-13.5 -37.5t-38.5 -12.5t-38 12.5t-13 37.5zM409 39q0 25 13 37.5t38 12.5t38.5 -12.5t13.5 -37.5t-13.5 -37.5
t-38.5 -12.5t-38 12.5t-13 37.5z" />
    <glyph glyph-name="nonbreakingspace.narrow" unicode="&#x202f;" horiz-adv-x="165" 
 />
    <glyph glyph-name="perthousand" unicode="&#x2030;" horiz-adv-x="1221" 
d="M30 521q0 94 45 137t124 43q80 0 124.5 -43t44.5 -137q0 -96 -44.5 -138t-124.5 -42q-79 0 -124 42t-45 138zM631 690h75l-507 -690h-75zM300 509v22q0 63 -26.5 87t-74.5 24q-47 0 -73.5 -24t-26.5 -87v-21q0 -64 27 -87t73 -23t73.5 23t27.5 86zM855 169q0 94 45 137
t124 43q80 0 124.5 -43t44.5 -137q0 -96 -44.5 -138t-124.5 -42q-79 0 -124 42t-45 138zM463 169q0 94 44.5 137t124.5 43q79 0 124 -43t45 -137q0 -96 -45 -138t-124 -42q-80 0 -124.5 42t-44.5 138zM1124 157v22q0 63 -26 87t-74 24q-47 0 -73.5 -24t-26.5 -87v-21
q0 -64 27 -87t73 -23t73 23t27 86zM732 157v22q0 63 -26.5 87t-73.5 24q-48 0 -74 -24t-26 -87v-21q0 -64 27 -87t73 -23t73 23t27 86z" />
    <glyph glyph-name="minute" unicode="&#x2032;" horiz-adv-x="208" 
d="M102 690h78l-71 -256h-67z" />
    <glyph glyph-name="second" unicode="&#x2033;" horiz-adv-x="379" 
d="M102 690h78l-71 -256h-67zM273 690h78l-71 -256h-67z" />
    <glyph glyph-name="guilsinglleft" unicode="&#x2039;" horiz-adv-x="286" 
d="M41 228v59l188 184v-80l-133 -131l134 -132v-84z" />
    <glyph glyph-name="guilsinglright" unicode="&#x203a;" horiz-adv-x="286" 
d="M245 284v-59l-188 -184v80l133 131l-134 132v84z" />
    <glyph glyph-name="fraction" unicode="&#x2044;" horiz-adv-x="237" 
d="M-173 0l512 690h73l-512 -690h-73z" />
    <glyph glyph-name="mathspacemedium" unicode="&#x205f;" horiz-adv-x="222" 
 />
    <glyph glyph-name="joinerspace" unicode="&#x2060;" horiz-adv-x="0" 
 />
    <glyph glyph-name="Euro" unicode="&#x20ac;" horiz-adv-x="693" 
d="M45 305h82q-1 10 -1 20.5v20.5v20.5t1 20.5h-82v56h87q17 136 85.5 197t178.5 61q116 0 176 -47.5t72 -151.5h-81q-10 77 -49.5 105.5t-117.5 28.5t-127 -46.5t-59 -146.5h240v-56h-243v-81v-1h243v-56h-240q11 -97 59.5 -146t127.5 -49q74 0 114.5 27.5t52.5 100.5h81
q-14 -101 -74.5 -147t-174.5 -46q-110 0 -179 61.5t-85 198.5h-87v56z" />
    <glyph glyph-name="uni20B4" unicode="&#x20b4;" horiz-adv-x="627" 
d="M49 389v54h354q25 14 41 34.5t16 50.5v20q0 41 -34 66t-112 25q-69 0 -109.5 -27t-41.5 -79h-78q2 81 64 124.5t166 43.5q117 0 171 -42.5t54 -114.5q0 -34 -14.5 -59t-33.5 -42h85v-54h-528zM77 148q0 35 14.5 60.5t35.5 42.5h-78v54h528v-54h-367q-25 -13 -38.5 -34.5
t-13.5 -48.5v-20q0 -45 36.5 -71t120.5 -26q75 0 118.5 27t44.5 79h78q-2 -81 -67 -124.5t-175 -43.5q-122 0 -179.5 43t-57.5 116z" />
    <glyph glyph-name="uni20B8" unicode="&#x20b8;" horiz-adv-x="583" 
d="M29 690h525v-60h-525v60zM251 486h-222v60h525v-60h-223v-486h-80v486z" />
    <glyph glyph-name="uni20BD" unicode="&#x20bd;" horiz-adv-x="656" 
d="M46 152v60h92v81h-92v63h92v334h285q96 0 143.5 -54t47.5 -147t-47.5 -144.5t-143.5 -51.5h-205v-81h260v-60h-260v-152h-80v152h-92zM533 476v25q0 57 -29.5 90t-93.5 33h-192v-268h192q66 0 94.5 33.5t28.5 86.5z" />
    <glyph glyph-name="afii61352" unicode="&#x2116;" horiz-adv-x="1064" 
d="M681 521q0 94 45 137t124 43q80 0 124.5 -43t44.5 -137q0 -96 -44.5 -138t-124.5 -42q-79 0 -124 42t-45 138zM476 0l-317 586v-586h-78v690h106l317 -586v586h78v-690h-106zM950 509v22q0 64 -26 87.5t-74 23.5q-47 0 -73.5 -23.5t-26.5 -87.5v-21q0 -64 27 -87t73 -23
t73 23t27 86zM695 210v60h310v-60h-310z" />
    <glyph glyph-name="trademark" unicode="&#x2122;" horiz-adv-x="777" 
d="M133 639h-105v51h274v-51h-104v-278h-65v278zM487 411l-88 212v-262h-59v329h86l99 -230l97 230h83v-329h-65v260l-88 -210h-65z" />
    <glyph glyph-name="uni2139" unicode="&#x2139;" horiz-adv-x="311" 
d="M144 652q0 26 15 40t43 14t43.5 -14t15.5 -40q0 -28 -15.5 -41.5t-43.5 -13.5t-43 13.5t-15 41.5zM8 430v64h232v-494h-75v430h-157z" />
    <glyph glyph-name="onethird" unicode="&#x2153;" horiz-adv-x="905" 
d="M27 619l89 71h63v-425h-63v362l-89 -71v63zM100 0l512 690h73l-512 -690h-73zM527 118h69q7 -34 30 -53t78 -19q43 0 68.5 14t25.5 45v24q0 32 -28 47.5t-68 15.5h-46v56h46q34 0 58.5 13t24.5 47v14q0 31 -22 44t-59 13q-46 0 -68.5 -15.5t-27.5 -43.5h-70q5 55 50 85.5
t117 30.5q63 0 106.5 -28.5t43.5 -83.5q0 -40 -23 -66t-64 -35q46 -8 72.5 -34.5t26.5 -70.5q0 -66 -44 -97.5t-119 -31.5q-84 0 -127 31t-50 98z" />
    <glyph glyph-name="twothirds" unicode="&#x2154;" horiz-adv-x="1027" 
d="M240 0l512 690h73l-512 -690h-73zM652 118h69q7 -34 30 -53t78 -19q43 0 68.5 14t25.5 45v24q0 32 -28 47.5t-68 15.5h-46v56h46q34 0 58.5 13t24.5 47v14q0 31 -22 44t-59 13q-46 0 -68.5 -15.5t-27.5 -43.5h-70q5 55 50 85.5t117 30.5q63 0 106.5 -28.5t43.5 -83.5
q0 -40 -23 -66t-64 -35q46 -8 72.5 -34.5t26.5 -70.5q0 -66 -44 -97.5t-119 -31.5q-84 0 -127 31t-50 98zM40 286q0 86 40 125.5t87.5 60t87.5 38t40 60.5v15q0 31 -23.5 45t-63.5 14q-43 0 -66.5 -17.5t-28.5 -54.5h-69q6 67 50 98t113 31q68 0 112 -27.5t44 -91.5
q0 -63 -37.5 -90t-84 -45.5t-87.5 -42.5t-48 -81h261v-58h-327v21z" />
    <glyph glyph-name="oneeighth" unicode="&#x215b;" horiz-adv-x="919" 
d="M28 619l89 71h63v-425h-63v362l-89 -71v63zM95 0l512 690h73l-512 -690h-73zM520 119q0 43 26.5 69t73.5 35q-44 11 -64 38t-20 61q0 60 46.5 87t118.5 27t118.5 -27t46.5 -87q0 -34 -20.5 -61t-63.5 -38q47 -9 73.5 -35t26.5 -69q0 -67 -47 -98.5t-134 -31.5
q-86 0 -133.5 31.5t-47.5 98.5zM799 312v10q0 30 -25.5 44.5t-72.5 14.5q-46 0 -71.5 -14.5t-25.5 -44.5v-10q0 -31 25.5 -47t71.5 -16t72 16t26 47zM813 111v15q0 35 -30.5 51.5t-81.5 16.5t-81.5 -16.5t-30.5 -50.5v-16q0 -36 31.5 -51.5t80.5 -15.5q50 0 81 15.5t31 51.5
z" />
    <glyph glyph-name="threeeighths" unicode="&#x215c;" horiz-adv-x="1017" 
d="M31 383h69q7 -34 30 -53t78 -19q43 0 68.5 14t25.5 45v24q0 32 -28 47.5t-68 15.5h-46v56h46q34 0 58.5 13t24.5 47v14q0 31 -22 44t-59 13q-46 0 -68.5 -15.5t-27.5 -43.5h-70q5 55 50 85.5t117 30.5q63 0 106.5 -28.5t43.5 -83.5q0 -40 -23 -66t-64 -35
q46 -8 72.5 -34.5t26.5 -70.5q0 -66 -44 -97.5t-119 -31.5q-84 0 -127 31t-50 98zM207 0l512 690h73l-512 -690h-73zM620 119q0 43 26.5 69t73.5 35q-44 11 -64 38t-20 61q0 60 46.5 87t118.5 27t118.5 -27t46.5 -87q0 -34 -20.5 -61t-63.5 -38q47 -9 73.5 -35t26.5 -69
q0 -67 -47 -98.5t-134 -31.5q-86 0 -133.5 31.5t-47.5 98.5zM899 312v10q0 30 -25.5 44.5t-72.5 14.5q-46 0 -71.5 -14.5t-25.5 -44.5v-10q0 -31 25.5 -47t71.5 -16t72 16t26 47zM913 111v15q0 35 -30.5 51.5t-81.5 16.5t-81.5 -16.5t-30.5 -50.5v-16q0 -36 31.5 -51.5
t80.5 -15.5q50 0 81 15.5t31 51.5z" />
    <glyph glyph-name="fiveeighths" unicode="&#x215d;" horiz-adv-x="1016" 
d="M207 0l512 690h73l-512 -690h-73zM619 119q0 43 26.5 69t73.5 35q-44 11 -64 38t-20 61q0 60 46.5 87t118.5 27t118.5 -27t46.5 -87q0 -34 -20.5 -61t-63.5 -38q47 -9 73.5 -35t26.5 -69q0 -67 -47 -98.5t-134 -31.5q-86 0 -133.5 31.5t-47.5 98.5zM898 312v10
q0 30 -25.5 44.5t-72.5 14.5q-46 0 -71.5 -14.5t-25.5 -44.5v-10q0 -31 25.5 -47t71.5 -16t72 16t26 47zM912 111v15q0 35 -30.5 51.5t-81.5 16.5t-81.5 -16.5t-30.5 -50.5v-16q0 -36 31.5 -51.5t80.5 -15.5q50 0 81 15.5t31 51.5zM31 374h69q7 -35 32.5 -49t67.5 -14
q49 0 75 19t26 62v21q0 43 -27 60t-76 17q-28 0 -55 -8t-45 -28l-53 9l25 227h272v-58h-219l-13 -119q17 13 44.5 22t64.5 9q66 0 108.5 -33.5t42.5 -105.5q0 -78 -45.5 -114.5t-123.5 -36.5q-73 0 -118 30t-52 90z" />
    <glyph glyph-name="seveneighths" unicode="&#x215e;" horiz-adv-x="906" 
d="M92 0l512 690h73l-512 -690h-73zM507 119q0 43 26.5 69t73.5 35q-44 11 -64 38t-20 61q0 60 46.5 87t118.5 27t118.5 -27t46.5 -87q0 -34 -20.5 -61t-63.5 -38q47 -9 73.5 -35t26.5 -69q0 -67 -47 -98.5t-134 -31.5q-86 0 -133.5 31.5t-47.5 98.5zM786 312v10
q0 30 -25.5 44.5t-72.5 14.5q-46 0 -71.5 -14.5t-25.5 -44.5v-10q0 -31 25.5 -47t71.5 -16t72 16t26 47zM800 111v15q0 35 -30.5 51.5t-81.5 16.5t-81.5 -16.5t-30.5 -50.5v-16q0 -36 31.5 -51.5t80.5 -15.5q50 0 81 15.5t31 51.5zM27 632v58h314v-41l-200 -384h-68l191 367
h-237z" />
    <glyph glyph-name="minus" unicode="&#x2212;" horiz-adv-x="575" 
d="M46 385h484v-67h-484v67z" />
    <glyph glyph-name="approxequal" unicode="&#x2248;" horiz-adv-x="617" 
d="M190 505q39 0 71 -9.5t59.5 -21t53 -21t51.5 -9.5q33 0 49 14.5t16 43.5h65q0 -57 -30.5 -89t-92.5 -32q-34 0 -63.5 9.5t-57 21t-54.5 21t-56 9.5q-36 0 -52.5 -14t-16.5 -43h-65q0 57 30.5 88.5t92.5 31.5zM190 325q39 0 71 -9.5t59.5 -21t53 -21t51.5 -9.5q34 0 50 14
t16 44h64q0 -58 -30.5 -90t-92.5 -32q-34 0 -63.5 9.5t-57 21t-54.5 21t-56 9.5q-36 0 -52.5 -14t-16.5 -43h-65q0 57 30.5 89t92.5 32z" />
    <glyph glyph-name="notequal" unicode="&#x2260;" horiz-adv-x="617" 
d="M67 287h173l64 131h-237v66h269l72 147h72l-72 -147h142v-66h-174l-64 -131h238v-67h-270l-71 -145h-72l71 145h-141v67z" />
    <glyph glyph-name="lessequal" unicode="&#x2264;" horiz-adv-x="608" 
d="M60 420v82l484 191v-71l-408 -160l408 -161v-72zM60 169h484v-67h-484v67z" />
    <glyph glyph-name="greaterequal" unicode="&#x2265;" horiz-adv-x="608" 
d="M64 300l408 161l-408 160v72l484 -191v-82l-484 -191v71zM64 169h484v-67h-484v67z" />
    <glyph glyph-name="Pcircle" unicode="&#x24c5;" horiz-adv-x="833" 
d="M52 346q0 85 27 152t75.5 111.5t116 68t146.5 23.5t146.5 -23.5t115.5 -68t75 -111.5t27 -152q0 -86 -27 -153t-75 -112t-115.5 -68.5t-146.5 -23.5t-146.5 23.5t-116 68.5t-75.5 112t-27 153zM724 313v63q0 66 -23.5 118t-64.5 87t-97.5 53.5t-121.5 18.5t-121.5 -18.5
t-97.5 -54t-65 -87.5t-24 -118v-62q0 -65 23.5 -116t64.5 -86.5t97.5 -54t122.5 -18.5t122.5 18.5t97.5 54t64 86.5t23 116zM297 546h149q72 0 104.5 -35t32.5 -92q0 -60 -32.5 -93t-104.5 -33h-82v-139h-67v392zM517 407v25q0 28 -20 43.5t-63 15.5h-70v-144h70q43 0 63 16
t20 44z" />
    <glyph glyph-name="uniF50A" unicode="&#xf50a;" horiz-adv-x="567" 
d="M39 184h81q0 -72 45 -101.5t120 -29.5q78 0 117 30.5t39 84.5v40q0 52 -33 82.5t-102 30.5h-109v62h109q57 0 85.5 30t28.5 80v35q0 54 -34.5 81.5t-106.5 27.5q-58 0 -102.5 -24t-46.5 -96h-81q3 99 67.5 141.5t162.5 42.5q106 0 164 -44.5t58 -137.5q0 -60 -29.5 -104
t-86.5 -57q63 -10 100 -51t37 -113q0 -101 -58.5 -153t-178.5 -52q-112 0 -177 44.5t-69 150.5zM237 -205v47q66 0 82.5 7t16.5 29t-18.5 28t-68.5 7v87h54v-47q41 -4 71.5 -18t30.5 -60q0 -40 -27.5 -60t-81.5 -20h-59z" />
    <glyph glyph-name="uniF50B" unicode="&#xf50b;" horiz-adv-x="465" 
d="M29 138h76q5 -49 35 -72t87 -23q60 0 90.5 20t30.5 69v18q0 40 -28.5 61.5t-79.5 21.5h-77v54h74q49 0 73.5 19t24.5 55v21q0 37 -27.5 53t-79.5 16q-55 0 -81.5 -19.5t-33.5 -61.5h-76q8 71 56.5 103t133.5 32q84 0 134 -31.5t50 -97.5q0 -39 -20 -69t-68 -43
q53 -14 77 -47t24 -73q0 -84 -51.5 -119.5t-145.5 -35.5q-83 0 -137 34.5t-61 114.5zM190 -205v47q66 0 82.5 7t16.5 29t-18.5 28t-68.5 7v87h54v-47q41 -4 71.5 -18t30.5 -60q0 -40 -27.5 -60t-81.5 -20h-59z" />
    <glyph glyph-name="uniF53E" unicode="&#xf53e;" horiz-adv-x="613" 
d="M49 346q0 189 72 272t203 83q119 0 180.5 -49t72.5 -156h-80q-10 81 -51.5 110.5t-121.5 29.5q-90 0 -142 -59t-52 -187v-84q0 -125 52 -188.5t143 -63.5q77 0 119 28t54 106h80q-13 -105 -75 -152t-179 -47q-131 0 -203 83.5t-72 273.5zM274 -204v47q66 0 82.5 7
t16.5 29t-18.5 28t-68.5 7v87h54v-47q41 -4 71.5 -18t30.5 -60q0 -40 -27.5 -60t-81.5 -20h-59z" />
    <glyph glyph-name="uniF53F" unicode="&#xf53f;" horiz-adv-x="488" 
d="M43 245q0 134 52.5 197t158.5 63q86 0 137.5 -35t60.5 -110h-76q-7 50 -40.5 69.5t-82.5 19.5q-67 0 -100.5 -39.5t-33.5 -126.5v-74q0 -91 40 -127.5t94 -36.5q56 0 86.5 23t37.5 67h76q-10 -74 -62.5 -110t-137.5 -36q-47 0 -85.5 12.5t-66 42t-43 78.5t-15.5 123z
M192 -205v47q66 0 82.5 7t16.5 29t-18.5 28t-68.5 7v87h54v-47q41 -4 71.5 -18t30.5 -60q0 -40 -27.5 -60t-81.5 -20h-59z" />
    <glyph glyph-name="dotlessj" unicode="&#xf6be;" horiz-adv-x="219" 
d="M-16 -140h28q35 0 47.5 15.5t12.5 44.5v574h75v-578q0 -61 -27 -88.5t-94 -27.5h-42v60z" />
    <glyph glyph-name="commaaccent" unicode="&#xf6c3;" horiz-adv-x="305" 
d="M117 -194q25 0 34 14t9 41h-3q-22 0 -35 12t-13 35q0 24 13.5 35.5t36.5 11.5q25 0 39 -12t14 -39v-33q0 -56 -22 -82.5t-73 -26.5v44z" />
    <glyph glyph-name="cyrbreve" unicode="&#xf6d4;" horiz-adv-x="307" 
d="M10 726h68q0 -54 18 -80.5t57 -26.5t57.5 26.5t18.5 80.5h68q0 -76 -36 -117t-108 -41q-71 0 -107 40.5t-36 117.5z" />
    <glyph glyph-name="f_f" unicode="&#xfb00;" horiz-adv-x="552" 
d="M22 494h64v118q0 63 28.5 90.5t100.5 27.5h65v-60h-61q-34 0 -46 -15t-12 -43v-118h182v118q0 63 28.5 90.5t100.5 27.5h69v-60h-65q-34 0 -46 -15t-12 -43v-118h123v-59h-123v-435h-75v435h-182v-435h-75v435h-64v59z" />
    <glyph glyph-name="f_i" unicode="&#xfb01;" horiz-adv-x="490" 
d="M22 494h64v118q0 60 28.5 89t99.5 29h204v-60h-199q-34 0 -46 -15t-12 -43v-118h257v-494h-75v435h-182v-435h-75v435h-64v59z" />
    <glyph glyph-name="f_l" unicode="&#xfb02;" horiz-adv-x="490" 
d="M22 494h64v118q0 60 28.5 89t99.5 29h204v-730h-75v435h-182v-435h-75v435h-64v59zM161 614v-120h182v181h-124q-34 0 -46 -16.5t-12 -44.5z" />
    <glyph glyph-name="f_f_i" unicode="&#xfb03;" horiz-adv-x="747" 
d="M22 494h64v118q0 63 28.5 90.5t100.5 27.5h65v-60h-61q-34 0 -46 -15t-12 -43v-118h182v118q0 60 28.5 89t99.5 29h204v-60h-199q-34 0 -46 -15t-12 -43v-118h257v-494h-75v435h-182v-435h-75v435h-182v-435h-75v435h-64v59z" />
    <glyph glyph-name="f_f_l" unicode="&#xfb04;" horiz-adv-x="747" 
d="M22 494h64v118q0 63 28.5 90.5t100.5 27.5h65v-60h-61q-34 0 -46 -15t-12 -43v-118h182v118q0 60 28.5 89t99.5 29h204v-730h-75v435h-182v-435h-75v435h-182v-435h-75v435h-64v59zM418 614v-120h182v181h-124q-34 0 -46 -16.5t-12 -44.5z" />
    <glyph glyph-name="zerowidthnobreak" unicode="&#xfeff;" horiz-adv-x="0" 
 />
    <glyph glyph-name="f_b" horiz-adv-x="830" 
d="M22 494h64v118q0 60 28.5 89t99.5 29h204v-306q25 43 66 62t92 19q102 0 156.5 -59t54.5 -199t-54.5 -199t-156.5 -59q-54 0 -95.5 21t-66.5 67v-77h-71v435h-182v-435h-75v435h-64v59zM161 614v-120h182v181h-124q-34 0 -46 -16.5t-12 -44.5zM711 212v70
q0 90 -40.5 128.5t-106.5 38.5q-68 0 -107 -38.5t-39 -128.5v-70q0 -83 40 -125t106 -42q68 0 107.5 42t39.5 125z" />
    <glyph glyph-name="f_f_b" horiz-adv-x="1087" 
d="M22 494h64v118q0 63 28.5 90.5t100.5 27.5h65v-60h-61q-34 0 -46 -15t-12 -43v-118h182v118q0 60 28.5 89t99.5 29h204v-306q25 43 66 62t92 19q102 0 156.5 -59t54.5 -199t-54.5 -199t-156.5 -59q-54 0 -95.5 21t-66.5 67v-77h-71v435h-182v-435h-75v435h-182v-435h-75
v435h-64v59zM418 614v-120h182v181h-124q-34 0 -46 -16.5t-12 -44.5zM968 212v70q0 90 -40.5 128.5t-106.5 38.5q-68 0 -107 -38.5t-39 -128.5v-70q0 -83 40 -125t106 -42q69 0 108 42t39 125z" />
    <glyph glyph-name="f_f_h" horiz-adv-x="1072" 
d="M22 494h64v118q0 63 28.5 90.5t100.5 27.5h65v-60h-61q-34 0 -46 -15t-12 -43v-118h182v118q0 60 28.5 89t99.5 29h204v-305q22 42 62.5 61t91.5 19q86 0 131.5 -45.5t45.5 -146.5v-313h-75v313q0 81 -31.5 108t-88.5 27q-61 0 -98.5 -30t-37.5 -105v-313h-75v435h-182
v-435h-75v435h-182v-435h-75v435h-64v59zM418 614v-120h182v181h-124q-34 0 -46 -16.5t-12 -44.5z" />
    <glyph glyph-name="f_f_j" horiz-adv-x="747" 
d="M22 494h64v118q0 63 28.5 90.5t100.5 27.5h65v-60h-61q-34 0 -46 -15t-12 -43v-118h182v118q0 60 28.5 89t99.5 29h204v-60h-199q-34 0 -46 -15t-12 -43v-118h257v-578q0 -61 -27 -88.5t-94 -27.5h-42v60h28q35 0 47.5 15.5t12.5 44.5v515h-182v-435h-75v435h-182v-435
h-75v435h-64v59z" />
    <glyph glyph-name="f_f_k" horiz-adv-x="997" 
d="M22 494h64v118q0 63 28.5 90.5t100.5 27.5h65v-60h-61q-34 0 -46 -15t-12 -43v-118h182v118q0 60 28.5 89t99.5 29h204v-452h53l166 216h82l-185 -240l209 -254h-92l-181 219h-52v-219h-75v435h-182v-435h-75v435h-182v-435h-75v435h-64v59zM418 614v-120h182v181h-124
q-34 0 -46 -16.5t-12 -44.5z" />
    <glyph glyph-name="f_h" horiz-adv-x="815" 
d="M22 494h64v118q0 60 28.5 89t99.5 29h204v-305q22 42 62.5 61t91.5 19q86 0 131.5 -45.5t45.5 -146.5v-313h-75v313q0 81 -31.5 108t-88.5 27q-61 0 -98.5 -30t-37.5 -105v-313h-75v435h-182v-435h-75v435h-64v59zM161 614v-120h182v181h-124q-34 0 -46 -16.5t-12 -44.5z
" />
    <glyph glyph-name="f_j" horiz-adv-x="490" 
d="M255 -140h28q34 0 47 15.5t13 44.5v515h-182v-435h-75v435h-64v59h64v118q0 60 28.5 89t99.5 29h204v-60h-199q-34 0 -46 -15t-12 -43v-118h257v-578q0 -61 -27 -88.5t-94 -27.5h-42v60z" />
    <glyph glyph-name="f_k" horiz-adv-x="740" 
d="M22 494h64v118q0 60 28.5 89t99.5 29h204v-452h53l166 216h82l-185 -240l209 -254h-92l-181 219h-52v-219h-75v435h-182v-435h-75v435h-64v59zM161 614v-120h182v181h-124q-34 0 -46 -16.5t-12 -44.5z" />
    <glyph glyph-name="acute.ucpl" horiz-adv-x="171" 
d="M9 758l62 142h90l-86 -142h-66z" />
    <glyph glyph-name="hyphen.uc" horiz-adv-x="411" 
d="M51 387h310v-73h-310v73z" />
    <glyph glyph-name="uni2010.uc" horiz-adv-x="411" 
d="M51 387h310v-73h-310v73z" />
    <glyph glyph-name="uni2011.uc" horiz-adv-x="411" 
d="M51 387h310v-73h-310v73z" />
    <glyph glyph-name="endash.uc" horiz-adv-x="629" 
d="M51 381h527v-61h-527v61z" />
    <glyph glyph-name="emdash.uc" horiz-adv-x="821" 
d="M47 381h727v-61h-727v61z" />
    <glyph glyph-name="uni2015.uc" horiz-adv-x="821" 
d="M47 381h727v-61h-727v61z" />
    <glyph glyph-name="parenleft.uc" horiz-adv-x="313" 
d="M49 345q0 123 17.5 211t49.5 145t77.5 87t100.5 37v-64q-74 -15 -119.5 -105t-45.5 -240v-138q0 -154 46 -244t119 -105v-64q-113 15 -179 125t-66 355z" />
    <glyph glyph-name="parenright.uc" horiz-adv-x="312" 
d="M263 346q0 -123 -17.5 -211t-49.5 -145t-77.5 -87t-100.5 -37v64q74 15 119.5 105t45.5 240v138q0 154 -46 244t-119 105v64q113 -15 179 -125t66 -355z" />
    <glyph glyph-name="bracketleft.uc" horiz-adv-x="326" 
d="M80 822h227v-63h-154v-824h154v-63h-227v950z" />
    <glyph glyph-name="bracketright.uc" horiz-adv-x="326" 
d="M246 -128h-227v63h154v824h-154v63h227v-950z" />
    <glyph glyph-name="braceleft.uc" horiz-adv-x="346" 
d="M106 -12v202q0 55 -13.5 86.5t-64.5 32.5v74q51 1 64.5 34.5t13.5 84.5v202q0 62 25 89.5t91 27.5h105v-63h-88q-34 0 -47.5 -13.5t-13.5 -50.5v-201q0 -26 -2.5 -50.5t-12.5 -44.5t-29 -33.5t-52 -19.5q33 -4 52 -16.5t29 -31.5t12.5 -44t2.5 -53v-199q0 -39 13.5 -53
t47.5 -14h88v-63h-105q-66 0 -91 27.5t-25 89.5z" />
    <glyph glyph-name="braceright.uc" horiz-adv-x="346" 
d="M240 705v-202q0 -55 13.5 -86.5t64.5 -32.5v-74q-51 -1 -64.5 -34.5t-13.5 -84.5v-202q0 -62 -25 -89.5t-91 -27.5h-105v63h88q34 0 47.5 13.5t13.5 50.5v201q0 26 2.5 50.5t12.5 44.5t29 33.5t52 19.5q-33 4 -52 16.5t-29 31.5t-12.5 44t-2.5 53v199q0 39 -13.5 53
t-47.5 14h-88v63h105q66 0 91 -27.5t25 -89.5z" />
    <glyph glyph-name="guilsinglleft.uc" horiz-adv-x="315" 
d="M55 321v59l188 184v-80l-133 -131l134 -132v-84z" />
    <glyph glyph-name="guilsinglright.uc" horiz-adv-x="315" 
d="M259 378v-59l-188 -184v80l133 131l-134 132v84z" />
    <glyph glyph-name="guillemotleft.uc" horiz-adv-x="514" 
d="M55 321v59l188 184v-80l-133 -131l134 -132v-84zM254 321v59l188 184v-80l-133 -131l134 -132v-84z" />
    <glyph glyph-name="guillemotright.uc" horiz-adv-x="514" 
d="M459 378v-59l-188 -184v80l133 131l-134 132v84zM260 378v-59l-188 -184v80l133 131l-134 132v84z" />
    <glyph glyph-name="slash.uc" horiz-adv-x="427" 
d="M329 750h78l-308 -810h-78z" />
    <glyph glyph-name="backslash.uc" horiz-adv-x="427" 
d="M328 -60l-308 810h78l308 -810h-78z" />
    <glyph glyph-name="bar.uc" horiz-adv-x="231" 
d="M79 790h72v-890h-72v890z" />
    <glyph glyph-name="at.uc" horiz-adv-x="951" 
d="M41 342q0 121 33 208t91 141.5t138.5 80.5t175.5 26q98 0 178 -25.5t136 -78t86.5 -134t30.5 -193.5q0 -77 -12 -129t-33 -82.5t-51.5 -43.5t-66.5 -13q-66 0 -97.5 32t-36.5 72q-22 -54 -64 -79t-96 -25q-90 0 -145.5 55t-55.5 186q0 134 54 191t147 57q47 0 84.5 -18
t61.5 -58v64h69v-274q0 -46 5.5 -74.5t16 -44t26 -21t36.5 -5.5q40 0 63.5 38.5t23.5 125.5v66q0 97 -28 165t-76.5 110t-114.5 61t-141 19q-73 0 -140 -19t-117.5 -61.5t-80.5 -111.5t-30 -169v-74q0 -105 34.5 -175t88 -111t119 -58t126.5 -17q25 0 55 2t59 7t55.5 13
t44.5 19v-58q-34 -19 -91.5 -29t-122.5 -10q-78 0 -156.5 20.5t-141 72t-101.5 139t-39 220.5zM597 314v59q0 83 -37 120.5t-98 37.5t-98.5 -38t-37.5 -124v-59q0 -77 37.5 -115.5t98.5 -38.5t98 39t37 119z" />
    <glyph glyph-name="exclamdown.uc" horiz-adv-x="236" 
d="M66 651q0 25 13 37.5t38 12.5t38.5 -12.5t13.5 -37.5t-13.5 -37.5t-38.5 -12.5t-38 12.5t-13 37.5zM73 0l12 517h65l12 -517h-89z" />
    <glyph glyph-name="questiondown.uc" horiz-adv-x="508" 
d="M320 651q0 -25 -13 -37.5t-38 -12.5t-38.5 12.5t-13.5 37.5t13.5 37.5t38.5 12.5t38 -12.5t13 -37.5zM111 178v-27q0 -49 36 -73t99 -24q72 0 112.5 29t42.5 106h81q-3 -108 -68 -154t-169 -46q-46 0 -85.5 10t-68 31t-45 53.5t-16.5 77.5q0 71 32.5 103.5t70.5 56.5
t70.5 57t32.5 105v34h68v-34q0 -81 -30 -122t-66.5 -66.5t-66.5 -48.5t-30 -68z" />
    <glyph glyph-name="acute.uc" horiz-adv-x="224" 
d="M9 758l107 142h99l-133 -142h-73z" />
    <glyph glyph-name="grave.uc" horiz-adv-x="229" 
d="M142 758l-133 142h103l108 -142h-78z" />
    <glyph glyph-name="hungarumlaut.uc" horiz-adv-x="366" 
d="M9 758l74 142h93l-99 -142h-68zM159 758l101 142h97l-126 -142h-72z" />
    <glyph glyph-name="circumflex.uc" horiz-adv-x="363" 
d="M9 758l137 142h69l139 -142h-84l-90 89l-90 -89h-81z" />
    <glyph glyph-name="caron.uc" horiz-adv-x="363" 
d="M9 900h84l91 -89l89 89h81l-137 -142h-69z" />
    <glyph glyph-name="breve.uc" horiz-adv-x="309" 
d="M10 900h65q0 -46 19.5 -66.5t59.5 -20.5q41 0 60.5 20.5t19.5 66.5h65q0 -69 -36.5 -106.5t-108.5 -37.5q-71 0 -107.5 37t-36.5 107z" />
    <glyph glyph-name="tilde.uc" horiz-adv-x="319" 
d="M94 892q27 0 45 -11t31.5 -24.5t25 -24.5t24.5 -11q19 0 26.5 20.5t7.5 50.5h55q0 -58 -19.5 -92.5t-64.5 -34.5q-27 0 -45 11.5t-32 24.5t-25.5 24.5t-24.5 11.5q-19 0 -26.5 -20t-7.5 -51h-54q0 58 19.5 92t64.5 34z" />
    <glyph glyph-name="macron.uc" horiz-adv-x="296" 
d="M10 807v55h276v-55h-276z" />
    <glyph glyph-name="dieresis.uc" horiz-adv-x="338" 
d="M18 826q0 24 13 36.5t37 12.5q25 0 38 -12.5t13 -36.5q0 -25 -13 -37t-38 -12q-24 0 -37 12t-13 37zM220 826q0 24 13 36.5t37 12.5t37 -12.5t13 -36.5q0 -25 -13 -37t-37 -12t-37 12t-13 37z" />
    <glyph glyph-name="dotaccent.uc" horiz-adv-x="132" 
d="M10 828q0 24 14.5 36.5t40.5 12.5q28 0 42.5 -12.5t14.5 -36.5q0 -25 -14.5 -37.5t-42.5 -12.5q-26 0 -40.5 12.5t-14.5 37.5z" />
    <glyph glyph-name="ring.uc" horiz-adv-x="267" 
d="M10 833q0 42 30 63.5t93 21.5q64 0 94 -21.5t30 -63.5q0 -43 -30.5 -64.5t-93.5 -21.5t-93 21.5t-30 64.5zM134 793q40 0 53.5 10.5t13.5 29.5t-13.5 29t-53.5 10q-41 0 -54.5 -10t-13.5 -29t13.5 -29.5t54.5 -10.5z" />
    <glyph glyph-name="uni00AD.uc" horiz-adv-x="411" 
d="M51 387h310v-73h-310v73z" />
    <glyph glyph-name="cyrbreve.uc" horiz-adv-x="320" 
d="M13 897h71q0 -48 18 -69t57 -21t57 21t18 69h72q0 -69 -37 -106t-110 -37q-72 0 -109 37t-37 106z" />
    <glyph glyph-name="zero.den" horiz-adv-x="456" 
d="M228 -11q-93 0 -139 58t-46 165q0 111 46 167.5t139 56.5q94 0 139.5 -56.5t45.5 -167.5q0 -107 -45.5 -165t-139.5 -58zM228 46q58 0 87 38t29 104v51q0 68 -29.5 104t-86.5 36q-58 0 -87 -36t-29 -104v-51q0 -66 28.5 -104t87.5 -38z" />
    <glyph glyph-name="one.den" horiz-adv-x="248" 
d="M26 354l89 71h63v-425h-63v362l-89 -71v63z" />
    <glyph glyph-name="two.den" horiz-adv-x="409" 
d="M40 21q0 86 40 125.5t87.5 60t87.5 38t40 60.5v15q0 31 -23.5 45t-63.5 14q-43 0 -66.5 -17.5t-28.5 -54.5h-69q6 67 50 98t113 31q68 0 112 -27.5t44 -91.5q0 -63 -37.5 -90t-84 -45.5t-87.5 -42.5t-48 -81h261v-58h-327v21z" />
    <glyph glyph-name="three.den" horiz-adv-x="418" 
d="M36 118h69q7 -34 30 -53t78 -19q43 0 68.5 14t25.5 45v24q0 32 -28 47.5t-68 15.5h-46v56h46q34 0 58.5 13t24.5 47v14q0 31 -22 44t-59 13q-46 0 -68.5 -15.5t-27.5 -43.5h-70q5 55 50 85.5t117 30.5q63 0 106.5 -28.5t43.5 -83.5q0 -40 -23 -66t-64 -35
q46 -8 72.5 -34.5t26.5 -70.5q0 -66 -44 -97.5t-119 -31.5q-84 0 -127 31t-50 98z" />
    <glyph glyph-name="four.den" horiz-adv-x="422" 
d="M25 149l205 276h98v-268h65v-57h-65v-100h-67v100h-236v49zM97 157h164v221z" />
    <glyph glyph-name="five.den" horiz-adv-x="410" 
d="M35 109h69q7 -35 32.5 -49t67.5 -14q49 0 75 19t26 62v21q0 43 -27 60t-76 17q-28 0 -55 -8t-45 -28l-53 9l25 227h272v-58h-219l-13 -119q17 13 44.5 22t64.5 9q66 0 108.5 -33.5t42.5 -105.5q0 -78 -45.5 -114.5t-123.5 -36.5q-73 0 -118 30t-52 90z" />
    <glyph glyph-name="six.den" horiz-adv-x="434" 
d="M44 199q0 70 13.5 116t37.5 73t58.5 37.5t75.5 10.5q75 0 112.5 -29t44.5 -74h-68q-5 22 -27.5 34t-61.5 12q-55 0 -86.5 -29t-31.5 -114v-14q20 27 53.5 40t77.5 13q66 0 109 -32t43 -108q0 -75 -44.5 -110.5t-125.5 -35.5q-89 0 -134.5 44t-45.5 166zM325 118v30
q0 37 -25.5 55t-74.5 18q-57 0 -83.5 -21.5t-26.5 -65.5q0 -43 26 -66.5t82 -23.5q50 0 76 19.5t26 54.5z" />
    <glyph glyph-name="seven.den" horiz-adv-x="356" 
d="M23 367v58h314v-41l-200 -384h-68l191 367h-237z" />
    <glyph glyph-name="eight.den" horiz-adv-x="444" 
d="M41 119q0 43 26.5 69t73.5 35q-44 11 -64 38t-20 61q0 60 46.5 87t118.5 27t118.5 -27t46.5 -87q0 -34 -20.5 -61t-63.5 -38q47 -9 73.5 -35t26.5 -69q0 -67 -47 -98.5t-134 -31.5q-86 0 -133.5 31.5t-47.5 98.5zM320 312v10q0 30 -25.5 44.5t-72.5 14.5
q-46 0 -71.5 -14.5t-25.5 -44.5v-10q0 -31 25.5 -47t71.5 -16t72 16t26 47zM334 111v15q0 35 -30.5 51.5t-81.5 16.5t-81.5 -16.5t-30.5 -50.5v-16q0 -36 31.5 -51.5t80.5 -15.5q50 0 81 15.5t31 51.5z" />
    <glyph glyph-name="nine.den" horiz-adv-x="434" 
d="M390 226q0 -70 -13.5 -116t-37.5 -73t-58.5 -37.5t-75.5 -10.5q-75 0 -112.5 29t-44.5 74h68q5 -22 27.5 -34t61.5 -12q55 0 86.5 29t31.5 114v14q-20 -27 -53.5 -40t-77.5 -13q-66 0 -109 32t-43 108q0 75 44.5 110.5t125.5 35.5q89 0 134.5 -44t45.5 -166zM109 307v-30
q0 -37 25.5 -55t74.5 -18q57 0 83.5 21.5t26.5 65.5q0 43 -26 66.5t-82 23.5q-50 0 -76 -19.5t-26 -54.5z" />
    <glyph glyph-name="zero.num" horiz-adv-x="455" 
d="M227 254q-93 0 -139 58t-46 165q0 111 46 167.5t139 56.5q94 0 139.5 -56.5t45.5 -167.5q0 -107 -45.5 -165t-139.5 -58zM227 311q58 0 87 38t29 104v51q0 68 -29.5 104t-86.5 36q-58 0 -87 -36t-29 -104v-51q0 -66 28.5 -104t87.5 -38z" />
    <glyph glyph-name="one.num" horiz-adv-x="248" 
d="M26 619l89 71h63v-425h-63v362l-89 -71v63z" />
    <glyph glyph-name="two.num" horiz-adv-x="409" 
d="M40 286q0 86 40 125.5t87.5 60t87.5 38t40 60.5v15q0 31 -23.5 45t-63.5 14q-43 0 -66.5 -17.5t-28.5 -54.5h-69q6 67 50 98t113 31q68 0 112 -27.5t44 -91.5q0 -63 -37.5 -90t-84 -45.5t-87.5 -42.5t-48 -81h261v-58h-327v21z" />
    <glyph glyph-name="three.num" horiz-adv-x="418" 
d="M35 383h69q7 -34 30 -53t78 -19q43 0 68.5 14t25.5 45v24q0 32 -28 47.5t-68 15.5h-46v56h46q34 0 58.5 13t24.5 47v14q0 31 -22 44t-59 13q-46 0 -68.5 -15.5t-27.5 -43.5h-70q5 55 50 85.5t117 30.5q63 0 106.5 -28.5t43.5 -83.5q0 -40 -23 -66t-64 -35
q46 -8 72.5 -34.5t26.5 -70.5q0 -66 -44 -97.5t-119 -31.5q-84 0 -127 31t-50 98z" />
    <glyph glyph-name="four.num" horiz-adv-x="423" 
d="M26 414l205 276h98v-268h65v-57h-65v-100h-67v100h-236v49zM98 422h164v221z" />
    <glyph glyph-name="five.num" horiz-adv-x="410" 
d="M35 374h69q7 -35 32.5 -49t67.5 -14q49 0 75 19t26 62v21q0 43 -27 60t-76 17q-28 0 -55 -8t-45 -28l-53 9l25 227h272v-58h-219l-13 -119q17 13 44.5 22t64.5 9q66 0 108.5 -33.5t42.5 -105.5q0 -78 -45.5 -114.5t-123.5 -36.5q-73 0 -118 30t-52 90z" />
    <glyph glyph-name="six.num" horiz-adv-x="434" 
d="M44 465q0 70 13.5 116t37.5 73t58.5 37.5t75.5 10.5q75 0 112.5 -29t44.5 -74h-68q-5 22 -27.5 34t-61.5 12q-55 0 -86.5 -29t-31.5 -114v-14q20 27 53.5 40t77.5 13q66 0 109 -32t43 -108q0 -75 -44.5 -110.5t-125.5 -35.5q-89 0 -134.5 44t-45.5 166zM325 384v30
q0 37 -25.5 55t-74.5 18q-57 0 -83.5 -21.5t-26.5 -65.5q0 -43 26 -66.5t82 -23.5q50 0 76 19.5t26 54.5z" />
    <glyph glyph-name="seven.num" horiz-adv-x="355" 
d="M22 632v58h314v-41l-200 -384h-68l191 367h-237z" />
    <glyph glyph-name="eight.num" horiz-adv-x="444" 
d="M41 384q0 43 26.5 69t73.5 35q-44 11 -64 38t-20 61q0 60 46.5 87t118.5 27t118.5 -27t46.5 -87q0 -34 -20.5 -61t-63.5 -38q47 -9 73.5 -35t26.5 -69q0 -67 -47 -98.5t-134 -31.5q-86 0 -133.5 31.5t-47.5 98.5zM320 577v10q0 30 -25.5 44.5t-72.5 14.5
q-46 0 -71.5 -14.5t-25.5 -44.5v-10q0 -31 25.5 -47t71.5 -16t72 16t26 47zM334 376v15q0 35 -30.5 51.5t-81.5 16.5t-81.5 -16.5t-30.5 -50.5v-16q0 -36 31.5 -51.5t80.5 -15.5q50 0 81 15.5t31 51.5z" />
    <glyph glyph-name="nine.num" horiz-adv-x="434" 
d="M390 491q0 -70 -13.5 -116t-37.5 -73t-58.5 -37.5t-75.5 -10.5q-75 0 -112.5 29t-44.5 74h68q5 -22 27.5 -34t61.5 -12q55 0 86.5 29t31.5 114v14q-20 -27 -53.5 -40t-77.5 -13q-66 0 -109 32t-43 108q0 75 44.5 110.5t125.5 35.5q89 0 134.5 -44t45.5 -166zM109 572v-30
q0 -37 25.5 -55t74.5 -18q57 0 83.5 21.5t26.5 65.5q0 43 -26 66.5t-82 23.5q-50 0 -76 -19.5t-26 -54.5z" />
    <glyph glyph-name="zero.sub" horiz-adv-x="456" 
d="M228 -95q-93 0 -139 58t-46 165q0 111 46 167.5t139 56.5q94 0 139.5 -56.5t45.5 -167.5q0 -107 -45.5 -165t-139.5 -58zM228 -38q58 0 87 38t29 104v51q0 68 -29.5 104t-86.5 36q-58 0 -87 -36t-29 -104v-51q0 -66 28.5 -104t87.5 -38z" />
    <glyph glyph-name="one.sub" horiz-adv-x="249" 
d="M27 270l89 71h63v-425h-63v362l-89 -71v63z" />
    <glyph glyph-name="two.sub" horiz-adv-x="409" 
d="M40 -63q0 86 40 125.5t87.5 60t87.5 38t40 60.5v15q0 31 -23.5 45t-63.5 14q-43 0 -66.5 -17.5t-28.5 -54.5h-69q6 67 50 98t113 31q68 0 112 -27.5t44 -91.5q0 -63 -37.5 -90t-84 -45.5t-87.5 -42.5t-48 -81h261v-58h-327v21z" />
    <glyph glyph-name="three.sub" horiz-adv-x="418" 
d="M36 34h69q7 -34 30 -53t78 -19q43 0 68.5 14t25.5 45v24q0 32 -28 47.5t-68 15.5h-46v56h46q34 0 58.5 13t24.5 47v14q0 31 -22 44t-59 13q-46 0 -68.5 -15.5t-27.5 -43.5h-70q5 55 50 85.5t117 30.5q63 0 106.5 -28.5t43.5 -83.5q0 -40 -23 -66t-64 -35
q46 -8 72.5 -34.5t26.5 -70.5q0 -66 -44 -97.5t-119 -31.5q-84 0 -127 31t-50 98z" />
    <glyph glyph-name="four.sub" horiz-adv-x="421" 
d="M25 65l205 276h98v-268h65v-57h-65v-100h-67v100h-236v49zM97 73h164v221z" />
    <glyph glyph-name="five.sub" horiz-adv-x="410" 
d="M35 25h69q7 -35 32.5 -49t67.5 -14q49 0 75 19t26 62v21q0 43 -27 60t-76 17q-28 0 -55 -8t-45 -28l-53 9l25 227h272v-58h-219l-13 -119q17 13 44.5 22t64.5 9q66 0 108.5 -33.5t42.5 -105.5q0 -78 -45.5 -114.5t-123.5 -36.5q-73 0 -118 30t-52 90z" />
    <glyph glyph-name="six.sub" horiz-adv-x="434" 
d="M44 115q0 70 13.5 116t37.5 73t58.5 37.5t75.5 10.5q75 0 112.5 -29t44.5 -74h-68q-5 22 -27.5 34t-61.5 12q-55 0 -86.5 -29t-31.5 -114v-14q20 27 53.5 40t77.5 13q66 0 109 -32t43 -108q0 -75 -44.5 -110.5t-125.5 -35.5q-89 0 -134.5 44t-45.5 166zM325 34v30
q0 37 -25.5 55t-74.5 18q-57 0 -83.5 -21.5t-26.5 -65.5q0 -43 26 -66.5t82 -23.5q50 0 76 19.5t26 54.5z" />
    <glyph glyph-name="seven.sub" horiz-adv-x="356" 
d="M23 283v58h314v-41l-200 -384h-68l191 367h-237z" />
    <glyph glyph-name="eight.sub" horiz-adv-x="444" 
d="M41 35q0 43 26.5 69t73.5 35q-44 11 -64 38t-20 61q0 60 46.5 87t118.5 27t118.5 -27t46.5 -87q0 -34 -20.5 -61t-63.5 -38q47 -9 73.5 -35t26.5 -69q0 -67 -47 -98.5t-134 -31.5q-86 0 -133.5 31.5t-47.5 98.5zM320 228v10q0 30 -25.5 44.5t-72.5 14.5
q-46 0 -71.5 -14.5t-25.5 -44.5v-10q0 -31 25.5 -47t71.5 -16t72 16t26 47zM334 27v15q0 35 -30.5 51.5t-81.5 16.5t-81.5 -16.5t-30.5 -50.5v-16q0 -36 31.5 -51.5t80.5 -15.5q50 0 81 15.5t31 51.5z" />
    <glyph glyph-name="nine.sub" horiz-adv-x="435" 
d="M391 141q0 -70 -13.5 -116t-37.5 -73t-58.5 -37.5t-75.5 -10.5q-75 0 -112.5 29t-44.5 74h68q5 -22 27.5 -34t61.5 -12q55 0 86.5 29t31.5 114v14q-20 -27 -53.5 -40t-77.5 -13q-66 0 -109 32t-43 108q0 75 44.5 110.5t125.5 35.5q89 0 134.5 -44t45.5 -166zM110 222v-30
q0 -37 25.5 -55t74.5 -18q57 0 83.5 21.5t26.5 65.5q0 43 -26 66.5t-82 23.5q-50 0 -76 -19.5t-26 -54.5z" />
    <glyph glyph-name="zero.sup" horiz-adv-x="456" 
d="M228 364q-93 0 -139 58t-46 165q0 111 46 167.5t139 56.5q94 0 139.5 -56.5t45.5 -167.5q0 -107 -45.5 -165t-139.5 -58zM228 421q58 0 87 38t29 104v51q0 68 -29.5 104t-86.5 36q-58 0 -87 -36t-29 -104v-51q0 -66 28.5 -104t87.5 -38z" />
    <glyph glyph-name="one.sup" horiz-adv-x="249" 
d="M27 729l89 71h63v-425h-63v362l-89 -71v63z" />
    <glyph glyph-name="two.sup" horiz-adv-x="409" 
d="M40 396q0 86 40 125.5t87.5 60t87.5 38t40 60.5v15q0 31 -23.5 45t-63.5 14q-43 0 -66.5 -17.5t-28.5 -54.5h-69q6 67 50 98t113 31q68 0 112 -27.5t44 -91.5q0 -63 -37.5 -90t-84 -45.5t-87.5 -42.5t-48 -81h261v-58h-327v21z" />
    <glyph glyph-name="three.sup" horiz-adv-x="418" 
d="M36 493h69q7 -34 30 -53t78 -19q43 0 68.5 14t25.5 45v24q0 32 -28 47.5t-68 15.5h-46v56h46q34 0 58.5 13t24.5 47v14q0 31 -22 44t-59 13q-46 0 -68.5 -15.5t-27.5 -43.5h-70q5 55 50 85.5t117 30.5q63 0 106.5 -28.5t43.5 -83.5q0 -40 -23 -66t-64 -35
q46 -8 72.5 -34.5t26.5 -70.5q0 -66 -44 -97.5t-119 -31.5q-84 0 -127 31t-50 98z" />
    <glyph glyph-name="four.sup" horiz-adv-x="421" 
d="M25 524l205 276h98v-268h65v-57h-65v-100h-67v100h-236v49zM97 532h164v221z" />
    <glyph glyph-name="five.sup" horiz-adv-x="410" 
d="M35 484h69q7 -35 32.5 -49t67.5 -14q49 0 75 19t26 62v21q0 43 -27 60t-76 17q-28 0 -55 -8t-45 -28l-53 9l25 227h272v-58h-219l-13 -119q17 13 44.5 22t64.5 9q66 0 108.5 -33.5t42.5 -105.5q0 -78 -45.5 -114.5t-123.5 -36.5q-73 0 -118 30t-52 90z" />
    <glyph glyph-name="six.sup" horiz-adv-x="434" 
d="M44 575q0 70 13.5 116t37.5 73t58.5 37.5t75.5 10.5q75 0 112.5 -29t44.5 -74h-68q-5 22 -27.5 34t-61.5 12q-55 0 -86.5 -29t-31.5 -114v-14q20 27 53.5 40t77.5 13q66 0 109 -32t43 -108q0 -75 -44.5 -110.5t-125.5 -35.5q-89 0 -134.5 44t-45.5 166zM325 494v30
q0 37 -25.5 55t-74.5 18q-57 0 -83.5 -21.5t-26.5 -65.5q0 -43 26 -66.5t82 -23.5q50 0 76 19.5t26 54.5z" />
    <glyph glyph-name="seven.sup" horiz-adv-x="357" 
d="M23 742v58h314v-41l-200 -384h-68l191 367h-237z" />
    <glyph glyph-name="eight.sup" horiz-adv-x="444" 
d="M41 494q0 43 26.5 69t73.5 35q-44 11 -64 38t-20 61q0 60 46.5 87t118.5 27t118.5 -27t46.5 -87q0 -34 -20.5 -61t-63.5 -38q47 -9 73.5 -35t26.5 -69q0 -67 -47 -98.5t-134 -31.5q-86 0 -133.5 31.5t-47.5 98.5zM320 687v10q0 30 -25.5 44.5t-72.5 14.5
q-46 0 -71.5 -14.5t-25.5 -44.5v-10q0 -31 25.5 -47t71.5 -16t72 16t26 47zM334 486v15q0 35 -30.5 51.5t-81.5 16.5t-81.5 -16.5t-30.5 -50.5v-16q0 -36 31.5 -51.5t80.5 -15.5q50 0 81 15.5t31 51.5z" />
    <glyph glyph-name="nine.sup" horiz-adv-x="435" 
d="M391 601q0 -70 -13.5 -116t-37.5 -73t-58.5 -37.5t-75.5 -10.5q-75 0 -112.5 29t-44.5 74h68q5 -22 27.5 -34t61.5 -12q55 0 86.5 29t31.5 114v14q-20 -27 -53.5 -40t-77.5 -13q-66 0 -109 32t-43 108q0 75 44.5 110.5t125.5 35.5q89 0 134.5 -44t45.5 -166zM110 682v-30
q0 -37 25.5 -55t74.5 -18q57 0 83.5 21.5t26.5 65.5q0 43 -26 66.5t-82 23.5q-50 0 -76 -19.5t-26 -54.5z" />
    <glyph glyph-name="three.tab.alt" 
d="M109 188h82q7 -64 54 -99t151 -35q96 0 145 34t49 95v41q0 65 -56 97t-154 32h-70v51l230 220h-379v66h483v-51l-237 -228q140 -6 200.5 -59t60.5 -146q0 -115 -70.5 -166t-201.5 -51q-136 0 -207 48.5t-80 150.5z" />
    <glyph glyph-name="four.tab.alt" 
d="M101 242l299 448h80l-290 -435h285v209h80v-209h133v-64h-133v-191h-80v191h-374v51z" />
    <glyph glyph-name="afii10021.bgr" horiz-adv-x="715" 
d="M17 -150v217h69l219 623h113l213 -623h68v-217h-74v150h-534v-150h-74zM163 67h386l-191 561z" />
    <glyph glyph-name="afii10024.bgr" horiz-adv-x="851" 
d="M384 690h80v-311h45l245 311h84l-266 -338l275 -352h-93l-245 313h-45v-313h-80v313h-44l-245 -313h-91l273 349l-270 341h88l245 -311h44v311z" />
    <glyph glyph-name="afii10028.bgr" horiz-adv-x="567" 
d="M78 690h80v-310h75l231 310h86l-251 -337l270 -353h-96l-240 314h-75v-314h-80v690z" />
    <glyph glyph-name="afii10029.bgr" horiz-adv-x="600" 
d="M244 690h113l233 -690h-82l-210 623l-211 -623h-77z" />
    <glyph glyph-name="afii10067.bgr" horiz-adv-x="513" 
d="M65 201v320q0 47 10.5 87.5t34 69.5t63 45.5t96.5 16.5q99 0 143.5 -50.5t44.5 -140.5q0 -63 -28 -112t-83 -65q64 -13 95.5 -60.5t31.5 -116.5q0 -91 -50.5 -148.5t-154.5 -57.5q-109 0 -156 52.5t-47 159.5zM384 535v22q0 66 -30.5 94.5t-84.5 28.5q-72 0 -100.5 -40.5
t-28.5 -127.5v-119h107q68 0 102.5 35t34.5 107zM398 174v32q0 66 -35 99t-119 33h-104v-151q0 -69 28.5 -105t100.5 -36q60 0 94.5 34t34.5 94z" />
    <glyph glyph-name="afii10068.bgr" horiz-adv-x="473" 
d="M36 128q0 82 49.5 108.5t108 37.5t108 26.5t49.5 74.5q0 39 -29 57t-83 18q-48 0 -78.5 -18.5t-33.5 -71.5h-76q4 75 55.5 110t132.5 35q88 0 137 -34t49 -97q0 -81 -49.5 -107.5t-109 -38t-109 -27t-49.5 -74.5q0 -44 32 -63.5t92 -19.5q59 0 92.5 23.5t36.5 83.5h76
q-3 -81 -56.5 -121.5t-147.5 -40.5q-86 0 -141.5 33t-55.5 106z" />
    <glyph glyph-name="afii10069.bgr" horiz-adv-x="559" 
d="M65 -68h76q11 -49 47 -68t90 -19q78 0 107 38.5t29 128.5v65q-25 -40 -65 -59t-92 -19q-99 0 -155.5 58.5t-56.5 189.5q0 136 55 197t157 61q53 0 94.5 -19.5t66.5 -65.5v74h71v-482q0 -107 -49 -165t-163 -58q-94 0 -147.5 36t-64.5 107zM414 218v64q0 87 -40 127
t-106 40t-106.5 -40.5t-40.5 -130.5v-64q0 -79 41 -119t106 -40q68 0 107 38t39 125z" />
    <glyph glyph-name="afii10072.bgr" horiz-adv-x="683" 
d="M579 494h76l-165 -240l187 -254h-86l-161 219h-52v-219h-75v219h-52l-161 -219h-84l183 249l-168 245h81l149 -216h52v452h75v-452h52z" />
    <glyph glyph-name="afii10073.bgr" horiz-adv-x="453" 
d="M17 -46h75q5 -55 34.5 -81.5t86.5 -26.5q62 0 94 33.5t32 112.5v19q0 62 -29.5 96t-83.5 34h-91v57h88q51 0 77 31t26 85v24q0 59 -27 84.5t-79 25.5t-79 -24.5t-34 -75.5h-75q9 80 57.5 118.5t130.5 38.5q83 0 131.5 -42t48.5 -131q0 -56 -21 -98.5t-78 -59.5
q62 -17 87.5 -64.5t25.5 -106.5q0 -115 -53.5 -164.5t-147.5 -49.5q-82 0 -135.5 39t-60.5 126z" />
    <glyph glyph-name="afii10074.bgr" horiz-adv-x="544" 
d="M66 181v313h75v-313q0 -81 31.5 -108t88.5 -27q60 0 98 30t38 105v313h75v-494h-74v69q-21 -42 -61 -61t-94 -19q-86 0 -131.5 45t-45.5 147z" />
    <glyph glyph-name="afii10075.bgr" horiz-adv-x="544" 
d="M66 181v313h75v-313q0 -81 31.5 -108t88.5 -27q60 0 98 30t38 105v313h75v-494h-74v69q-21 -42 -61 -61t-94 -19q-86 0 -131.5 45t-45.5 147zM127 726h68q0 -54 18 -80.5t57 -26.5t57.5 26.5t18.5 80.5h68q0 -76 -36 -117t-108 -41q-71 0 -107 40.5t-36 117.5z" />
    <glyph glyph-name="afii10076.bgr" horiz-adv-x="469" 
d="M366 494h82l-185 -240l209 -254h-92l-181 219h-52v-219h-75v730h75v-452h53z" />
    <glyph glyph-name="afii10077.bgr" horiz-adv-x="470" 
d="M12 0l177 494h92l177 -494h-78l-148 417l-148 -417h-72z" />
    <glyph glyph-name="afii10079.bgr" horiz-adv-x="533" 
d="M72 494h75v-212h239v212h75v-494h-75v222h-239v-222h-75v494z" />
    <glyph glyph-name="afii10081.bgr" horiz-adv-x="544" 
d="M403 0v313q0 81 -31.5 108t-88.5 27q-61 0 -98.5 -30t-37.5 -105v-313h-75v494h71v-77q21 46 62.5 67t95.5 21q86 0 131.5 -45.5t45.5 -146.5v-313h-75z" />
    <glyph glyph-name="afii10084.bgr" horiz-adv-x="818" 
d="M374 0v313q0 81 -27.5 108t-77.5 27q-54 0 -88 -30t-34 -105v-313h-75v494h71v-77q20 46 60 67t88 21q55 0 92 -22t53 -71q19 49 61 71t96 22q77 0 118 -45.5t41 -146.5v-313h-75v313q0 81 -28 108t-78 27q-54 0 -88 -30t-34 -105v-313h-75z" />
    <glyph glyph-name="afii10088.bgr" horiz-adv-x="566" 
d="M66 181v313h75v-313q0 -81 31.5 -108t88.5 -27q60 0 98 30t38 105v313h75v-434h76v-200h-69v140h-81v69q-21 -42 -61 -61t-94 -19q-86 0 -131.5 45t-45.5 147z" />
    <glyph glyph-name="afii10089.bgr" horiz-adv-x="488" 
d="M341 207q-28 -5 -54.5 -7.5t-62.5 -2.5q-101 0 -143.5 40.5t-42.5 133.5v123h75v-120q0 -66 27.5 -91.5t91.5 -25.5q34 0 57.5 2t51.5 8v227h75v-494h-75v207z" />
    <glyph glyph-name="afii10090.bgr" horiz-adv-x="818" 
d="M66 181v313h75v-313q0 -81 28 -108t78 -27q54 0 88 30t34 105v313h75v-313q0 -81 27.5 -108t77.5 -27q54 0 88 30t34 105v313h75v-494h-74v72q-21 -43 -59.5 -63t-84.5 -20q-55 0 -92 22.5t-54 70.5q-19 -48 -61 -70.5t-95 -22.5q-78 0 -119 46t-41 146z" />
    <glyph glyph-name="afii10091.bgr" horiz-adv-x="840" 
d="M66 181v313h75v-313q0 -81 28 -108t78 -27q54 0 88 30t34 105v313h75v-313q0 -81 27.5 -108t77.5 -27q54 0 88 30t34 105v313h75v-434h76v-200h-69v140h-81v72q-21 -43 -59.5 -63t-84.5 -20q-55 0 -92 22.5t-54 70.5q-19 -48 -61 -70.5t-95 -22.5q-78 0 -119 46t-41 146z
" />
    <glyph glyph-name="afii10092.bgr" horiz-adv-x="560" 
d="M129 172v263h-118v59h193v-175h134q97 0 146.5 -40.5t49.5 -122.5q0 -83 -53.5 -125t-149.5 -42q-98 0 -150 40.5t-52 142.5zM458 149v20q0 49 -30.5 71t-99.5 22h-124v-95q0 -64 28 -92.5t98 -28.5q69 0 98.5 25.5t29.5 77.5z" />
    <glyph glyph-name="afii10094.bgr" horiz-adv-x="497" 
d="M66 172v322h75v-175h134q98 0 147 -40.5t49 -122.5q0 -83 -53 -125t-150 -42q-98 0 -150 40.5t-52 142.5zM396 149v20q0 49 -31 71t-99 22h-125v-95q0 -64 28 -92.5t99 -28.5q69 0 98.5 25.5t29.5 77.5z" />
    <glyph glyph-name="afii10096.bgr" horiz-adv-x="726" 
d="M72 730h75v-448h102q7 122 62.5 172.5t153.5 50.5q105 0 161 -57.5t56 -200.5q0 -141 -56 -199.5t-161 -58.5q-100 0 -156 53t-61 181h-101v-223h-75v730zM606 217v62q0 96 -38.5 133t-102.5 37t-103 -37t-39 -133v-62q0 -96 39 -134t103 -38t102.5 38t38.5 134z" />
    <glyph glyph-name="afii10066.locl" horiz-adv-x="531" 
d="M42 246q0 99 41 157t104 75q-54 13 -86 44.5t-32 80.5q0 59 42 93.5t135 34.5q82 0 128.5 1.5t77.5 8.5v-60q-28 -7 -78.5 -9.5t-123.5 -2.5q-57 0 -81.5 -16t-24.5 -50v-9q0 -60 54 -71.5t117.5 -27t117.5 -62.5t54 -178v-9q0 -142 -58 -199.5t-165 -57.5
q-105 0 -163.5 57.5t-58.5 199.5zM411 214v63q0 87 -38.5 127.5t-108.5 40.5q-69 0 -107.5 -40.5t-38.5 -127.5v-64q0 -86 38.5 -127t107.5 -41q70 0 108.5 41t38.5 128z" />
    <glyph glyph-name="i.dotaccent" horiz-adv-x="219" 
d="M72 494h75v-494h-75v494zM58 657q0 24 13 36.5t38 12.5t38.5 -12.5t13.5 -36.5q0 -25 -13.5 -37.5t-38.5 -12.5t-38 12.5t-13 37.5z" />
    <glyph glyph-name="Cacute.pl" horiz-adv-x="614" 
d="M279 758l62 142h90l-86 -142h-66zM49 346q0 189 72 272t203 83q119 0 180.5 -49t72.5 -156h-80q-10 81 -51.5 110.5t-121.5 29.5q-90 0 -142 -59t-52 -187v-84q0 -125 52 -188.5t143 -63.5q77 0 119 28t54 106h80q-13 -105 -75 -152t-179 -47q-131 0 -203 83.5t-72 273.5
z" />
    <glyph glyph-name="Nacute.pl" horiz-adv-x="657" 
d="M307 758l62 142h90l-86 -142h-66zM473 0l-317 586v-586h-78v690h106l317 -586v586h78v-690h-106z" />
    <glyph glyph-name="Oacute.pl" horiz-adv-x="691" 
d="M49 347q0 190 74 272t222 82t222.5 -82t74.5 -272t-74.5 -274t-222.5 -84t-222 84t-74 274zM561 308v81q0 128 -54 187.5t-162 59.5t-161.5 -59.5t-53.5 -187.5v-81q0 -126 53.5 -190t161.5 -64t162 64t54 190zM307 758l62 142h90l-86 -142h-66z" />
    <glyph glyph-name="Sacute.pl" horiz-adv-x="569" 
d="M42 176h81q4 -72 45 -97.5t126 -25.5q76 0 114.5 30.5t38.5 97.5q0 86 -61.5 107.5t-135.5 34t-135.5 45.5t-61.5 142q0 98 59 144.5t169 46.5q107 0 167.5 -40t64.5 -135h-81q-4 66 -43.5 88.5t-107.5 22.5q-74 0 -111.5 -28.5t-37.5 -97.5q0 -81 61.5 -101.5
t135.5 -33.5t135.5 -48t61.5 -145q0 -102 -59 -148t-172 -46q-125 0 -186 40.5t-67 146.5zM249 758l62 142h90l-86 -142h-66z" />
    <glyph glyph-name="Zacute.pl" horiz-adv-x="528" 
d="M34 67l376 557h-376v66h459v-66l-376 -557h376v-67h-459v67zM228 758l62 142h90l-86 -142h-66z" />
    <glyph glyph-name="cacute.pl" horiz-adv-x="488" 
d="M43 245q0 134 52.5 197t158.5 63q86 0 137.5 -35t60.5 -110h-76q-7 50 -40.5 69.5t-82.5 19.5q-67 0 -100.5 -39.5t-33.5 -126.5v-74q0 -91 40 -127.5t94 -36.5q56 0 86.5 23t37.5 67h76q-10 -74 -62.5 -110t-137.5 -36q-47 0 -85.5 12.5t-66 42t-43 78.5t-15.5 123z
M221 569l39 165h85l-62 -165h-62z" />
    <glyph glyph-name="nacute.pl" horiz-adv-x="544" 
d="M403 0v313q0 81 -31.5 108t-88.5 27q-61 0 -98.5 -30t-37.5 -105v-313h-75v494h71v-77q21 46 62.5 67t95.5 21q86 0 131.5 -45.5t45.5 -146.5v-313h-75zM250 569l39 165h85l-62 -165h-62z" />
    <glyph glyph-name="oacute.pl" horiz-adv-x="531" 
d="M43 247q0 140 58.5 199t164.5 59q107 0 164.5 -59t57.5 -199q0 -143 -57.5 -200.5t-164.5 -57.5q-106 0 -164.5 57.5t-58.5 200.5zM412 214v67q0 87 -38.5 127.5t-107.5 40.5t-108 -40.5t-39 -127.5v-68q0 -86 39 -127t108 -41t107.5 41t38.5 128zM232 569l39 165h85
l-62 -165h-62z" />
    <glyph glyph-name="sacute.pl" horiz-adv-x="472" 
d="M36 149h75q3 -58 37 -81.5t92 -23.5q60 0 92 21t32 69q0 54 -49.5 67.5t-108.5 23.5t-108.5 35.5t-49.5 103.5q0 68 49 104.5t136 36.5q81 0 133 -35t55 -111h-75q-3 54 -34 72.5t-79 18.5q-53 0 -82 -20t-29 -65q0 -53 49 -66t108 -22.5t108 -35.5t49 -105
q0 -78 -54.5 -112.5t-140.5 -34.5q-96 0 -149 39.5t-56 120.5zM203 569l39 165h85l-62 -165h-62z" />
    <glyph glyph-name="zacute.pl" horiz-adv-x="449" 
d="M34 60l292 375h-287v59h367v-59l-292 -375h309v-60h-389v60zM195 569l39 165h85l-62 -165h-62z" />
    <glyph glyph-name="acute.pl" horiz-adv-x="134" 
d="M5 569l39 165h85l-62 -165h-62z" />
    <glyph glyph-name="M.alt" horiz-adv-x="807" 
d="M358 0l-207 618v-618h-73v690h121l203 -611l205 611h121v-690h-80v616l-208 -616h-82z" />
    <glyph glyph-name="afii10030.alt" horiz-adv-x="807" 
d="M358 0l-207 618v-618h-73v690h121l203 -611l205 611h121v-690h-80v616l-208 -616h-82z" />
    <glyph glyph-name="a.alt" horiz-adv-x="559" 
d="M43 243q0 137 56 199.5t155 62.5q54 0 95.5 -20.5t66.5 -67.5v77h71v-494h-71v81q-25 -46 -66.5 -69t-95.5 -23q-101 0 -156 59.5t-55 194.5zM412 212v70q0 87 -39 127t-107 40q-64 0 -105.5 -40.5t-41.5 -130.5v-70q0 -81 40 -122t107 -41q66 0 106 41.5t40 125.5z" />
    <glyph glyph-name="agrave.alt" horiz-adv-x="559" 
d="M43 243q0 137 56 199.5t155 62.5q54 0 95.5 -20.5t66.5 -67.5v77h71v-494h-71v81q-25 -46 -66.5 -69t-95.5 -23q-101 0 -156 59.5t-55 194.5zM412 212v70q0 87 -39 127t-107 40q-64 0 -105.5 -40.5t-41.5 -130.5v-70q0 -81 40 -122t107 -41q66 0 106 41.5t40 125.5z
M100 734h98l107 -165h-72z" />
    <glyph glyph-name="aacute.alt" horiz-adv-x="559" 
d="M43 243q0 137 56 199.5t155 62.5q54 0 95.5 -20.5t66.5 -67.5v77h71v-494h-71v81q-25 -46 -66.5 -69t-95.5 -23q-101 0 -156 59.5t-55 194.5zM412 212v70q0 87 -39 127t-107 40q-64 0 -105.5 -40.5t-41.5 -130.5v-70q0 -81 40 -122t107 -41q66 0 106 41.5t40 125.5z
M232 569l107 165h94l-133 -165h-68z" />
    <glyph glyph-name="acircumflex.alt" horiz-adv-x="559" 
d="M43 243q0 137 56 199.5t155 62.5q54 0 95.5 -20.5t66.5 -67.5v77h71v-494h-71v81q-25 -46 -66.5 -69t-95.5 -23q-101 0 -156 59.5t-55 194.5zM412 212v70q0 87 -39 127t-107 40q-64 0 -105.5 -40.5t-41.5 -130.5v-70q0 -81 40 -122t107 -41q66 0 106 41.5t40 125.5z
M117 569l125 165h67l127 -165h-78l-84 108l-83 -108h-74z" />
    <glyph glyph-name="atilde.alt" horiz-adv-x="559" 
d="M43 243q0 137 56 199.5t155 62.5q54 0 95.5 -20.5t66.5 -67.5v77h71v-494h-71v81q-25 -46 -66.5 -69t-95.5 -23q-101 0 -156 59.5t-55 194.5zM412 212v70q0 87 -39 127t-107 40q-64 0 -105.5 -40.5t-41.5 -130.5v-70q0 -81 40 -122t107 -41q66 0 106 41.5t40 125.5z
M209 727q28 0 46 -14.5t31 -32t24 -32t24 -14.5q19 0 26.5 26.5t7.5 65.5h54q0 -69 -20 -109t-65 -40q-28 0 -46 14.5t-31.5 32t-24 32t-23.5 14.5q-19 0 -26.5 -26.5t-7.5 -66.5h-54q0 69 19.5 109.5t65.5 40.5z" />
    <glyph glyph-name="adieresis.alt" horiz-adv-x="559" 
d="M43 243q0 137 56 199.5t155 62.5q54 0 95.5 -20.5t66.5 -67.5v77h71v-494h-71v81q-25 -46 -66.5 -69t-95.5 -23q-101 0 -156 59.5t-55 194.5zM412 212v70q0 87 -39 127t-107 40q-64 0 -105.5 -40.5t-41.5 -130.5v-70q0 -81 40 -122t107 -41q66 0 106 41.5t40 125.5z
M128 652q0 24 13 36.5t37 12.5q25 0 38 -12.5t13 -36.5q0 -25 -13 -37.5t-38 -12.5q-24 0 -37 12.5t-13 37.5zM322 652q0 24 12.5 36.5t37.5 12.5q23 0 36.5 -12.5t13.5 -36.5q0 -25 -13.5 -37.5t-36.5 -12.5q-25 0 -37.5 12.5t-12.5 37.5z" />
    <glyph glyph-name="aring.alt" horiz-adv-x="559" 
d="M43 243q0 137 56 199.5t155 62.5q54 0 95.5 -20.5t66.5 -67.5v77h71v-494h-71v81q-25 -46 -66.5 -69t-95.5 -23q-101 0 -156 59.5t-55 194.5zM412 212v70q0 87 -39 127t-107 40q-64 0 -105.5 -40.5t-41.5 -130.5v-70q0 -81 40 -122t107 -41q66 0 106 41.5t40 125.5z
M164 651q0 43 27 67t78 24q52 0 79 -24t27 -67t-27 -66.5t-79 -23.5q-51 0 -78 23.5t-27 66.5zM321 651q0 22 -12.5 34.5t-38.5 12.5q-28 0 -40 -12.5t-12 -34.5t12 -34t40 -12q26 0 38.5 12t12.5 34z" />
    <glyph glyph-name="amacron.alt" horiz-adv-x="559" 
d="M43 243q0 137 56 199.5t155 62.5q54 0 95.5 -20.5t66.5 -67.5v77h71v-494h-71v81q-25 -46 -66.5 -69t-95.5 -23q-101 0 -156 59.5t-55 194.5zM412 212v70q0 87 -39 127t-107 40q-64 0 -105.5 -40.5t-41.5 -130.5v-70q0 -81 40 -122t107 -41q66 0 106 41.5t40 125.5z
M140 624v54h276v-54h-276z" />
    <glyph glyph-name="abreve.alt" horiz-adv-x="559" 
d="M43 243q0 137 56 199.5t155 62.5q54 0 95.5 -20.5t66.5 -67.5v77h71v-494h-71v81q-25 -46 -66.5 -69t-95.5 -23q-101 0 -156 59.5t-55 194.5zM412 212v70q0 87 -39 127t-107 40q-64 0 -105.5 -40.5t-41.5 -130.5v-70q0 -81 40 -122t107 -41q66 0 106 41.5t40 125.5z
M123 726h65q0 -51 19 -76t59 -25t59.5 25t19.5 76h65q0 -76 -36 -117t-108 -41q-71 0 -107 40.5t-36 117.5z" />
    <glyph glyph-name="aogonek.alt" horiz-adv-x="559" 
d="M43 243q0 137 56 199.5t155 62.5q54 0 95.5 -20.5t66.5 -67.5v77h71v-494h-14q-37 -10 -53.5 -30.5t-16.5 -47.5q0 -28 23 -42.5t74 -14.5v-54h-30q-60 0 -96 24t-36 72q0 40 22.5 65.5t55.5 35.5v73q-25 -46 -66.5 -69t-95.5 -23q-101 0 -156 59.5t-55 194.5zM412 212
v70q0 87 -39 127t-107 40q-64 0 -105.5 -40.5t-41.5 -130.5v-70q0 -81 40 -122t107 -41q66 0 106 41.5t40 125.5z" />
    <glyph glyph-name="aringacute.alt" horiz-adv-x="559" 
d="M43 243q0 137 56 199.5t155 62.5q54 0 95.5 -20.5t66.5 -67.5v77h71v-494h-71v81q-25 -46 -66.5 -69t-95.5 -23q-101 0 -156 59.5t-55 194.5zM412 212v70q0 87 -39 127t-107 40q-64 0 -105.5 -40.5t-41.5 -130.5v-70q0 -81 40 -122t107 -41q66 0 106 41.5t40 125.5z
M234 781l107 142h99l-133 -142h-73zM168 643q0 43 27 67t78 24q52 0 79 -24t27 -67t-27 -66.5t-79 -23.5q-51 0 -78 23.5t-27 66.5zM325 643q0 22 -12.5 34.5t-38.5 12.5q-28 0 -40 -12.5t-12 -34.5t12 -34t40 -12q26 0 38.5 12t12.5 34z" />
    <glyph glyph-name="afii10065.alt" horiz-adv-x="559" 
d="M43 243q0 137 56 199.5t155 62.5q54 0 95.5 -20.5t66.5 -67.5v77h71v-494h-71v81q-25 -46 -66.5 -69t-95.5 -23q-101 0 -156 59.5t-55 194.5zM412 212v70q0 87 -39 127t-107 40q-64 0 -105.5 -40.5t-41.5 -130.5v-70q0 -81 40 -122t107 -41q66 0 106 41.5t40 125.5z" />
    <glyph glyph-name="uni04D1.alt" horiz-adv-x="559" 
d="M43 243q0 137 56 199.5t155 62.5q54 0 95.5 -20.5t66.5 -67.5v77h71v-494h-71v81q-25 -46 -66.5 -69t-95.5 -23q-101 0 -156 59.5t-55 194.5zM412 212v70q0 87 -39 127t-107 40q-64 0 -105.5 -40.5t-41.5 -130.5v-70q0 -81 40 -122t107 -41q66 0 106 41.5t40 125.5z
M123 728h68q0 -54 18 -80.5t57 -26.5t57.5 26.5t18.5 80.5h68q0 -76 -36 -117t-108 -41q-71 0 -107 40.5t-36 117.5z" />
    <glyph glyph-name="afii10078.alt" horiz-adv-x="689" 
d="M303 0l-164 426v-426h-67v494h109l163 -423l163 423h110v-494h-74v426l-164 -426h-76z" />
    <glyph glyph-name="caron.alt" horiz-adv-x="470" 
d="M149 581l10 149h73l-29 -149h-54z" />
    <glyph glyph-name="three.alt" horiz-adv-x="563" 
d="M35 188h82q4 -65 44 -99.5t124 -34.5q78 0 116.5 33.5t38.5 92.5v47q0 63 -43.5 94.5t-120.5 31.5h-65v51l190 220h-333v66h426v-51l-197 -228q117 -6 169 -58.5t52 -146.5q0 -115 -60 -166t-173 -51q-117 0 -180 48.5t-70 150.5z" />
    <glyph glyph-name="four.alt" horiz-adv-x="585" 
d="M21 242l287 448h81l-278 -434h265v213h80v-213h105v-65h-105v-191h-80v191h-355v51z" />
    <glyph glyph-name="commaaccent.alt" horiz-adv-x="470" 
d="M238 726q-25 0 -34 -14t-9 -41h3q22 0 35 -12t13 -35q0 -24 -13.5 -35.5t-36.5 -11.5q-25 0 -39 12t-14 39v33q0 56 22 82.5t73 26.5v-44z" />
    <glyph glyph-name="space.old" horiz-adv-x="220" 
 />
    <glyph glyph-name="zero.old" horiz-adv-x="608" 
d="M47 247q0 126 63 192t194 66t194 -66t63 -192q0 -122 -63 -190t-194 -68t-194 68t-63 190zM486 225v51q0 80 -44.5 124.5t-137.5 44.5t-137.5 -44.5t-44.5 -125.5v-50q0 -81 44.5 -128.5t137.5 -47.5t137.5 47.5t44.5 128.5z" />
    <glyph glyph-name="one.old" horiz-adv-x="301" 
d="M29 403l123 91h75v-494h-75v418l-123 -93v78z" />
    <glyph glyph-name="two.old" horiz-adv-x="520" 
d="M46 39q0 104 55.5 144.5t121 58.5t121 34.5t55.5 72.5v17q0 44 -34.5 63.5t-94.5 19.5q-70 0 -105 -27t-39 -94h-75q5 95 62.5 136t156.5 41q93 0 148.5 -33t55.5 -111q0 -81 -54 -108t-119 -42.5t-121.5 -42.5t-60.5 -108h346v-60h-419v39z" />
    <glyph glyph-name="three.old" horiz-adv-x="544" 
d="M31 -11h75q4 -64 43.5 -101.5t123.5 -37.5q75 0 113.5 34t38.5 93v39q0 61 -42 91t-104 30h-76v59h76q50 0 87 26.5t37 78.5v37q0 57 -33.5 82t-96.5 25q-67 0 -103 -27t-45 -95h-75q9 93 66.5 137.5t156.5 44.5q94 0 149.5 -43.5t55.5 -133.5q0 -64 -31 -103.5
t-88 -52.5q64 -13 102.5 -56.5t38.5 -117.5q0 -108 -59.5 -158.5t-167.5 -50.5q-114 0 -175 50t-67 150z" />
    <glyph glyph-name="four.old" horiz-adv-x="576" 
d="M20 51l294 443h115v-435h126v-59h-126v-200h-75v200h-334v51zM99 59h255v386z" />
    <glyph glyph-name="five.old" horiz-adv-x="538" 
d="M34 -32h75q7 -58 47.5 -88.5t110.5 -30.5q77 0 119 39t42 118v43q0 72 -41 107.5t-116 35.5q-40 0 -78.5 -18.5t-65.5 -53.5l-74 18l38 356h375v-59h-317l-27 -251q23 25 64.5 45.5t99.5 20.5q103 0 160 -54.5t57 -167.5q0 -120 -61 -179.5t-175 -59.5
q-107 0 -166.5 46.5t-66.5 132.5z" />
    <glyph glyph-name="six.old" horiz-adv-x="583" 
d="M52 273q0 128 17.5 211.5t50.5 131t80.5 66.5t106.5 19q107 0 158 -45.5t56 -113.5h-74q-6 48 -41 73t-100 25q-41 0 -73 -12.5t-54 -45t-35 -88t-16 -140.5q28 44 77 65.5t113 21.5q100 0 161.5 -50t61.5 -171q0 -116 -63.5 -173.5t-177.5 -57.5q-128 0 -188.5 66.5
t-59.5 217.5zM466 194v49q0 73 -41.5 108t-122.5 35q-85 0 -129 -37t-44 -118q0 -92 41 -137t130 -45q84 0 125 38t41 107z" />
    <glyph glyph-name="seven.old" horiz-adv-x="466" 
d="M13 434v60h440v-49l-293 -645h-74l288 634h-361z" />
    <glyph glyph-name="eight.old" horiz-adv-x="593" 
d="M46 191q0 73 37 118t106 59q-63 15 -90.5 55.5t-27.5 100.5q0 93 63 135t163 42q99 0 162 -42t63 -135q0 -60 -27.5 -100.5t-89.5 -55.5q69 -15 105.5 -59.5t36.5 -117.5q0 -104 -65 -153t-185 -49q-121 0 -186 49t-65 153zM447 502v28q0 57 -39 85t-111 28t-111.5 -28
t-39.5 -85v-28q0 -54 39.5 -82.5t111.5 -28.5q72 1 111 29t39 82zM472 174v34q0 66 -47.5 97.5t-127.5 31.5t-128 -31.5t-48 -95.5v-36q0 -67 48 -97t128 -30t127.5 30t47.5 97z" />
    <glyph glyph-name="nine.old" horiz-adv-x="584" 
d="M65 -49h74q7 -49 41.5 -75.5t100.5 -26.5q41 0 73 12.5t54.5 45t35.5 88t16 140.5q-28 -42 -77 -62t-112 -20q-101 0 -162.5 50t-61.5 172q0 116 63 173t178 57q128 0 188.5 -67t59.5 -219q0 -129 -18 -212.5t-50.5 -131.5t-80 -67t-106.5 -19q-108 0 -159.5 46.5
t-56.5 115.5zM459 264q0 92 -40.5 136.5t-130.5 44.5q-84 0 -125 -38t-41 -107v-48q0 -72 41 -108t123 -36q85 0 129 37t44 119z" />
    <glyph glyph-name="parenleft.old" horiz-adv-x="308" 
d="M46 265q0 123 17.5 211t49.5 145t77.5 87t100.5 37v-64q-74 -15 -119.5 -105t-45.5 -240v-138q0 -154 46 -244t119 -105v-64q-113 15 -179 125t-66 355z" />
    <glyph glyph-name="parenright.old" horiz-adv-x="308" 
d="M262 265q0 -123 -17.5 -211t-49.5 -145t-77.5 -87t-100.5 -37v64q74 15 119.5 105t45.5 240v138q0 154 -46 244t-119 105v64q113 -15 179 -125t66 -355z" />
    <glyph glyph-name="bracketleft.old" horiz-adv-x="321" 
d="M77 740h227v-63h-154v-824h154v-63h-227v950z" />
    <glyph glyph-name="bracketright.old" horiz-adv-x="321" 
d="M244 -210h-227v63h154v824h-154v63h227v-950z" />
    <glyph glyph-name="braceleft.old" horiz-adv-x="338" 
d="M100 -93v202q0 55 -13.5 86.5t-64.5 32.5v74q51 1 64.5 34.5t13.5 84.5v202q0 62 25 89.5t91 27.5h105v-63h-88q-34 0 -47.5 -13.5t-13.5 -50.5v-201q0 -26 -2.5 -50.5t-12.5 -44.5t-29 -33.5t-52 -19.5q33 -4 52 -16.5t29 -31.5t12.5 -44t2.5 -53v-199q0 -39 13.5 -53
t47.5 -14h88v-63h-105q-66 0 -91 27.5t-25 89.5z" />
    <glyph glyph-name="braceright.old" horiz-adv-x="338" 
d="M238 623v-202q0 -55 13.5 -86.5t64.5 -32.5v-74q-51 -1 -64.5 -34.5t-13.5 -84.5v-202q0 -62 -25 -89.5t-91 -27.5h-105v63h88q34 0 47.5 13.5t13.5 50.5v201q0 26 2.5 50.5t12.5 44.5t29 33.5t52 19.5q-33 4 -52 16.5t-29 31.5t-12.5 44t-2.5 53v199q0 39 -13.5 53
t-47.5 14h-88v63h105q66 0 91 -27.5t25 -89.5z" />
    <glyph glyph-name="numbersign.old" horiz-adv-x="668" 
d="M31 110l13 57h110l37 158h-129l14 58h129l26 111h65l-26 -111h182l26 111h65l-26 -111h118l-14 -58h-118l-37 -158h137l-13 -57h-138l-26 -110h-64l26 110h-183l-26 -110h-64l26 110h-110zM219 167h182l37 158h-182z" />
    <glyph glyph-name="percent.old" horiz-adv-x="775" 
d="M32 361q0 75 40 109.5t111 34.5q72 0 111.5 -34.5t39.5 -109.5q0 -77 -39.5 -110.5t-111.5 -33.5q-71 0 -111 33.5t-40 110.5zM580 494h78l-457 -494h-78zM271 350v21q0 46 -23 64t-65 18t-65 -18t-23 -64v-20q0 -47 24 -64.5t64 -17.5t64 17t24 64zM441 133
q0 75 40 109.5t111 34.5q72 0 111.5 -34.5t39.5 -109.5q0 -77 -39.5 -110.5t-111.5 -33.5q-71 0 -111 33.5t-40 110.5zM680 122v21q0 46 -23 64t-65 18t-65 -18t-23 -64v-20q0 -47 24 -64.5t64 -17.5t64 17t24 64z" />
    <glyph glyph-name="perthousand.old" horiz-adv-x="1121" 
d="M32 361q0 75 40 109.5t111 34.5q72 0 111.5 -34.5t39.5 -109.5q0 -77 -39.5 -110.5t-111.5 -33.5q-71 0 -111 33.5t-40 110.5zM587 494h78l-468 -494h-77zM271 350v21q0 46 -23 64t-65 18t-65 -18t-23 -64v-20q0 -47 24 -64.5t64 -17.5t64 17t24 64zM443 133
q0 75 40 109.5t111 34.5q72 0 111.5 -34.5t39.5 -109.5q0 -77 -39.5 -110.5t-111.5 -33.5q-71 0 -111 33.5t-40 110.5zM789 133q0 75 39.5 109.5t110.5 34.5q72 0 111.5 -34.5t39.5 -109.5q0 -77 -39.5 -110.5t-111.5 -33.5q-71 0 -110.5 33.5t-39.5 110.5zM682 122v21
q0 46 -23 64t-65 18t-65 -18t-23 -64v-20q0 -47 24 -64.5t64 -17.5t64 17t24 64zM1028 122v21q0 47 -23 64.5t-66 17.5q-42 0 -65 -17.5t-23 -64.5v-20q0 -48 24 -65t64 -17t64.5 17t24.5 64z" />
    <glyph glyph-name="period.old" horiz-adv-x="201" 
d="M49 39q0 25 13 37.5t38 12.5t38.5 -12.5t13.5 -37.5t-13.5 -37.5t-38.5 -12.5t-38 12.5t-13 37.5z" />
    <glyph glyph-name="comma.old" horiz-adv-x="200" 
d="M55 -89q25 0 34.5 15.5t9.5 45.5v17h-3q-23 0 -36 13t-13 37q0 25 13.5 37.5t37.5 12.5t38 -12t14 -39v-60q0 -59 -22 -86t-73 -27v46z" />
    <glyph glyph-name="colon.old" horiz-adv-x="224" 
d="M61 39q0 25 13 37.5t38 12.5t38.5 -12.5t13.5 -37.5t-13.5 -37.5t-38.5 -12.5t-38 12.5t-13 37.5zM61 404q0 25 13 37.5t38 12.5t38.5 -12.5t13.5 -37.5t-13.5 -37.5t-38.5 -12.5t-38 12.5t-13 37.5z" />
    <glyph glyph-name="semicolon.old" horiz-adv-x="227" 
d="M62 404q0 25 13 37.5t38 12.5t38.5 -12.5t13.5 -37.5t-13.5 -37.5t-38.5 -12.5t-38 12.5t-13 37.5zM70 -89q25 0 34.5 15.5t9.5 45.5v17h-3q-23 0 -36 13t-13 37q0 25 13.5 37.5t37.5 12.5t38 -12t14 -39v-60q0 -59 -22 -86t-73 -27v46z" />
    <glyph glyph-name="plus.old" horiz-adv-x="507" 
d="M219 37v177h-179v67h179v177h70v-177h178v-67h-178v-177h-70z" />
    <glyph glyph-name="minus.old" horiz-adv-x="517" 
d="M45 281h427v-67h-427v67z" />
    <glyph glyph-name="plusminus.old" horiz-adv-x="542" 
d="M236 139v129h-179v60h179v130h70v-130h179v-60h-179v-129h-70zM57 97h428v-60h-428v60z" />
    <glyph glyph-name="divide.old" horiz-adv-x="535" 
d="M216 423q0 24 13 35.5t38 11.5t38.5 -11.5t13.5 -35.5q0 -23 -13.5 -35t-38.5 -12t-38 12t-13 35zM54 278h427v-61h-427v61zM216 73q0 23 13 35t38 12t38.5 -12t13.5 -35q0 -24 -13.5 -36t-38.5 -12t-38 12t-13 36z" />
    <glyph glyph-name="multiply.old" horiz-adv-x="511" 
d="M39 77l171 171l-172 172l46 46l171 -172l171 171l46 -45l-171 -171l171 -172l-46 -46l-171 171l-171 -171z" />
    <glyph glyph-name="equal.old" horiz-adv-x="549" 
d="M61 374h427v-65h-427v65zM61 185h427v-65h-427v65z" />
    <glyph glyph-name="less.old" horiz-adv-x="501" 
d="M38 207v76l409 186v-70l-338 -153l338 -153v-72z" />
    <glyph glyph-name="greater.old" horiz-adv-x="502" 
d="M54 92l339 152l-339 153v72l409 -186v-76l-409 -186v71z" />
    <glyph glyph-name="lessequal.old" horiz-adv-x="541" 
d="M55 263v76l427 130v-67l-344 -101l344 -101v-67zM55 96h427v-59h-427v59z" />
    <glyph glyph-name="greaterequal.old" horiz-adv-x="541" 
d="M59 199l344 102l-344 101v67l428 -130v-76l-428 -130v66zM59 96h428v-59h-428v59z" />
    <glyph glyph-name="approxequal.old" horiz-adv-x="574" 
d="M183 397q34 0 61 -9.5t50.5 -21t45.5 -21t45 -9.5q33 0 48.5 14t15.5 44h66q0 -58 -30.5 -90t-93.5 -32q-29 0 -54.5 9.5t-49 21t-46.5 21t-48 9.5q-35 0 -51.5 -14t-16.5 -43h-66q0 57 31 89t93 32zM183 223q34 0 61 -9.5t50.5 -21t45.5 -21t45 -9.5q34 0 49.5 14
t15.5 44h65q0 -58 -30.5 -90t-93.5 -32q-29 0 -54.5 9.5t-49 21t-46.5 21t-48 9.5q-35 0 -51.5 -14t-16.5 -42h-66q0 57 31 88.5t93 31.5z" />
    <glyph glyph-name="notequal.old" horiz-adv-x="534" 
d="M53 186h141l78 124h-219v63h258l55 88h73l-55 -88h97v-63h-137l-77 -124h214v-63h-254l-56 -90h-72l56 90h-102v63z" />
    <glyph glyph-name="dollar.old" horiz-adv-x="553" 
d="M38 162h77q7 -69 46.5 -94t125.5 -25q75 0 114 22t39 73q0 58 -61.5 71t-134 21t-134 31t-61.5 101q0 69 50.5 103.5t146.5 38.5v107h69v-107q87 -7 135.5 -43.5t52.5 -112.5h-78q-4 60 -43.5 81t-108.5 21q-74 0 -111.5 -19t-37.5 -66q0 -51 61.5 -62t134 -19.5t134 -34
t61.5 -106.5q0 -76 -51.5 -113t-148.5 -41v-106h-69v106q-101 5 -151 44t-57 129z" />
    <glyph glyph-name="cent.old" horiz-adv-x="490" 
d="M42 245q0 92 44.5 146.5t133.5 62.5v87h71v-88q69 -7 110.5 -42t49.5 -101h-76q-8 50 -41 69.5t-82 19.5q-67 0 -100.5 -32.5t-33.5 -92.5v-56q0 -63 39.5 -93t94.5 -30q56 0 86 23t38 67h76q-9 -65 -51 -101t-110 -43v-88h-71v87q-80 7 -129 55.5t-49 149.5z" />
    <glyph glyph-name="sterling.old" horiz-adv-x="545" 
d="M36 55q26 0 51 6t45 17t32 26t12 33v11q0 14 -5 27t-13 26h-105v51h65q-19 22 -33 48.5t-14 60.5q0 72 58.5 108t154.5 36q99 0 154.5 -38t60.5 -125h-70q-6 59 -43.5 81.5t-100.5 22.5q-65 0 -104 -19.5t-39 -62.5v-14q0 -30 17.5 -52t37.5 -46h203v-51h-170
q5 -12 8 -26t3 -30q0 -28 -17 -51.5t-48 -37.5h328v-56h-468v55z" />
    <glyph glyph-name="yen.old" horiz-adv-x="577" 
d="M77 73v51h174v51h-174v51h159l-214 268h82l188 -236l189 236h74l-215 -268h159v-51h-175v-51h175v-51h-175v-73h-73v73h-174z" />
    <glyph glyph-name="Euro.old" horiz-adv-x="670" 
d="M42 223h80q-1 6 -1 12v13v13.5t1 12.5h-80v48h85q18 97 84.5 140t173.5 43q113 0 172 -49t70 -142h-74q-10 72 -50 104.5t-118 32.5q-77 0 -126.5 -29.5t-59.5 -99.5h240v-48h-243v-51h243v-48h-240q12 -69 60.5 -100t126.5 -31q75 0 115.5 34t52.5 96h74
q-12 -80 -71.5 -132.5t-171.5 -52.5q-107 0 -174 43.5t-84 142.5h-85v48z" />
    <glyph glyph-name="florin.old" horiz-adv-x="601" 
d="M-7 -140h54q54 0 79.5 26t45.5 90l110 357h-136v60h154l54 174q25 79 58.5 121t94.5 42h98v-60h-90q-34 0 -54 -23.5t-36 -74.5l-55 -179h151v-60h-169l-111 -363q-13 -41 -27 -73t-35 -53.5t-53 -32.5t-81 -11h-52v60z" />
    <glyph glyph-name="uni20B4.old" horiz-adv-x="605" 
d="M44 276v47h352q24 10 38.5 24t14.5 33v15q0 26 -34 42t-112 16q-69 0 -109 -18t-41 -52h-74q1 60 62 91t162 31q115 0 167.5 -30.5t52.5 -82.5q0 -22 -12 -39t-29 -30h77v-47h-515zM71 104q0 25 13.5 43t32.5 30h-73v48h515v-48h-357q-27 -9 -41.5 -24.5t-14.5 -33.5v-18
q0 -28 36.5 -44t120.5 -16q75 0 118 21t44 57h73q-1 -61 -65 -95.5t-170 -34.5q-120 0 -176 31t-56 84z" />
    <glyph glyph-name="uni20B8.old" horiz-adv-x="577" 
d="M31 494h515v-51h-515v51zM252 339h-221v53h515v-53h-221v-339h-73v339z" />
    <glyph glyph-name="uni20BD.old" horiz-adv-x="626" 
d="M43 89v51h89v51h-89v53h89v250h273q91 0 136.5 -41t45.5 -113q0 -71 -45.5 -110t-136.5 -39h-201v-51h256v-51h-256v-89h-72v89h-89zM514 327v24q0 41 -29.5 64.5t-93.5 23.5h-187v-195h187q66 0 94.5 23t28.5 60z" />
    <glyph glyph-name="space.tab" 
 />
    <glyph glyph-name="zero.tab" 
d="M94 345q0 177 76 266.5t225 89.5q150 0 225.5 -89.5t75.5 -266.5q0 -173 -75.5 -264.5t-225.5 -91.5q-149 0 -225 91.5t-76 264.5zM615 306v85q0 119 -54.5 182t-165.5 63q-112 0 -166 -63t-54 -182v-85q0 -117 54 -184.5t166 -67.5t166 67.5t54 184.5z" />
    <glyph glyph-name="one.tab" 
d="M157 0v67h228v548l-226 -119v75l226 119h80v-623h205v-67h-513z" />
    <glyph glyph-name="two.tab" 
d="M127 33q0 135 70 194t154 91t154 64t70 114v34q0 53 -46 79.5t-131 26.5q-91 0 -133 -31t-52 -106h-81q10 107 78 154.5t188 47.5q117 0 187.5 -43t70.5 -145q0 -109 -68 -154.5t-150 -75.5t-152.5 -71.5t-74.5 -144.5h450v-67h-534v33z" />
    <glyph glyph-name="three.tab" 
d="M109 188h82q5 -62 53.5 -98t152.5 -36q95 0 144 33.5t49 90.5v32q0 61 -54 90.5t-134 29.5h-93v63h93q67 0 115 26.5t48 80.5v31q0 56 -43 80.5t-124 24.5q-85 0 -130 -26t-57 -91h-82q10 93 79.5 137.5t188.5 44.5q115 0 182 -43.5t67 -133.5q0 -65 -35.5 -105
t-100.5 -53q73 -12 116.5 -55t43.5 -115q0 -107 -70.5 -157t-202.5 -50q-136 0 -208.5 49t-79.5 150z" />
    <glyph glyph-name="four.tab" 
d="M91 242l348 448h124v-435h132v-64h-132v-191h-80v191h-392v51zM183 255h300v386z" />
    <glyph glyph-name="five.tab" 
d="M118 168h81q9 -56 59 -85t137 -29q90 0 142.5 38t52.5 116v36q0 72 -51 107t-140 35q-49 0 -96.5 -17.5t-80.5 -50.5l-79 14l38 358h453v-66h-391l-25 -242q31 26 79.5 45t118.5 19q119 0 186.5 -54.5t67.5 -164.5q0 -119 -71.5 -178.5t-203.5 -59.5q-128 0 -199 46.5
t-78 132.5z" />
    <glyph glyph-name="six.tab" 
d="M113 332q0 107 22.5 178.5t62 113.5t95.5 59.5t124 17.5q123 0 182.5 -45.5t66.5 -113.5h-80q-7 46 -49.5 70t-120.5 24q-97 0 -159.5 -55t-62.5 -201v-23q31 43 87 63.5t140 20.5q119 0 191.5 -50t72.5 -171q0 -116 -73 -173.5t-206 -57.5q-76 0 -131.5 17t-91.5 56.5
t-53 105.5t-17 164zM605 197v43q0 72 -49 107t-149 35q-109 0 -159.5 -36.5t-50.5 -114.5q0 -84 50 -131t158 -47q101 0 150.5 37.5t49.5 106.5z" />
    <glyph glyph-name="seven.tab" 
d="M127 624v66h539v-50l-359 -640h-81l350 624h-449z" />
    <glyph glyph-name="eight.tab" 
d="M106 192q0 72 39 116.5t120 59.5q-74 14 -104 54.5t-30 99.5q0 94 70.5 136.5t193.5 42.5q122 0 193 -42.5t71 -136.5q0 -59 -31 -99.5t-106 -54.5q82 -15 122 -59.5t40 -116.5q0 -105 -72 -154t-217 -49q-146 0 -217.5 49t-71.5 154zM579 502v28q0 55 -44 81.5
t-140 26.5q-95 0 -139.5 -26.5t-44.5 -81.5v-28q0 -54 44.5 -81t139.5 -26q96 1 140 27t44 80zM604 175v33q0 65 -54 95.5t-155 30.5t-155 -30.5t-54 -94.5v-34q0 -65 54.5 -94t154.5 -29t154.5 29t54.5 94z" />
    <glyph glyph-name="nine.tab" 
d="M677 350q0 -107 -22.5 -178.5t-62 -113.5t-95.5 -59.5t-124 -17.5q-123 0 -182.5 45.5t-66.5 113.5h80q7 -46 49.5 -70t120.5 -24q97 0 159.5 55t62.5 201v23q-31 -43 -87 -63.5t-140 -20.5q-119 0 -191.5 50t-72.5 171q0 116 73 173.5t206 57.5q76 0 131.5 -17
t91.5 -56.5t53 -105.5t17 -164zM185 485v-43q0 -72 49 -107t149 -35q109 0 159.5 36.5t50.5 114.5q0 84 -50 131t-158 47q-101 0 -150.5 -37.5t-49.5 -106.5z" />
    </font>
</defs>
</svg>
