<svg width="37" height="37" viewBox="0 0 37 37" fill="none" xmlns="http://www.w3.org/2000/svg">
<path d="M13.5868 13.5873V9.81302C13.5868 7.72857 11.897 6.03879 9.81256 6.03879C7.72811 6.03879 6.03833 7.72857 6.03833 9.81302C6.03833 11.8975 7.72811 13.5873 9.81256 13.5873H13.5868ZM13.5868 13.5873H22.645M13.5868 13.5873V22.6454M13.5868 22.6454H9.81256C7.72811 22.6454 6.03833 24.3352 6.03833 26.4196C6.03833 28.5041 7.72811 30.1939 9.81256 30.1939C11.897 30.1939 13.5868 28.5041 13.5868 26.4196V22.6454ZM13.5868 22.6454H22.645M22.645 13.5873H26.4192C28.5036 13.5873 30.1934 11.8975 30.1934 9.81302C30.1934 7.72857 28.5036 6.03879 26.4192 6.03879C24.3347 6.03879 22.645 7.72857 22.645 9.81302V13.5873ZM22.645 13.5873V22.6454M22.645 22.6454V26.4196C22.645 28.5041 24.3347 30.1939 26.4192 30.1939C28.5036 30.1939 30.1934 28.5041 30.1934 26.4196C30.1934 24.3352 28.5036 22.6454 26.4192 22.6454H22.645Z" stroke="#4AB969" stroke-width="2" stroke-linecap="round"/>
</svg>
