<svg width="26" height="26" viewBox="0 0 26 26" fill="none" xmlns="http://www.w3.org/2000/svg">
<path d="M8.67452 5.75977H5.76758V8.64504H8.67452V5.75977Z" fill="#4AB969"/>
<path d="M14.4401 5.75977H11.5332V8.64504H14.4401V5.75977Z" fill="#000025"/>
<path d="M20.2478 5.75977H17.3408V8.64504H20.2478V5.75977Z" fill="#000025"/>
<path d="M8.67452 11.5195H5.76758V14.4048H8.67452V11.5195Z" fill="#000025"/>
<path d="M14.4401 11.5195H11.5332V14.4048H14.4401V11.5195Z" fill="#000025"/>
<path d="M20.2478 11.5195H17.3408V14.4048H20.2478V11.5195Z" fill="#000025"/>
<path d="M8.67452 17.2793H5.76758V20.1646H8.67452V17.2793Z" fill="#000025"/>
<path d="M14.4401 17.2793H11.5332V20.1646H14.4401V17.2793Z" fill="#000025"/>
<path d="M20.2478 17.2793H17.3408V20.1646H20.2478V17.2793Z" fill="#000025"/>
<path d="M23.0967 2.90333V23.1003H2.90333V2.90333H23.0967ZM26 0H0V26H26V0Z" fill="#4AB969"/>
</svg>
