<svg width="37" height="37" viewBox="0 0 37 37" fill="none" xmlns="http://www.w3.org/2000/svg">
<path d="M15.4842 30.6134C15.4842 31.1657 15.9319 31.6134 16.4842 31.6134C17.0365 31.6134 17.4842 31.1657 17.4842 30.6134H15.4842ZM26.2963 30.6134C26.2963 31.1657 26.744 31.6134 27.2963 31.6134C27.8486 31.6134 28.2963 31.1657 28.2963 30.6134H26.2963ZM15.0969 5.03878C14.5446 5.03878 14.0969 5.4865 14.0969 6.03878C14.0969 6.59107 14.5446 7.03878 15.0969 7.03878V5.03878ZM21.1357 7.03878C21.688 7.03878 22.1357 6.59107 22.1357 6.03878C22.1357 5.4865 21.688 5.03878 21.1357 5.03878V7.03878ZM17.4842 30.6134C17.4842 30.0992 17.5999 29.8565 17.697 29.7323C17.7958 29.6059 17.9725 29.4775 18.333 29.3783C18.7036 29.2763 19.1892 29.227 19.8137 29.2096C20.4431 29.1922 21.1115 29.2078 21.8903 29.2078V27.2078C21.1762 27.2078 20.4224 27.192 19.7583 27.2104C19.0892 27.229 18.4099 27.2828 17.8023 27.45C17.1844 27.6201 16.5695 27.927 16.1211 28.5008C15.6711 29.0767 15.4842 29.799 15.4842 30.6134H17.4842ZM21.8903 29.2078C22.6691 29.2078 23.3374 29.1922 23.9668 29.2096C24.5913 29.227 25.0769 29.2763 25.4475 29.3783C25.808 29.4775 25.9848 29.6059 26.0835 29.7323C26.1806 29.8565 26.2963 30.0992 26.2963 30.6134H28.2963C28.2963 29.799 28.1095 29.0767 27.6594 28.5008C27.211 27.927 26.5961 27.6201 25.9783 27.45C25.3706 27.2828 24.6913 27.229 24.0223 27.2104C23.3581 27.192 22.6043 27.2078 21.8903 27.2078V29.2078ZM24.6648 20.3809C24.6648 21.913 23.4227 23.1551 21.8905 23.1551V25.1551C24.5273 25.1551 26.6648 23.0176 26.6648 20.3809H24.6648ZM21.8905 23.1551C20.3584 23.1551 19.1163 21.913 19.1163 20.3809H17.1163C17.1163 23.0176 19.2538 25.1551 21.8905 25.1551V23.1551ZM19.1163 20.3809C19.1163 18.8487 20.3584 17.6066 21.8905 17.6066V15.6066C19.2538 15.6066 17.1163 17.7441 17.1163 20.3809H19.1163ZM21.8905 17.6066C23.4227 17.6066 24.6648 18.8487 24.6648 20.3809H26.6648C26.6648 17.7441 24.5273 15.6066 21.8905 15.6066V17.6066ZM15.0969 7.03878H21.1357V5.03878H15.0969V7.03878ZM9.05813 2.5097H27.1744V0.509705H9.05813V2.5097ZM30.7035 6.03878V30.1939H32.7035V6.03878H30.7035ZM27.1744 33.7229H9.05813V35.7229H27.1744V33.7229ZM5.52905 30.1939V6.03878H3.52905V30.1939H5.52905ZM9.05813 33.7229C7.10908 33.7229 5.52905 32.1429 5.52905 30.1939H3.52905C3.52905 33.2475 6.00451 35.7229 9.05813 35.7229V33.7229ZM30.7035 30.1939C30.7035 32.1429 29.1235 33.7229 27.1744 33.7229V35.7229C30.2281 35.7229 32.7035 33.2475 32.7035 30.1939H30.7035ZM27.1744 2.5097C29.1235 2.5097 30.7035 4.08973 30.7035 6.03878H32.7035C32.7035 2.98516 30.2281 0.509705 27.1744 0.509705V2.5097ZM9.05813 0.509705C6.00451 0.509705 3.52905 2.98516 3.52905 6.03878H5.52905C5.52905 4.08973 7.10908 2.5097 9.05813 2.5097V0.509705Z" fill="#4AB969"/>
</svg>
