<svg width="191" height="65" viewBox="0 0 191 65" fill="none" xmlns="http://www.w3.org/2000/svg">
<g clip-path="url(#clip0)">
<path d="M22.5214 4.87598C18.9151 22.3921 13.4935 63.4592 14.671 63.312C19.9945 62.6006 2.57658 43.907 0.859316 35.198C-0.612625 27.9119 12.6594 17.1422 32.3589 15.9646C39.1788 15.5476 41.1414 18.6141 41.3868 19.9634C42.9323 28.2062 23.4291 32.0088 24.4594 37.3077C25.1463 40.8404 27.7958 42.6558 28.311 45.3789C28.5318 46.4828 21.2212 50.7269 20.9758 49.4758C20.7305 48.2246 25.6861 46.2866 36.0632 45.2808" stroke="#1D1D1B" stroke-width="1.47194" stroke-miterlimit="10" stroke-linecap="round" stroke-linejoin="round"/>
<path d="M39.3741 44.987C39.2269 44.619 41.8274 44.0793 44.0843 44.3737" stroke="#1D1D1B" stroke-width="1.47194" stroke-miterlimit="10" stroke-linecap="round" stroke-linejoin="round"/>
<path d="M62.3614 1.68652C58.4117 26.7831 54.3393 52.3949 52.8674 52.5666C50.0707 52.8855 60.8895 33.2597 66.262 32.8181C70.2854 32.4992 65.1336 45.9429 62.6067 46.1882C60.0308 46.4581 43.2507 33.2842 42.1713 28.206C39.5954 16.3569 89.6659 10.739 90.4264 14.566C90.8189 16.5777 85.4463 19.2026 81.3004 21.0916" stroke="#1D1D1B" stroke-width="1.47194" stroke-miterlimit="10" stroke-linecap="round" stroke-linejoin="round"/>
<path d="M121.435 21.3867C119.325 34.7569 116.651 47.759 116.921 47.7099C114.713 47.9553 122.196 26.3177 125.041 26.1215C126.906 25.9743 124.06 32.1564 122.588 35.591C124.943 33.0396 127.887 30.0957 130.365 26.0724" stroke="#1D1D1B" stroke-width="1.47194" stroke-miterlimit="10" stroke-linecap="round" stroke-linejoin="round"/>
<path d="M77.4734 37.4066C77.1054 34.2665 76.5657 32.402 74.8975 32.5492C72.9104 32.6964 68.7644 41.7489 69.7948 42.1168C70.8006 42.4848 82.8214 31.6415 81.325 31.7642C79.8285 31.8869 74.8975 43.9322 76.075 43.8096C77.2526 43.6869 82.3799 37.5538 87.2863 28.8203" stroke="#1D1D1B" stroke-width="1.47194" stroke-miterlimit="10" stroke-linecap="round" stroke-linejoin="round"/>
<path d="M87.3109 28.8203C84.8331 35.8856 81.6194 42.5094 83.3857 42.3376C85.1275 42.1659 93.6648 30.3168 92.3891 30.4394C91.1134 30.5376 83.9255 60.7124 80.4173 61.1785C76.8356 61.6446 70.7271 58.529 70.1873 55.9286C69.5004 52.6167 84.1708 42.3376 93.7875 35.812" stroke="#1D1D1B" stroke-width="1.47194" stroke-miterlimit="10" stroke-linecap="round" stroke-linejoin="round"/>
<path d="M93.7382 35.8357C93.1494 37.1605 91.6775 40.7177 92.438 40.6441C93.1985 40.5705 101.221 27.5929 99.8958 27.691C98.5711 27.7891 97.5652 36.8906 98.6447 36.817C99.7731 36.7434 102.374 29.2365 103.895 29.1139C105.759 28.9667 101.27 38.9268 100.215 39.0495C99.1353 39.1476 109.414 28.476 110.616 28.3779C111.794 28.2798 103.551 38.289 104.851 38.1663C106.152 38.0436 108.163 35.7621 111.107 32.4257" stroke="#1D1D1B" stroke-width="1.47194" stroke-miterlimit="10" stroke-linecap="round" stroke-linejoin="round"/>
<path d="M111.352 32.352C115.841 31.7387 118.196 27.5436 116.283 27.6908C114.001 27.8625 109.168 37.0376 111.597 36.8169C114.026 36.5961 119.398 32.2784 121.729 21.5332" stroke="#1D1D1B" stroke-width="1.47194" stroke-miterlimit="10" stroke-linecap="round" stroke-linejoin="round"/>
<path d="M130.365 26.0729C129.285 28.4525 128.132 31.5926 127.421 33.8987C129.31 31.47 133.971 25.7049 135.05 25.6313C134.167 28.1581 133.211 30.0716 132.229 32.991C134.094 30.4641 137.626 26.0729 139.466 25.1406" stroke="#1D1D1B" stroke-width="1.47194" stroke-miterlimit="10" stroke-linecap="round" stroke-linejoin="round"/>
<path d="M139.492 25.1399C138.02 28.6235 137.137 30.7579 136.744 32.2789C139.05 29.4331 142.313 25.6061 143.809 24.6738C142.926 26.1703 141.577 29.752 141.184 31.5184C140.13 29.7275 148.765 27.5441 147.244 25.2871" stroke="#1D1D1B" stroke-width="1.47194" stroke-miterlimit="10" stroke-linecap="round" stroke-linejoin="round"/>
<path d="M147.218 25.2878C146.507 26.1465 143.906 30.0471 146.163 29.8509C148.641 29.6301 185.709 13.7822 189.291 21.8288" stroke="#1D1D1B" stroke-width="1.47194" stroke-miterlimit="10" stroke-linecap="round" stroke-linejoin="round"/>
</g>
<defs>
<clipPath id="clip0">
<rect width="190.028" height="63.0972" fill="white" transform="translate(0 0.951172)"/>
</clipPath>
</defs>
</svg>
