<svg width="166" height="62" viewBox="0 0 166 62" fill="none" xmlns="http://www.w3.org/2000/svg">
<path d="M140.171 27.8047C138.781 30.5364 137.854 31.7803 136.415 35.4876C139.244 33.5852 141.878 31.1949 144.415 27.9022" stroke="#1D1D1B" stroke-width="1.46341" stroke-miterlimit="10" stroke-linecap="round" stroke-linejoin="round"/>
<path d="M144.414 27.9259C142.39 32.3893 141.39 33.6332 140.756 35.5601C144.219 32.7796 147.488 29.5113 149.488 27.0723C148.366 28.9991 145.707 34.0479 145.024 36.2918C144.463 32.2674 154 32.121 152.853 28.5845" stroke="#1D1D1B" stroke-width="1.46341" stroke-miterlimit="10" stroke-linecap="round" stroke-linejoin="round"/>
<path d="M152.901 28.585C151.218 30.3654 147.633 35.024 149.803 35.024" stroke="#1D1D1B" stroke-width="1.46341" stroke-miterlimit="10" stroke-linecap="round" stroke-linejoin="round"/>
<path d="M67.4865 1.82998C29.1938 26.4641 18.828 38.7812 22.6085 38.7812C26.389 38.7812 85.9012 0.732422 63.4621 0.732422C51.8036 0.732422 29.5841 15.2202 16.267 29.1471C1.09628 44.9763 -3.80616 60.4885 9.31579 60.4885C27.2426 60.4885 52.2426 46.2202 71.6329 31.9519" stroke="#1D1D1B" stroke-width="1.46341" stroke-miterlimit="10" stroke-linecap="round" stroke-linejoin="round"/>
<path d="M71.7553 31.7554C75.1211 31.3896 77.9016 28.292 76.1943 28.292C73.4626 28.292 68.7065 34.8286 72.3406 34.8286C73.926 34.8286 76.8528 32.1213 80.3162 28.292" stroke="#1D1D1B" stroke-width="1.46341" stroke-miterlimit="10" stroke-linecap="round" stroke-linejoin="round"/>
<path d="M82.1229 26.7065C80.1716 28.8528 74.4643 36.9016 72.4887 40.9748C77.2204 33.4626 81.6107 30.1455 84.3668 28.3162C82.4643 30.9504 80.4155 33.2918 79.8058 34.9016C81.9521 34.1699 110.855 12.2918 111.318 8.12109C97.0497 23.4138 79.2692 46.2674 68.9277 57.2187C72.5619 51.1455 94.318 24.4626 113.464 24.4626C132.489 24.4626 102.83 56.7796 81.1472 56.7796C77.3668 56.7796 75.1716 55.1211 75.1716 52.8528C75.1716 48.2918 88.196 36.9016 124.269 29.926" stroke="#1D1D1B" stroke-width="1.46341" stroke-miterlimit="10" stroke-linecap="round" stroke-linejoin="round"/>
<path d="M45.1953 21.61C48.0978 23.3173 157.561 13.927 165.268 16.7319" stroke="#1D1D1B" stroke-width="1.46341" stroke-miterlimit="10" stroke-linecap="round" stroke-linejoin="round"/>
<path d="M124.22 30.0483C123.025 31.8287 122.22 33.1946 121.245 34.8531C122.391 34.4385 129.001 29.5848 130.074 27.4873C127.513 30.2922 123.074 39.6336 121.367 39.6336C118.733 39.6336 138.391 26.4629 135.342 26.4629C134.367 26.4629 132.391 28.0726 132.391 28.8531C132.391 29.6092 134.44 30.1214 134.44 30.6824C134.44 31.2434 128.44 36.6824 129.147 36.6824C129.879 36.6824 137.025 30.9995 140.147 27.78" stroke="#1D1D1B" stroke-width="1.46341" stroke-miterlimit="10" stroke-linecap="round" stroke-linejoin="round"/>
</svg>
