<?xml version="1.0" encoding="utf-8"?><svg xmlns="http://www.w3.org/2000/svg" xmlns:xlink="http://www.w3.org/1999/xlink"><symbol viewBox="0 0 10 15" id="icon-next" xmlns="http://www.w3.org/2000/svg"><path fill-rule="evenodd" clip-rule="evenodd" d="M1.51.45L9.102 7.5 1.51 14.55l-1.02-1.1L6.898 7.5.49 1.55 1.51.45z"/></symbol><symbol viewBox="0 0 27 12" id="icon-next-tab" xmlns="http://www.w3.org/2000/svg"><path fill-rule="evenodd" clip-rule="evenodd" d="M19.376.687A.5.5 0 0 1 20.08.61L26.8 6l-6.72 5.39a.5.5 0 0 1-.626-.78l5.125-4.11H1a.5.5 0 0 1 0-1h23.578l-5.125-4.11a.5.5 0 0 1-.077-.703z"/></symbol><symbol viewBox="0 0 27 31" id="icon-pdf" xmlns="http://www.w3.org/2000/svg"><path fill-rule="evenodd" clip-rule="evenodd" d="M2.543.25h13.305l8.614 8.988v8.07h-1.5V9.84l-7.754-8.09H4.043v15.557h-1.5V.25zm0 26.167h1.5v2.392h18.92v-2.392h1.5v3.892H2.542v-3.892z"/><path fill-rule="evenodd" clip-rule="evenodd" d="M14.776 1h1.5v7.618h7.434v1.5h-8.934V1zM.25 16.557h26.5v10.61H.25v-10.61zm1.5 1.5v7.61h23.5v-7.61H1.75z"/><path d="M8.205 24.133v-4.055h1.844a1.294 1.294 0 0 1 1.34 1.256c.029.715-.502 1.343-1.228 1.371H9.043v1.428h-.838zm2.319-2.77a.537.537 0 0 0-.531-.543h-.95v1.086h.894a.54.54 0 0 0 .587-.486v-.057zm1.399 2.771v-4.056h1.564c1.257 0 2.095.8 2.095 2.028s-.866 2.028-2.095 2.028h-1.564zm2.793-2.028c.056-.657-.447-1.228-1.061-1.257h-.866v2.542h.726a1.192 1.192 0 0 0 1.23-1.142c-.029-.086-.029-.114-.029-.143zm1.453 2.028v-4.056h2.821v.771h-1.955v.857h1.927v.771h-1.927v1.657h-.866z"/></symbol><symbol viewBox="0 0 199 29" id="logotip" xmlns="http://www.w3.org/2000/svg"><path d="M38.489 15.496h4.886V12.45h-4.886V9.682h8.875v-3.09H34.688V21.61H47.53v-3.09h-9.04v-3.024zm20.624-8.904L52.18 21.61h3.946l1.3-2.961h7.137l1.295 2.961h4.115L63.038 6.592h-3.925zm-.368 9.055l2.257-5.14 2.248 5.14h-4.505zm28.107-8.164c-1.212-.592-2.673-.89-4.385-.89h-7.686V21.61h7.684c1.713 0 3.175-.293 4.385-.878 1.211-.587 2.13-1.434 2.756-2.542.626-1.109.939-2.457.939-4.044 0-1.573-.313-2.928-.94-4.065-.624-1.139-1.542-2.004-2.754-2.598zm-.7 9.032a3.06 3.06 0 0 1-1.357 1.438c-.605.322-1.353.482-2.244.482h-3.928V9.768h3.926c.891 0 1.639.165 2.245.494a3.082 3.082 0 0 1 1.356 1.48c.3.657.448 1.459.448 2.402.002.944-.147 1.735-.446 2.371zm22.417-9.194c-1.273-.629-2.802-.943-4.583-.943-1.755 0-3.271.318-4.552.954-1.281.636-2.268 1.53-2.965 2.682-.696 1.151-1.043 2.513-1.043 4.088 0 1.573.347 2.935 1.043 4.088.697 1.151 1.685 2.046 2.965 2.682 1.281.637 2.799.955 4.552.955 1.783 0 3.31-.319 4.583-.955 1.274-.636 2.255-1.53 2.944-2.682.69-1.151 1.033-2.513 1.033-4.088 0-1.573-.343-2.938-1.033-4.098-.688-1.159-1.67-2.053-2.944-2.683zm-.458 9.29a3.475 3.475 0 0 1-1.545 1.546c-.69.358-1.548.536-2.578.536-1.016 0-1.863-.18-2.537-.536a3.595 3.595 0 0 1-1.545-1.556c-.356-.678-.532-1.513-.532-2.499 0-.988.176-1.819.532-2.5a3.626 3.626 0 0 1 1.545-1.555c.676-.356 1.521-.536 2.537-.536 1.03 0 1.89.18 2.578.537a3.48 3.48 0 0 1 1.545 1.555c.34.68.511 1.513.511 2.5 0 1-.171 1.836-.511 2.509zm10.057-10.019V21.61h3.842v-5.34h4.843v-3.135h-4.843V9.768h8.812V6.592h-12.654zm18.285 0V21.61h3.842v-5.34h4.843v-3.135h-4.843V9.768h8.812V6.592h-12.654zm21.905 0h-3.842V21.61h3.842V6.592zm31.6 11.929v-3.025h4.885V12.45h-4.885V9.682h8.875v-3.09h-12.677V21.61H199v-3.09h-9.042zM0 28.189h29.058V0H0v28.19zM6.506 6.586h3.34v5.738h9.502V6.586h3.3v15.018h-3.3v-6.232H9.847v6.232H6.506V6.586zm170.312 10.026a3.465 3.465 0 0 1-1.545 1.545c-.689.358-1.548.536-2.578.536-1.016 0-1.863-.18-2.537-.536a3.606 3.606 0 0 1-1.545-1.555c-.354-.679-.532-1.514-.532-2.5 0-.988.178-1.82.532-2.499a3.627 3.627 0 0 1 1.545-1.555c.676-.357 1.521-.536 2.537-.536 1.03 0 1.891.179 2.578.536a3.47 3.47 0 0 1 1.545 1.555c.13.258.226.545.306.847h3.99a7.235 7.235 0 0 0-.893-2.446c-.69-1.159-1.672-2.053-2.945-2.682-1.272-.63-2.802-.944-4.583-.944-1.753 0-3.27.318-4.552.954-1.281.636-2.268 1.531-2.964 2.682-.697 1.151-1.044 2.514-1.044 4.088 0 1.573.349 2.935 1.044 4.087.696 1.15 1.685 2.045 2.964 2.682 1.282.636 2.799.954 4.552.954 1.783 0 3.311-.318 4.583-.954 1.275-.637 2.255-1.531 2.945-2.682.477-.797.783-1.695.93-2.693h-3.955c-.084.411-.21.784-.378 1.116z"/></symbol></svg>