<?xml version="1.0" encoding="utf-8"?><svg xmlns="http://www.w3.org/2000/svg" xmlns:xlink="http://www.w3.org/1999/xlink"><symbol viewBox="0 0 10 16" id="icon-next" xmlns="http://www.w3.org/2000/svg"><path fill-rule="evenodd" clip-rule="evenodd" d="M1.681.768L9.471 8l-7.79 7.233-1.36-1.465L6.53 8 .321 2.233 1.68.768z"/></symbol><symbol viewBox="0 0 27 12" id="icon-next-tab" xmlns="http://www.w3.org/2000/svg"><path fill-rule="evenodd" clip-rule="evenodd" d="M19.376.687A.5.5 0 0 1 20.08.61L26.8 6l-6.72 5.39a.5.5 0 0 1-.626-.78l5.125-4.11H1a.5.5 0 0 1 0-1h23.578l-5.125-4.11a.5.5 0 0 1-.077-.703z"/></symbol><symbol viewBox="0 0 27 31" id="icon-pdf" xmlns="http://www.w3.org/2000/svg"><path fill-rule="evenodd" clip-rule="evenodd" d="M2.543.25h13.305l8.614 8.988v8.07h-1.5V9.84l-7.754-8.09H4.043v15.557h-1.5V.25zm0 26.167h1.5v2.392h18.92v-2.392h1.5v3.892H2.542v-3.892z"/><path fill-rule="evenodd" clip-rule="evenodd" d="M14.776 1h1.5v7.618h7.434v1.5h-8.934V1zM.25 16.557h26.5v10.61H.25v-10.61zm1.5 1.5v7.61h23.5v-7.61H1.75z"/><path d="M8.205 24.133v-4.055h1.844a1.294 1.294 0 0 1 1.34 1.256c.029.715-.502 1.343-1.228 1.371H9.043v1.428h-.838zm2.319-2.77a.537.537 0 0 0-.531-.543h-.95v1.086h.894a.54.54 0 0 0 .587-.486v-.057zm1.399 2.771v-4.056h1.564c1.257 0 2.095.8 2.095 2.028s-.866 2.028-2.095 2.028h-1.564zm2.793-2.028c.056-.657-.447-1.228-1.061-1.257h-.866v2.542h.726a1.192 1.192 0 0 0 1.23-1.142c-.029-.086-.029-.114-.029-.143zm1.453 2.028v-4.056h2.821v.771h-1.955v.857h1.927v.771h-1.927v1.657h-.866z"/></symbol><symbol viewBox="0 0 69 42" id="icon-works1" xmlns="http://www.w3.org/2000/svg"><path d="M33.855 1c2.507 0 4.995.358 6.97 1.15l22.716 9.129c.987.395 1.755.85 2.3 1.384.544.535.868 1.162.868 1.83 0 .054-.02.112-.023.165v10.537h1.29c.002 0 .024-.008.024 0v8.73c-.001.008-.023 0-.023 0l-1.855-2.323-1.853 2.323h-.024v-8.73h1.314v-8.589c-.517.428-1.189.794-2.018 1.127l-9.41 3.778v10.748c0 1.242-.664 2.382-1.737 3.355-1.073.974-2.584 1.81-4.412 2.512-3.656 1.4-8.623 2.252-14.127 2.252-5.504 0-10.492-.851-14.151-2.252-1.83-.701-3.338-1.539-4.412-2.512-1.074-.973-1.737-2.112-1.737-3.355V21.51l-9.387-3.778c-.987-.396-1.755-.85-2.3-1.385C1.324 15.813 1 15.163 1 14.494c0-.67.324-1.296.868-1.83.545-.535 1.313-.99 2.3-1.385L26.862 2.15C28.837 1.358 31.348 1 33.855 1zm0 1.126c-2.394 0-4.791.366-6.571 1.08L4.59 12.311c-.89.358-1.554.763-1.948 1.15-.394.387-.516.724-.516 1.033 0 .308.122.669.516 1.056s1.057.793 1.948 1.15l22.694 9.105c1.774.712 4.16 1.077 6.547 1.08.607 0 1.21-.025 1.807-.07.581-.045 1.16-.101 1.713-.189h.024c.272-.043.535-.11.797-.164h.024c.262-.054.525-.123.774-.188h.024c.248-.065.47-.135.704-.21h.023c.234-.077.464-.173.68-.259h.024l10.702-4.294 2.23-.892 9.762-3.92c.89-.357 1.53-.762 1.924-1.15.296-.29.457-.547.516-.797v-.235a.564.564 0 0 1 .024-.14c-.033-.277-.195-.577-.54-.916-.394-.387-1.034-.793-1.924-1.15L40.425 3.206c-1.78-.714-4.178-1.08-6.57-1.08zm19.15 19.83l-12.18 4.905c-1.975.792-4.49 1.197-6.994 1.197-2.496 0-5.002-.407-6.97-1.197l-12.18-4.905V32.26c0 .846.438 1.675 1.361 2.511.923.836 2.32 1.633 4.06 2.3 3.48 1.333 8.364 2.182 13.752 2.182s10.251-.85 13.728-2.182c1.739-.666 3.115-1.464 4.037-2.3.92-.836 1.384-1.664 1.384-2.511V21.956h.001z"/></symbol><symbol viewBox="0 0 199 29" id="logotip" xmlns="http://www.w3.org/2000/svg"><path d="M38.489 15.496h4.886V12.45h-4.886V9.682h8.875v-3.09H34.688V21.61H47.53v-3.09h-9.04v-3.024zm20.624-8.904L52.18 21.61h3.946l1.3-2.961h7.137l1.295 2.961h4.115L63.038 6.592h-3.925zm-.368 9.055l2.257-5.14 2.248 5.14h-4.505zm28.107-8.164c-1.212-.592-2.673-.89-4.385-.89h-7.686V21.61h7.684c1.713 0 3.175-.293 4.385-.878 1.211-.587 2.13-1.434 2.756-2.542.626-1.109.939-2.457.939-4.044 0-1.573-.313-2.928-.94-4.065-.624-1.139-1.542-2.004-2.754-2.598zm-.7 9.032a3.06 3.06 0 0 1-1.357 1.438c-.605.322-1.353.482-2.244.482h-3.928V9.768h3.926c.891 0 1.639.165 2.245.494a3.082 3.082 0 0 1 1.356 1.48c.3.657.448 1.459.448 2.402.002.944-.147 1.735-.446 2.371zm22.417-9.194c-1.273-.629-2.802-.943-4.583-.943-1.755 0-3.271.318-4.552.954-1.281.636-2.268 1.53-2.965 2.682-.696 1.151-1.043 2.513-1.043 4.088 0 1.573.347 2.935 1.043 4.088.697 1.151 1.685 2.046 2.965 2.682 1.281.637 2.799.955 4.552.955 1.783 0 3.31-.319 4.583-.955 1.274-.636 2.255-1.53 2.944-2.682.69-1.151 1.033-2.513 1.033-4.088 0-1.573-.343-2.938-1.033-4.098-.688-1.159-1.67-2.053-2.944-2.683zm-.458 9.29a3.475 3.475 0 0 1-1.545 1.546c-.69.358-1.548.536-2.578.536-1.016 0-1.863-.18-2.537-.536a3.595 3.595 0 0 1-1.545-1.556c-.356-.678-.532-1.513-.532-2.499 0-.988.176-1.819.532-2.5a3.626 3.626 0 0 1 1.545-1.555c.676-.356 1.521-.536 2.537-.536 1.03 0 1.89.18 2.578.537a3.48 3.48 0 0 1 1.545 1.555c.34.68.511 1.513.511 2.5 0 1-.171 1.836-.511 2.509zm10.057-10.019V21.61h3.842v-5.34h4.843v-3.135h-4.843V9.768h8.812V6.592h-12.654zm18.285 0V21.61h3.842v-5.34h4.843v-3.135h-4.843V9.768h8.812V6.592h-12.654zm21.905 0h-3.842V21.61h3.842V6.592zm31.6 11.929v-3.025h4.885V12.45h-4.885V9.682h8.875v-3.09h-12.677V21.61H199v-3.09h-9.042zM0 28.189h29.058V0H0v28.19zM6.506 6.586h3.34v5.738h9.502V6.586h3.3v15.018h-3.3v-6.232H9.847v6.232H6.506V6.586zm170.312 10.026a3.465 3.465 0 0 1-1.545 1.545c-.689.358-1.548.536-2.578.536-1.016 0-1.863-.18-2.537-.536a3.606 3.606 0 0 1-1.545-1.555c-.354-.679-.532-1.514-.532-2.5 0-.988.178-1.82.532-2.499a3.627 3.627 0 0 1 1.545-1.555c.676-.357 1.521-.536 2.537-.536 1.03 0 1.891.179 2.578.536a3.47 3.47 0 0 1 1.545 1.555c.13.258.226.545.306.847h3.99a7.235 7.235 0 0 0-.893-2.446c-.69-1.159-1.672-2.053-2.945-2.682-1.272-.63-2.802-.944-4.583-.944-1.753 0-3.27.318-4.552.954-1.281.636-2.268 1.531-2.964 2.682-.697 1.151-1.044 2.514-1.044 4.088 0 1.573.349 2.935 1.044 4.087.696 1.15 1.685 2.045 2.964 2.682 1.282.636 2.799.954 4.552.954 1.783 0 3.311-.318 4.583-.954 1.275-.637 2.255-1.531 2.945-2.682.477-.797.783-1.695.93-2.693h-3.955c-.084.411-.21.784-.378 1.116z"/></symbol></svg>