<svg width="69" height="42" viewBox="0 0 69 42" xmlns="http://www.w3.org/2000/svg">
<path d="M33.8545 1C36.3618 1 38.8495 1.35781 40.8244 2.14987L63.5411 11.2786C64.5279 11.6744 65.2964 12.1288 65.841 12.6633C66.3855 13.1977 66.7092 13.8247 66.7092 14.4938C66.7092 14.547 66.6898 14.6051 66.6858 14.658V25.1949H67.9765C67.9784 25.1949 68 25.1874 68 25.1949V33.9249C67.9989 33.9331 67.9765 33.9249 67.9765 33.9249L66.1225 31.6016L64.2686 33.9249H64.2451V25.1949H64.2686H65.5593V16.606C65.0417 17.0341 64.3704 17.3999 63.5411 17.7325L54.1307 21.5108V32.2586C54.1307 33.5015 53.4668 34.6413 52.3941 35.6144C51.3214 36.5875 49.8101 37.4248 47.9822 38.1255C44.3263 39.5267 39.3588 40.3784 33.855 40.3784C28.3508 40.3784 23.3632 39.5266 19.7037 38.1255C17.8739 37.4249 16.366 36.5874 15.2918 35.6144C14.2176 34.6414 13.5552 33.5018 13.5552 32.2586V21.5108L4.16811 17.7325C3.18134 17.3367 2.41279 16.8823 1.86827 16.3478C1.32375 15.8134 1 15.1629 1 14.4939C1 13.8248 1.32379 13.1978 1.86827 12.6634C2.41279 12.129 3.18134 11.6746 4.16811 11.2787L26.8616 2.14996C28.8366 1.35784 31.3477 1.00009 33.855 1.00009L33.8545 1ZM33.8545 2.12645C31.4614 2.12645 29.0635 2.49204 27.2835 3.20597L4.59004 12.3114C3.69931 12.6687 3.03644 13.0744 2.64218 13.4613C2.24794 13.8482 2.12589 14.1855 2.12589 14.4939C2.12589 14.8023 2.24794 15.163 2.64218 15.5499C3.03642 15.9368 3.69924 16.3425 4.59004 16.6998L27.2835 25.8053C29.0583 26.5171 31.4437 26.8824 33.8311 26.8848C34.4379 26.8848 35.0412 26.86 35.638 26.8142C36.2194 26.7699 36.7978 26.7139 37.3511 26.6264H37.3746C37.6471 26.5829 37.9102 26.5161 38.1725 26.4621H38.196C38.4579 26.4081 38.721 26.3392 38.9704 26.2744H38.9938C39.2424 26.209 39.464 26.1387 39.6979 26.0632H39.7213C39.9549 25.9874 40.1853 25.8914 40.4019 25.805H40.4254L51.1267 21.5105L53.3561 20.6187L63.1187 16.6996C64.0094 16.3424 64.6488 15.9367 65.0431 15.5498C65.3387 15.2596 65.4999 15.0016 65.5594 14.7519V14.5172C65.5612 14.4694 65.5691 14.4221 65.5828 14.3764C65.5499 14.0996 65.3885 13.8002 65.0431 13.4611C64.6488 13.0742 64.0094 12.6685 63.1187 12.3112L40.4252 3.20574C38.6452 2.49181 36.2474 2.12622 33.8543 2.12622L33.8545 2.12645ZM53.0042 21.9565L40.8242 26.8613C38.8498 27.6531 36.3345 28.0581 33.8308 28.0581C31.335 28.0581 28.8291 27.6506 26.861 26.8613L14.681 21.9565V32.259C14.681 33.1053 15.1194 33.9342 16.0421 34.77C16.9649 35.6058 18.3617 36.4035 20.102 37.0698C23.5828 38.4026 28.4663 39.2524 33.8537 39.2524C39.2415 39.2524 44.1052 38.4025 47.5822 37.0698C49.3206 36.4036 50.6973 35.6057 51.6186 34.77C52.5399 33.9343 53.0033 33.1056 53.0033 32.259V21.9565H53.0042Z"  />
</svg>
