<svg width="27" height="31" viewBox="0 0 27 31" xmlns="http://www.w3.org/2000/svg">
<path fill-rule="evenodd" clip-rule="evenodd" d="M2.54335 0.25H15.848L24.4623 9.23784V17.3073H22.9623V9.8406L15.208 1.75H4.04335V17.3073H2.54335V0.25Z" />
<path fill-rule="evenodd" clip-rule="evenodd" d="M2.54335 26.4174H4.04335V28.8089H22.9623V26.4174H24.4623V30.3089H2.54335V26.4174Z" />
<path fill-rule="evenodd" clip-rule="evenodd" d="M14.7756 1H16.2756V8.61786H23.7099V10.1179H14.7756V1Z" />
<path fill-rule="evenodd" clip-rule="evenodd" d="M0.25 16.557H26.75V27.1674H0.25V16.557ZM1.75 18.057V25.6674H25.25V18.057H1.75Z" />
<path d="M8.2053 24.1333V20.0779H10.0489C10.7472 20.0494 11.3617 20.592 11.3897 21.3345C11.4176 22.0485 10.8869 22.6768 10.1606 22.7054C10.1327 22.7054 10.0768 22.7054 10.0489 22.7054H9.04329V24.1333H8.2053ZM10.5237 21.3631C10.5237 21.0775 10.3003 20.8204 9.99301 20.8204C9.96508 20.8204 9.96508 20.8204 9.93714 20.8204H9.04329V21.9057H9.93714C10.2444 21.9343 10.4958 21.7058 10.5237 21.4202C10.5237 21.4202 10.5237 21.3916 10.5237 21.3631Z" />
<path d="M11.9229 24.1338V20.0784H13.4872C14.7442 20.0784 15.5821 20.8781 15.5821 22.1061C15.5821 23.3342 14.7162 24.1338 13.4872 24.1338H11.9229ZM14.7162 22.1061C14.7721 21.4493 14.2693 20.8781 13.6548 20.8495C13.5989 20.8495 13.543 20.8495 13.4872 20.8495H12.7889V23.3913H13.5151C14.1576 23.4198 14.7162 22.9058 14.7442 22.2489C14.7162 22.1632 14.7162 22.1347 14.7162 22.1061Z" />
<path d="M16.169 24.1338V20.0784H18.9902V20.8495H17.0349V21.7063H18.9623V22.4774H17.0349V24.1338H16.169Z" />
</svg>
