<svg width="199" height="29" viewBox="0 0 199 29" xmlns="http://www.w3.org/2000/svg"><path d="M38.489 15.4959H43.3748V12.4501H38.489V9.68193H47.3641V6.59214H34.6879V21.6105H47.5301V18.5207H38.489V15.4959Z M59.1131 6.59204L52.1797 21.6104H56.1263L57.4264 18.6489H64.5634L65.8584 21.6104H69.9726L63.0375 6.59204H59.1131ZM58.7453 15.647L61.0017 10.5061L63.2496 15.647H58.7453Z M86.8515 7.48323C85.6404 6.89093 84.1794 6.59214 82.467 6.59214H74.7809V21.6105H82.4653C84.1777 21.6105 85.6404 21.3169 86.8498 20.7317C88.061 20.1447 88.9796 19.2975 89.6058 18.1903C90.2319 17.0812 90.5449 15.7332 90.5449 14.1461C90.5449 12.5731 90.2319 11.218 89.6058 10.0809C88.9813 8.942 88.0627 8.07728 86.8515 7.48323ZM86.1519 16.5153C85.8525 17.1515 85.3992 17.6314 84.7953 17.953C84.1897 18.2746 83.4421 18.4346 82.5508 18.4346H78.6231V9.76805H82.5491C83.4404 9.76805 84.188 9.93326 84.7936 10.2619C85.3992 10.5906 85.8508 11.0845 86.1502 11.7418C86.4495 12.3991 86.5984 13.2006 86.5984 14.1444C86.6001 15.0882 86.4512 15.8791 86.1519 16.5153Z M108.569 7.32149C107.296 6.69229 105.767 6.37769 103.986 6.37769C102.231 6.37769 100.715 6.6958 99.4339 7.33204C98.1526 7.96827 97.1656 8.86287 96.4693 10.0141C95.773 11.1653 95.4258 12.5274 95.4258 14.1021C95.4258 15.6752 95.773 17.0373 96.4693 18.1902C97.1656 19.3414 98.1543 20.236 99.4339 20.8723C100.715 21.5085 102.233 21.8266 103.986 21.8266C105.769 21.8266 107.296 21.5085 108.569 20.8723C109.843 20.236 110.824 19.3414 111.513 18.1902C112.203 17.039 112.546 15.6769 112.546 14.1021C112.546 12.5291 112.203 11.1635 111.513 10.0035C110.825 8.84529 109.843 7.9507 108.569 7.32149ZM108.111 16.6119C107.77 17.2851 107.255 17.8 106.566 18.1568C105.876 18.5154 105.018 18.6929 103.988 18.6929C102.972 18.6929 102.125 18.5136 101.451 18.1568C100.775 17.8 100.26 17.2816 99.9061 16.6014C99.5503 15.923 99.374 15.0881 99.374 14.1021C99.374 13.1144 99.5503 12.2831 99.9061 11.6029C100.262 10.9245 100.777 10.4042 101.451 10.0475C102.127 9.69068 102.972 9.51141 103.988 9.51141C105.018 9.51141 105.878 9.69068 106.566 10.0475C107.255 10.406 107.77 10.9245 108.111 11.6029C108.451 12.2831 108.622 13.1162 108.622 14.1021C108.622 15.1022 108.451 15.9388 108.111 16.6119Z M118.168 6.59204V21.6104H122.01V16.2691H126.853V13.1354H122.01V9.76795H130.822V6.59204H118.168Z M136.453 6.59204V21.6104H140.295V16.2691H145.138V13.1354H140.295V9.76795H149.107V6.59204H136.453Z M158.358 6.59204H154.516V21.6104H158.358V6.59204Z M189.958 18.5207V15.4959H194.843V12.4501H189.958V9.68193H198.833V6.59214H186.156V21.6105H199V18.5207H189.958Z M0 28.1895H29.0578V0H0V28.1895ZM6.50577 6.58557H9.84675V12.324H19.3479V6.58557H22.6479V21.6039H19.3479V15.3716H9.84675V21.6039H6.50577V6.58557Z M176.818 16.612C176.478 17.2852 175.963 17.8002 175.273 18.1569C174.584 18.5155 173.725 18.693 172.695 18.693C171.679 18.693 170.832 18.5137 170.158 18.1569C169.483 17.8002 168.968 17.2817 168.613 16.6015C168.259 15.9231 168.081 15.0882 168.081 14.1023C168.081 13.1145 168.259 12.2814 168.613 11.603C168.969 10.9246 169.484 10.4044 170.158 10.0476C170.834 9.69079 171.679 9.51152 172.695 9.51152C173.725 9.51152 174.586 9.69079 175.273 10.0476C175.963 10.4061 176.478 10.9246 176.818 11.603C176.948 11.8614 177.044 12.1479 177.124 12.4502H181.114C180.953 11.552 180.657 10.7365 180.221 10.0036C179.531 8.8454 178.549 7.95081 177.276 7.3216C176.004 6.69239 174.474 6.37779 172.693 6.37779C170.94 6.37779 169.423 6.69591 168.141 7.33215C166.86 7.96838 165.873 8.86298 165.177 10.0142C164.48 11.1654 164.133 12.5275 164.133 14.1023C164.133 15.6753 164.482 17.0374 165.177 18.1886C165.873 19.3398 166.862 20.2344 168.141 20.8706C169.423 21.5068 170.94 21.825 172.693 21.825C174.476 21.825 176.004 21.5068 177.276 20.8706C178.551 20.2344 179.531 19.3398 180.221 18.1886C180.698 17.3924 181.004 16.4943 181.151 15.496H177.196C177.112 15.9073 176.986 16.2799 176.818 16.612Z"/></svg>